<svg height="22" width="52" viewBox="0 0 52 22" xmlns="http://www.w3.org/2000/svg"><path d="M12.114 14.87l3.014 7.085h-1.423l-.653-1.62H10.02l-.632 1.62H7.993l3.044-7.084zm8.386 0v1.101h-2.144v5.984H17.11v-5.984h-2.144v-1.1zm3.5 0l1.818 5.034h.03l1.798-5.033h1.956v7.084h-1.235v-5.693h-.02l-2.124 5.693h-.87l-2.094-5.693h-.02v5.693h-1.186v-7.084zm10.652 0c.52 0 1 .083 1.438.248.439.165.818.4 1.138.705.32.305.569.675.748 1.11.178.434.268.921.268 1.46 0 .528-.09 1.009-.268 1.444-.179.434-.428.809-.748 1.123-.32.314-.699.559-1.138.733a3.858 3.858 0 01-1.438.262c-.514 0-.99-.087-1.425-.262a3.346 3.346 0 01-1.128-.733 3.363 3.363 0 01-.743-1.123 3.76 3.76 0 01-.268-1.443c0-.54.09-1.027.268-1.462.178-.434.426-.804.743-1.11.316-.304.692-.539 1.128-.704.436-.165.91-.247 1.425-.247zm7.359.012c.337 0 .68.06 1.026.18.347.12.648.3.905.541l-.769.854a1.438 1.438 0 00-.53-.412 1.567 1.567 0 00-1.101-.114 1.25 1.25 0 00-.375.161.884.884 0 00-.277.285.792.792 0 00-.107.422.76.76 0 00.093.39c.063.107.149.199.258.275.11.076.242.142.398.2.157.056.329.113.516.17.212.07.433.149.66.237.23.089.438.206.63.352.19.145.346.329.468.55.122.222.183.497.183.826 0 .36-.066.676-.197.944a1.94 1.94 0 01-.525.67c-.22.177-.475.31-.769.399a3.198 3.198 0 01-.928.132c-.431 0-.853-.08-1.265-.242-.413-.161-.75-.4-1.013-.717l.844-.797c.162.228.38.408.651.541.272.133.54.2.802.2.137 0 .278-.018.422-.053.143-.034.273-.093.389-.175a.977.977 0 00.28-.309.904.904 0 00.109-.46.757.757 0 00-.122-.442 1.095 1.095 0 00-.328-.303c-.138-.086-.3-.16-.488-.223l-.59-.2c-.2-.063-.4-.139-.6-.228-.2-.088-.38-.205-.54-.35a1.698 1.698 0 01-.388-.537c-.1-.212-.15-.476-.15-.793 0-.342.07-.636.21-.883.141-.246.326-.45.554-.612.228-.161.487-.281.778-.36.29-.08.586-.12.886-.12zm-7.35 1.14a2.081 2.081 0 00-1.592.687 2.28 2.28 0 00-.447.751 2.684 2.684 0 00-.159.934c0 .348.053.667.159.957.105.29.256.542.452.756.196.214.428.38.696.5s.566.178.891.178c.326 0 .624-.06.896-.179.27-.119.505-.285.7-.499.196-.214.347-.466.453-.756.105-.29.158-.609.158-.957a2.69 2.69 0 00-.158-.934 2.285 2.285 0 00-.448-.75 2.074 2.074 0 00-.696-.505 2.18 2.18 0 00-.905-.183zm-23.12.35l-1.097 2.882h2.174zM46.325 3.15l1.993 4.537 1.993-4.537h1.671l-3.962 8.966a1.973 1.973 0 01-2.612 1.017l-.53-.24h-.003l.19-.432.427-.972.22.1a.813.813 0 001.077-.42l.004-.01.613-1.402.02-.044.056-.125-2.828-6.438zM36.392.002v10.23h-1.53V.002zm2.818 0v3.784a3.446 3.446 0 012-.638c1.928 0 3.496 1.588 3.496 3.54s-1.568 3.542-3.496 3.542a3.446 3.446 0 01-2-.639v.64h-1.532V.002zm-8.834 3.146c1.928 0 3.496 1.588 3.496 3.54s-1.568 3.541-3.496 3.541c-1.929 0-3.497-1.588-3.497-3.54s1.568-3.541 3.497-3.541zM1.489 0c2.78 0 5.045 2.295 5.045 5.11 0 2.815-2.266 5.11-5.045 5.11H0V0zm12.867 0v10.22h-1.488c-2.78 0-5.046-2.295-5.046-5.11 0-2.815 2.266-5.11 5.046-5.11zm6.7 0c2.783 0 5.047 2.292 5.047 5.11s-2.264 5.11-5.046 5.11h-3.645V0zm9.32 4.54c-1.157 0-2.109.95-2.109 2.135 0 1.172.939 2.135 2.109 2.135 1.157 0 2.108-.95 2.108-2.135 0-1.171-.951-2.135-2.108-2.135zm10.834 0c-.927 0-1.72.61-2 1.462a2.152 2.152 0 000 1.346 2.111 2.111 0 002 1.463c1.157 0 2.108-.95 2.108-2.135 0-1.172-.951-2.135-2.108-2.135zM21.057 1.55h-2.115v7.12h2.115c1.937 0 3.516-1.599 3.516-3.56 0-1.962-1.58-3.56-3.516-3.56z" fill="#6a7377"/></svg>