<svg height="15" width="69.152351" viewBox="0 0 69.152351 15" xmlns="http://www.w3.org/2000/svg"><path d="M 2.7207078,0 C 1.216445,0.00165566 -0.00220594,1.2223004 4.6910514e-6,2.7265625 V 12.271484 C -0.00275908,13.776136 1.2160538,14.998345 2.7207078,15 H 66.429693 c 1.505596,-5.51e-4 2.724857,-1.222921 2.722656,-2.728516 V 2.7265625 C 69.154009,1.2213579 67.934898,5.5165881e-4 66.429693,0 Z m 2.3261719,3.1503906 h 6.0566413 6.05664 V 7.375 11.599609 H 11.103521 5.0468797 V 7.375 Z m 19.7578133,0.00781 h 1.283203 l 3.591797,8.4414064 H 27.98438 L 27.205083,9.6699219 h -3.611328 l -0.753906,1.9296871 h -1.66211 z m 4.68164,0 h 6.59375 V 4.46875 h -2.554687 v 7.130859 H 32.041021 V 4.46875 h -2.554688 z m 8.445313,0 h 2.318359 L 42.416021,9.15625 h 0.03711 l 2.142578,-5.9980469 h 2.330078 V 11.599609 H 45.45313 V 4.8164062 h -0.02344 l -2.529297,6.7832028 h -1.03711 l -2.49609,-6.7832028 h -0.02344 v 6.7832028 h -1.412109 z m 15.011718,0 c 0.619596,0 1.191001,0.09832 1.712891,0.2949219 0.523081,0.1966023 0.97418,0.4764272 1.355469,0.8398438 0.381289,0.3634164 0.679294,0.8039503 0.892578,1.3222656 0.212092,0.5171237 0.318359,1.0979999 0.318359,1.7402344 0,0.6291275 -0.106267,1.2023878 -0.318359,1.7207031 -0.213284,0.5171237 -0.511289,0.9637526 -0.892578,1.3378906 -0.381289,0.374141 -0.832388,0.665721 -1.355469,0.873047 -0.546029,0.212292 -1.127076,0.318572 -1.712891,0.3125 -0.612446,0 -1.180903,-0.103981 -1.699218,-0.3125 -0.502523,-0.197139 -0.959482,-0.493927 -1.34375,-0.873047 -0.382293,-0.381783 -0.68289,-0.8367393 -0.884766,-1.3378906 -0.218353,-0.5465855 -0.327846,-1.130212 -0.320313,-1.71875 0,-0.6434259 0.10822,-1.2238723 0.320313,-1.7421875 0.212092,-0.5171238 0.507051,-0.9596109 0.884766,-1.3242188 0.376523,-0.362225 0.824243,-0.6412883 1.34375,-0.8378906 0.519507,-0.1966024 1.085581,-0.2949219 1.699218,-0.2949219 z m 8.767579,0.011719 v 0.00195 c 0.401544,0 0.810387,0.071861 1.222656,0.2148438 0.413461,0.1429835 0.771902,0.3573726 1.078125,0.6445312 L 63.095708,5.0488281 C 62.926883,4.8376605 62.711134,4.6701162 62.464849,4.5585938 62.058642,4.3552355 61.591604,4.3060571 61.152349,4.421875 c -0.158445,0.039034 -0.30984,0.1034117 -0.447266,0.1914062 -0.134367,0.086672 -0.247262,0.2030633 -0.330078,0.3398438 -0.08864,0.1524085 -0.13226,0.3276792 -0.126953,0.5039062 -0.0054,0.1620255 0.03347,0.3207031 0.111328,0.4628907 0.07507,0.1274936 0.176764,0.2375687 0.306641,0.328125 0.131068,0.090556 0.288731,0.1691724 0.474609,0.2382812 0.187071,0.066726 0.392418,0.1352079 0.615234,0.203125 0.252604,0.083407 0.51468,0.1783485 0.785157,0.2832031 0.274052,0.1060462 0.52318,0.2440056 0.751953,0.4179688 0.226391,0.1727718 0.411274,0.392922 0.55664,0.65625 0.145367,0.2645195 0.21875,0.5923618 0.21875,0.984375 0,0.4289505 -0.07828,0.8056694 -0.234375,1.125 -0.146848,0.309135 -0.361908,0.580356 -0.626953,0.796875 -0.262137,0.210901 -0.565706,0.370516 -0.916015,0.476563 -0.358854,0.10645 -0.731165,0.158416 -1.105469,0.15625 -0.51355,0 -1.016903,-0.09408 -1.507813,-0.28711 -0.492102,-0.191836 -0.893659,-0.477755 -1.207031,-0.855469 l 1.005859,-0.9492184 c 0.193028,0.2716687 0.452487,0.4860578 0.775391,0.6445314 0.324096,0.158474 0.64485,0.238281 0.957031,0.238281 0.163239,0 0.330374,-0.0208 0.501954,-0.0625 0.170389,-0.04051 0.324673,-0.111279 0.46289,-0.208984 0.136409,-0.09729 0.250567,-0.2238339 0.333984,-0.3691409 0.09114,-0.1679473 0.136951,-0.3558884 0.13086,-0.546875 0.0071,-0.1863588 -0.04475,-0.3710413 -0.146484,-0.5273437 C 62.3881,8.5161973 62.255256,8.3930032 62.101567,8.3007812 61.937136,8.1983097 61.745497,8.1102226 61.521489,8.0351562 L 60.818364,7.796875 C 60.580058,7.7218086 60.341827,7.6314367 60.103521,7.5253906 59.865215,7.420536 59.649633,7.2821467 59.458989,7.109375 59.264366,6.9285151 59.106697,6.7103195 58.996099,6.46875 58.876946,6.2161458 58.818364,5.9011523 58.818364,5.5234375 c 0,-0.407503 0.08319,-0.7564735 0.25,-1.0507813 C 59.23637,4.17954 59.456852,3.9352153 59.728521,3.7421875 60.00019,3.5503513 60.30952,3.408584 60.656255,3.3144531 61.001799,3.2191311 61.353484,3.1699219 61.710943,3.1699219 Z M 6.4882859,4.2519531 v 3.1171875 3.1152344 h 0.8125 c 1.0362664,0 1.4806207,-0.124393 2.03125,-0.5703125 C 10.000013,9.37246 10.390682,8.5603468 10.462896,7.6035156 10.554968,6.2874214 9.8866831,5.0170986 8.8125047,4.4863281 8.4387989,4.3094046 8.3669282,4.2972028 7.4570359,4.2773438 Z m 9.2324221,0.013672 -0.865234,0.00586 c -0.969468,0 -1.255631,0.065368 -1.753907,0.3867187 -1.054318,0.6733925 -1.591472,2.1748471 -1.277343,3.5234375 0.254553,1.0741785 0.994077,1.9248067 1.923828,2.1992187 0.243721,0.07221 0.615387,0.105469 1.166015,0.105469 h 0.806641 V 7.375 Z M 52.95313,4.529297 C 52.231849,4.5132 51.539752,4.8137776 51.056646,5.3496095 c -0.233579,0.2611439 -0.41503,0.5646968 -0.533203,0.8945312 -0.128645,0.3567939 -0.192795,0.7340187 -0.189454,1.1132813 0,0.4146522 0.06315,0.7931284 0.189454,1.1386719 0.125109,0.3455434 0.305522,0.6473564 0.539062,0.9023437 0.23354,0.2549873 0.510749,0.4527196 0.830078,0.5957031 0.31933,0.1429843 0.6733,0.2109373 1.060547,0.2109373 0.388439,0 0.744263,-0.0711 1.068359,-0.2128904 0.321713,-0.141792 0.601637,-0.3387627 0.833985,-0.59375 0.23354,-0.2549873 0.41276,-0.5568003 0.539062,-0.9023437 0.12511,-0.3455435 0.189453,-0.7240197 0.189453,-1.1386719 0.0036,-0.379178 -0.06136,-0.7563754 -0.189453,-1.1132813 C 55.275728,5.9146998 55.095086,5.6103887 54.861333,5.3496094 54.62997,5.0933019 54.346691,4.8884829 54.031255,4.7480469 53.691503,4.5992046 53.324021,4.5241547 52.95313,4.529297 Z M 25.406255,4.9472656 24.097661,8.3808594 h 2.591797 z" fill="#6a7377"/></svg>