<svg height="15" width="26" viewBox="0 0 26 15" xmlns="http://www.w3.org/2000/svg"><g fill="none" fill-rule="evenodd"><rect height="14" rx="2.737" stroke="#6a7377" width="25" x=".5" y=".5"/><path d="M 3.2363281 0 C 1.4516805 0 2.9605947e-16 1.4516805 0 3.2363281 L 0 11.763672 C 0 13.548319 1.4516805 15 3.2363281 15 L 22.763672 15 C 24.548319 15 26 13.548319 26 11.763672 L 26 3.2363281 C 26 1.4516805 24.548319 2.9605947e-16 22.763672 0 L 3.2363281 0 z M 3.2363281 1 L 22.763672 1 C 24.011617 1 25 1.9883828 25 3.2363281 L 25 11.763672 C 25 13.011617 24.011617 14 22.763672 14 L 3.2363281 14 C 1.9883828 14 1 13.011617 1 11.763672 L 1 3.2363281 C 1 1.9883828 1.9883828 1 3.2363281 1 z M 12.888672 3.1367188 L 12.417969 3.1464844 C 12.406829 3.1464844 12.332031 3.1530018 12.332031 3.2148438 C 12.332031 3.2680277 12.369853 3.2851562 12.408203 3.2851562 C 15.438474 3.2851562 20.365867 4.4896701 20.205078 7.0957031 C 20.076446 9.2181296 16.231724 11.703125 7.3808594 11.703125 C 7.3289124 11.703125 7.2929688 11.739314 7.2929688 11.771484 C 7.2929688 11.803644 7.3138781 11.834377 7.3769531 11.841797 C 7.3769531 11.841797 22.75622 12.464654 23.083984 7.0917969 C 23.316499 3.2773684 14.981414 3.1181662 12.888672 3.1367188 z M 5.0371094 3.8710938 C 5.0240934 3.8709958 5.0119483 3.8784329 5.0039062 3.8886719 C 4.1109034 5.1453062 3.570773 5.9984842 3.0117188 7.03125 L 2.9550781 7.1425781 L 2.9394531 7.1796875 C 2.8924531 7.2798714 2.9026721 7.3909619 2.9707031 7.4960938 C 3.3009406 8.0130951 5.1550055 8.6171875 9.2910156 8.6171875 C 12.374471 8.6171875 15.652344 8.1187153 15.652344 7.1972656 C 15.652344 6.306737 12.41776 5.7753906 9.2910156 5.7753906 C 8.5000402 5.7839206 7.7097334 5.8476696 6.9277344 5.9667969 C 7.210972 5.5301905 8.384116 3.9509095 8.3964844 3.9335938 C 8.4039544 3.9001987 8.4008675 3.8987621 8.3984375 3.8925781 C 8.3959175 3.8863981 8.3800764 3.8710938 8.3652344 3.8710938 L 5.0371094 3.8710938 z M 9.2929688 6.7363281 C 11.182868 6.7363281 12.341797 7.006271 12.341797 7.1992188 C 12.341797 7.3921668 11.182868 7.6582031 9.2929688 7.6582031 C 7.4030688 7.6582031 6.2441406 7.3934036 6.2441406 7.1992188 C 6.2441406 7.0050342 7.4030688 6.7363281 9.2929688 6.7363281 z" fill="#6a7377"/></g></svg>