<svg viewBox="0 0 22.432337 14.980689" xmlns="http://www.w3.org/2000/svg"><path d="m 11.092842,0 -0.523878,0.01100006 c -0.01238,0 -0.09488,0.0082501 -0.09488,0.07700046 0,0.05912535 0.04263,0.07837547 0.08525,0.07837547 3.36877,0 8.845427,1.33788291 8.666676,4.23502521 -0.143001,2.3595141 -4.417901,5.1232805 -14.2574601,5.1232805 -0.05775,0 -0.096251,0.039875 -0.096251,0.075626 0,0.03575 0.022,0.070125 0.092125,0.078375 h 0.00138 c 0,0 17.0968521,0.6930043 17.4612291,-5.2800314 C 22.685536,0.15812594 13.419356,-0.01925012 11.092842,0.00137501 Z M 2.3629144,0.81812987 a 0.04675028,0.04675028 0 0 0 -0.037125,0.0178751 C 1.3330333,2.2330133 0.73352974,3.1817689 0.11202604,4.3299008 l -0.061875,0.1251257 -0.017875,0.04125 c -0.05225,0.1113756 -0.04125,0.2337513 0.034375,0.350627 0.3671272,0.5747535 2.42826446,1.2457575 7.02629176,1.2457575 3.4278952,0 7.0716672,-0.5541283 7.0716672,-1.5785094 0,-0.9900059 -3.595646,-1.5798845 -7.0716672,-1.5798845 A 18.782612,18.782612 0 0 0 4.4666769,3.1473937 C 4.7815538,2.6620158 6.0850616,0.9061304 6.0988117,0.88688028 c 0.00825,-0.0371252 0.0055,-0.0385002 0.00275,-0.0453753 -0.00275,-0.006875 -0.022,-0.0233751 -0.0385,-0.0233751 z M 7.0943175,4.0026488 c 2.101012,0 3.3907705,0.2997518 3.3907705,0.5142531 0,0.2145013 -1.2897585,0.511503 -3.3907705,0.511503 -2.1010124,0 -3.3893951,-0.2956267 -3.3893951,-0.511503 0,-0.2158763 1.2883827,-0.5142531 3.3893951,-0.5142531 z M 3.8589233,10.88319 a 17.195852,17.195852 0 0 0 -1.2031322,0.044 c -0.1622509,0 -0.3341269,0.203501 -0.4207525,0.332752 A 294.2105,294.2105 0 0 0 0.84078034,13.51908 c -0.170501,0.277752 -0.01375,0.378128 0.18012606,0.390503 0.5170031,0.03163 1.1866321,0.033 1.9717618,0 0.6998791,-0.03163 1.181132,-0.04125 1.7325103,-1.065632 0.2420014,-0.456502 -0.4345026,-0.484002 -0.4345026,-0.484002 -0.089376,0 0.6146287,0.03712 0.9968809,-0.76038 0.3451271,-0.720504 -0.2777516,-0.665504 -0.3918773,-0.676504 a 10.630188,10.630188 0 0 0 -1.0340062,-0.0385 z m 2.9081423,0.09075 v 0.0014 c -0.072875,0 -0.2928767,0.0715 -0.506003,0.378128 -0.2131262,0.306626 -1.1467568,1.853511 -1.3241329,2.139512 -0.177376,0.286002 -0.1182507,0.420753 0.0715,0.420753 h 0.4180025 c 0.2035012,0 0.3685022,-0.233752 0.4537527,-0.374002 l 1.3626329,-2.200014 c 0.159501,-0.262626 0.05775,-0.367127 -0.05225,-0.367127 z M 3.472546,11.459318 h 0.3987524 c 0.1168757,0 0.3960024,-0.0055 0.2516265,0.294252 -0.1925012,0.397377 -0.5775035,0.409752 -0.7741296,0.409752 H 3.0352934 c -0.072875,0 -0.1512509,0 -0.0605,-0.1375 l 0.2736267,-0.449628 c 0.059125,-0.0935 0.1141257,-0.116876 0.2227513,-0.116876 z m 12.727076,0.231002 c -0.969381,0 -1.350258,0.155375 -1.350258,0.155375 -0.115501,0.044 -0.240626,0.137501 -0.281876,0.203502 -0.04125,0.066 0.0165,0.122375 0.130625,0.122375 h 1.439634 c 0.112751,0 0.154001,0.09488 0.08387,0.196627 -0.11825,0.174626 -0.325877,0.193876 -0.325877,0.193876 h -0.694379 l -0.776879,0.0275 c -0.112751,0 -0.268127,0.104501 -0.349252,0.233751 l -0.297002,0.497753 c -0.358877,0.573379 0.429002,0.614629 1.034006,0.614629 0.980381,0 1.449259,-0.269502 1.449259,-0.269502 a 1.1962571,1.1962571 0 0 0 0.347877,-0.347877 l 0.629753,-1.018881 c 0.07838,-0.125126 0.09625,-0.320377 0.03713,-0.434502 0,0 -0.09488,-0.178751 -1.073882,-0.178751 z m -6.2576625,0.0027 c -0.213126,0 -0.423503,0.268126 -0.503253,0.398752 l -0.688879,1.130257 c -0.07975,0.12925 -0.237877,0.233751 -0.350627,0.233751 H 7.8890722 c -0.1127507,0 -0.1402508,-0.104501 -0.0605,-0.233751 l 0.6985043,-1.135757 c 0.251626,-0.393252 -0.04675,-0.378127 -0.258502,-0.378127 -0.3300016,0 -0.3726269,0.02337 -0.3726269,0.02337 a 0.94875565,0.94875565 0 0 0 -0.345127,0.354752 l -0.7603794,1.238882 c -0.3685022,0.616004 0.4303774,0.613254 1.028506,0.613254 0.6256283,0 1.2540073,0 1.5083833,-0.294252 0,0 -0.09488,0.279127 0.07838,0.279127 h 0.275001 c 0.158126,0 0.262627,-0.05363 0.319002,-0.140251 L 10.15509,13.516275 C 10.23622,13.38565 10.13584,13.308649 10.049215,13.308649 H 9.8415875 c -0.07563,0 -0.149876,-0.05775 -0.07287,-0.184251 L 10.399847,12.090392 C 10.612973,11.73839 10.436967,11.68889 10.285721,11.68889 H 9.9364685 Z m 3.8280235,0.02063 c -0.660004,0 -1.027131,0.04125 -1.408009,0.592628 l -0.753504,1.234758 c -0.174626,0.298376 -0.0165,0.375377 0.07563,0.375377 h 0.397378 c 0.156751,0 0.276376,-0.01237 0.503253,-0.375377 l 0.712254,-1.153632 c 0.07975,-0.129251 0.242001,-0.233752 0.356127,-0.233752 h 0.444128 c 0.05912,0 0.269501,-0.0069 0.290126,-0.155376 0.03163,-0.226876 -0.457877,-0.286001 -0.614628,-0.286001 z m 6.865416,0.02475 c -0.055,0 -0.111376,0.0028 -0.155376,0.0028 -0.325877,0 -0.378128,0.033 -0.378128,0.033 a 1.167382,1.167382 0 0 0 -0.347877,0.345127 l -0.683379,1.101382 c -0.07837,0.12925 -0.235126,0.232376 -0.349252,0.232376 h -0.468878 c -0.114125,0 -0.138875,-0.103126 -0.06188,-0.232376 l 0.683379,-1.101382 C 19.15176,11.680699 18.825878,11.7412 18.615507,11.7412 h -0.0014 c -0.330002,0 -0.371253,0.02337 -0.371253,0.02337 a 1.2512575,1.2512575 0 0 0 -0.347877,0.352002 l -0.745254,1.203132 c -0.369877,0.620129 0.430377,0.614629 1.027131,0.614629 a 4.5540271,4.5540271 0 0 0 0.466128,-0.022 l -0.213126,0.349252 c -0.07975,0.129251 -0.237877,0.233751 -0.350628,0.233751 l -0.254376,-0.0014 -1.133007,-0.0014 c -0.156751,0 -0.281877,0.06325 -0.297002,0.170501 -0.01513,0.107251 0.04813,0.182876 0.099,0.213127 0.05087,0.03025 0.02613,0.099 0.92263,0.103125 l 0.122376,0.0014 c 0.977631,0 1.453384,-0.266751 1.453384,-0.266751 A 1.1962571,1.1962571 0 0 0 19.34011,14.36606 l 0.745254,-1.203132 a 0.85250508,0.85250508 0 0 0 0.0605,-0.10725 l 0.583003,-0.939131 c 0.215877,-0.334127 0.07013,-0.379502 -0.0935,-0.380877 z m -9.674558,0.701254 0.0083,0.0069 c -0.211751,0 -0.288752,0.145751 -0.327252,0.209001 -0.0385,0.06325 -0.07287,0.09625 -0.118251,0.188376 -0.04537,0.09213 -0.03575,0.200752 0.03163,0.200752 h 0.596753 c 0.158126,0 0.264002,-0.05363 0.319002,-0.141626 l 0.158126,-0.258502 c 0.07837,-0.129251 -0.02063,-0.202126 -0.105876,-0.202126 z M 2.7396666,12.65278 h 0.5981286 c 0.1182507,0 0.4015024,-0.0083 0.2557515,0.294252 -0.1911261,0.398752 -0.5541283,0.407002 -0.7507544,0.407002 H 2.298289 c -0.072875,0 -0.1512509,0 -0.061875,-0.138875 l 0.2818763,-0.445458 a 0.22000131,0.22000131 0 0 1 0.2227514,-0.116876 z m 12.4066994,0.305297 h 0.541753 c 0.132001,0 0.159501,0.119626 0.07013,0.269502 l -0.011,0.0165 c -0.09075,0.145751 -0.273627,0.266751 -0.404253,0.266751 l -0.286002,0.0165 -0.251626,-0.0165 c -0.129251,0 -0.162251,-0.119625 -0.0715,-0.266751 l 0.011,-0.0165 c 0.0935,-0.149876 0.272251,-0.269502 0.401502,-0.269502 z" fill="#6a7377" fill-rule="evenodd"/></svg>