<svg viewBox="0 0 51.982422 22" xmlns="http://www.w3.org/2000/svg"><path d="m 0,0 v 10.220703 h 1.4882812 c 2.7790001,0 5.0449219,-2.296328 5.0449219,-5.111328 C 6.5332031,2.294375 4.2682812,0 1.4882812,0 Z m 12.867188,0 c -2.78,0 -5.0449224,2.294375 -5.0449224,5.109375 0,2.815 2.2649214,5.111328 5.0449224,5.111328 h 1.488281 V 0 Z m 4.544921,0 v 10.220703 h 3.644532 c 2.782,0 5.046875,-2.293328 5.046875,-5.111328 C 26.103516,2.291375 23.839641,0 21.056641,0 Z M 34.861328,0.00195313 V 10.232422 h 1.53125 V 0.00195313 Z m 2.816406,0 V 10.230469 h 1.533204 V 9.5917969 c 0.583967,0.4158541 1.283095,0.6388971 2,0.6386721 1.927999,0 3.49414,-1.590969 3.49414,-3.542969 0,-1.952 -1.566141,-3.5390625 -3.49414,-3.5390625 -0.716797,-5.174e-4 -1.415914,0.2212197 -2,0.6367187 V 0.00195313 Z M 18.941406,1.5507812 h 2.115235 c 1.936,0 3.515625,1.5965938 3.515625,3.5585938 0,1.961 -1.578625,3.5605469 -3.515625,3.5605469 h -2.115235 z m 11.435547,1.5976563 c -1.929,0 -3.498047,1.5890156 -3.498047,3.5410156 0,1.952 1.569047,3.5390629 3.498047,3.5390629 1.928,0 3.494141,-1.589016 3.494141,-3.541016 0,-1.952 -1.566141,-3.5390625 -3.494141,-3.5390625 z m 14.277344,0.00195 2.828125,6.4375 -0.05664,0.125 -0.01953,0.044922 -0.613281,1.4003905 -0.0039,0.01172 c -0.179578,0.4153 -0.662845,0.604011 -1.076171,0.419922 l -0.220703,-0.101563 -0.427735,0.972657 -0.189453,0.43164 h 0.0039 l 0.529297,0.240234 c 1.001998,0.445886 2.174648,-0.01153 2.611328,-1.017578 L 51.982422,3.1503906 H 50.310547 L 48.318359,7.6875 46.324219,3.1503906 Z m -14.277344,1.388675 c 1.157,0 2.107422,0.9657187 2.107422,2.1367187 0,1.185 -0.950422,2.1347657 -2.107422,2.1347657 -1.17,0 -2.109375,-0.9627657 -2.109375,-2.1347657 0,-1.1849999 0.952375,-2.1367187 2.109375,-2.1367187 z m 10.833985,0 v 0.00195 c 1.157,0 2.107421,0.9627657 2.107421,2.1347656 0,1.1850001 -0.950421,2.1347657 -2.107421,2.1347657 -0.91287,-0.00393 -1.719789,-0.5940827 -2,-1.4628907 -0.143923,-0.4371249 -0.143923,-0.9085782 0,-1.3457031 0.28,-0.852 1.073,-1.4628906 2,-1.4628906 z M 20.039062,14.695312 c -0.531528,2.43e-4 -1.019026,0.09651 -1.470703,0.291016 -0.452238,0.194745 -0.825817,0.461483 -1.15039,0.796875 -0.32574,0.333456 -0.583502,0.727819 -0.757813,1.160156 -0.176383,0.450111 -0.265642,0.928678 -0.263672,1.41211 -0.0042,0.49347 0.08504,0.983337 0.263672,1.443359 0.175271,0.443585 0.42041,0.831254 0.736328,1.160156 0.315919,0.328901 0.708128,0.577372 1.158204,0.765625 C 19.004763,21.912861 19.50682,22 20.058594,22 c 0.309427,0 0.607165,-0.03121 0.890625,-0.0918 0.2699,-0.05053 0.533326,-0.127572 0.787109,-0.232422 0.248841,-0.101701 0.475656,-0.219358 0.685547,-0.353515 0.20467,-0.127165 0.39967,-0.26862 0.583984,-0.423828 V 17.935547 H 20 v 1.080078 h 1.806641 v 1.322266 c -0.214219,0.162287 -0.471345,0.29283 -0.765625,0.394531 -0.29428,0.101698 -0.604061,0.140625 -0.939454,0.140625 -0.363521,0 -0.693789,-0.06373 -0.990234,-0.191406 -0.296443,-0.127667 -0.541429,-0.302518 -0.757812,-0.525391 -0.216382,-0.222874 -0.36774,-0.497215 -0.482422,-0.806641 -0.114684,-0.309427 -0.171875,-0.644291 -0.171875,-1.007812 -0.0016,-0.33096 0.05581,-0.660757 0.171875,-0.970703 0.121174,-0.302936 0.281187,-0.567719 0.482422,-0.794922 0.201236,-0.227201 0.453499,-0.405326 0.730468,-0.535156 0.282979,-0.135388 0.592554,-0.204653 0.90625,-0.203125 0.222873,0 0.423707,0.01943 0.605469,0.06055 0.176263,0.03032 0.34922,0.08008 0.513672,0.15039 0.155795,0.06059 0.30271,0.137212 0.443359,0.232422 0.140648,0.09521 0.277952,0.198028 0.41211,0.310547 l 0.789062,-0.935547 c -0.18176,-0.155795 -0.369499,-0.289614 -0.566406,-0.404297 -0.196909,-0.114683 -0.391251,-0.222462 -0.605469,-0.304687 -0.228413,-0.08419 -0.46442,-0.144969 -0.705078,-0.181641 -0.248289,-0.04749 -0.527328,-0.07021 -0.835937,-0.07031 z m 15.916016,0.07031 -3.107422,7.115234 h 1.271485 l 0.728515,-1.705078 H 38.1875 l 0.716797,1.705078 h 1.310547 L 37.107422,14.765625 H 35.957031 Z M 5.6230469,14.8125 v 0.0039 7.0625 h 2.6328125 c 0.516915,0.006 1.0294507,-0.08728 1.5117187,-0.273437 0.4421479,-0.168725 0.8478989,-0.422523 1.1914059,-0.748047 0.335393,-0.315921 0.59363,-0.690492 0.775391,-1.121094 0.184014,-0.444437 0.278027,-0.921326 0.275391,-1.402344 0.0032,-0.478274 -0.09082,-0.951342 -0.275391,-1.392578 C 11.552614,16.510805 11.294377,16.138393 10.958984,15.820312 10.623591,15.50223 10.230636,15.259254 9.7675781,15.083984 9.2853101,14.897826 8.7727734,14.806452 8.2558594,14.8125 Z m 7.9628911,0.0039 v 7.0625 h 1.238281 v -7.0625 z m 11.107421,0 v 7.0625 h 1.242188 v -7.0625 z m 2.623047,0 v 1.150391 h 2.242188 v 5.914062 h 1.25 v -5.914062 h 2.240234 V 14.8164 Z m 14.105469,0 v 7.0625 h 4.955078 V 20.75 H 42.662109 V 14.816406 Z M 6.8632812,15.945312 h 1.3925782 c 0.34521,-0.0052 0.6874796,0.05588 1.0097656,0.179688 0.302935,0.121173 0.5578982,0.289688 0.765625,0.503906 0.207728,0.214219 0.379459,0.471345 0.494141,0.765625 0.123803,0.304237 0.185477,0.630545 0.18164,0.958985 0.0033,0.331195 -0.05837,0.65938 -0.18164,0.966796 -0.114682,0.289954 -0.277758,0.54143 -0.494141,0.757813 -0.2188218,0.215737 -0.479141,0.384953 -0.765625,0.496094 -0.302936,0.114683 -0.6397516,0.173828 -1.0097656,0.173828 H 6.8632812 Z m 29.6484378,0.302735 1.21875,2.826172 h -2.431641 z" fill="#6a7377" fill-rule="evenodd"/></svg>