<svg viewBox="0 0 51.982422 22" xmlns="http://www.w3.org/2000/svg"><path d="m 0,0 v 10.220703 h 1.4882812 c 2.7790001,0 5.0449219,-2.296328 5.0449219,-5.111328 C 6.5332031,2.294375 4.2682812,0 1.4882812,0 Z m 12.867188,0 c -2.78,0 -5.0449224,2.294375 -5.0449224,5.109375 0,2.815 2.2649214,5.111328 5.0449224,5.111328 h 1.488281 V 0 Z m 4.544921,0 v 10.220703 h 3.644532 c 2.782,0 5.046875,-2.293328 5.046875,-5.111328 C 26.103516,2.291375 23.839641,0 21.056641,0 Z M 34.861328,0.00195313 V 10.232422 h 1.53125 V 0.00195313 Z m 2.816406,0 V 10.230469 h 1.533204 V 9.5917969 c 0.583967,0.4158541 1.283095,0.6388971 2,0.6386721 1.927999,0 3.49414,-1.590969 3.49414,-3.542969 0,-1.952 -1.566141,-3.5390625 -3.49414,-3.5390625 -0.716797,-5.174e-4 -1.415914,0.2212197 -2,0.6367187 V 0.00195313 Z M 18.941406,1.5507812 h 2.115235 c 1.936,0 3.515625,1.5965938 3.515625,3.5585938 0,1.961 -1.578625,3.5605469 -3.515625,3.5605469 h -2.115235 z m 11.435547,1.5976563 c -1.929,0 -3.498047,1.5890156 -3.498047,3.5410156 0,1.952 1.569047,3.5390629 3.498047,3.5390629 1.928,0 3.494141,-1.589016 3.494141,-3.541016 0,-1.952 -1.566141,-3.5390625 -3.494141,-3.5390625 z m 14.277344,0.00195 2.828125,6.4375 -0.05664,0.125 -0.01953,0.044922 -0.613281,1.4003905 -0.0039,0.01172 c -0.179578,0.4153 -0.662845,0.604011 -1.076171,0.419922 l -0.220703,-0.101563 -0.427735,0.972657 -0.189453,0.43164 h 0.0039 l 0.529297,0.240234 c 1.001998,0.445886 2.174648,-0.01153 2.611328,-1.017578 L 51.982422,3.1503906 H 50.310547 L 48.318359,7.6875 46.324219,3.1503906 Z m -14.277344,1.388675 c 1.157,0 2.107422,0.9657187 2.107422,2.1367187 0,1.185 -0.950422,2.1347657 -2.107422,2.1347657 -1.17,0 -2.109375,-0.9627657 -2.109375,-2.1347657 0,-1.1849999 0.952375,-2.1367187 2.109375,-2.1367187 z m 10.833985,0 v 0.00195 c 1.157,0 2.107421,0.9627657 2.107421,2.1347656 0,1.1850001 -0.950421,2.1347657 -2.107421,2.1347657 -0.91287,-0.00393 -1.719789,-0.5940827 -2,-1.4628907 -0.143923,-0.4371249 -0.143923,-0.9085782 0,-1.3457031 0.28,-0.852 1.073,-1.4628906 2,-1.4628906 z M 16.976562,14.695312 c -0.531528,2.43e-4 -1.019026,0.09651 -1.470703,0.291016 -0.452238,0.194745 -0.82777,0.461483 -1.152343,0.796875 -0.32574,0.333456 -0.581549,0.727819 -0.75586,1.160156 -0.176383,0.450111 -0.267595,0.928678 -0.265625,1.41211 -0.0042,0.49347 0.08699,0.983337 0.265625,1.443359 0.175271,0.443585 0.418457,0.831254 0.734375,1.160156 0.315919,0.328901 0.710081,0.577372 1.160157,0.765625 C 15.942262,21.912861 16.44432,22 16.996094,22 c 0.309427,0 0.605212,-0.03121 0.888672,-0.0918 0.2699,-0.05053 0.535279,-0.127572 0.789062,-0.232422 0.248841,-0.101701 0.475656,-0.219358 0.685547,-0.353515 0.20467,-0.127165 0.39967,-0.26862 0.583984,-0.423828 V 17.935547 H 16.9375 v 1.080078 h 1.806641 v 1.322266 c -0.214219,0.162287 -0.471345,0.29283 -0.765625,0.394531 -0.29428,0.101698 -0.604061,0.140625 -0.939454,0.140625 -0.363521,0 -0.693789,-0.06373 -0.990234,-0.191406 -0.296443,-0.127667 -0.541429,-0.302518 -0.757812,-0.525391 -0.216382,-0.222874 -0.36774,-0.497215 -0.482422,-0.806641 -0.114684,-0.309427 -0.173828,-0.644291 -0.173828,-1.007812 -0.0016,-0.33096 0.05776,-0.660757 0.173828,-0.970703 0.121174,-0.302936 0.281187,-0.567719 0.482422,-0.794922 0.201236,-0.227201 0.451546,-0.405326 0.728515,-0.535156 0.282979,-0.135388 0.594507,-0.204653 0.908203,-0.203125 0.222873,0 0.423707,0.01943 0.605469,0.06055 0.176263,0.03032 0.347267,0.08008 0.511719,0.15039 0.155795,0.06059 0.304663,0.137212 0.445312,0.232422 0.140648,0.09521 0.277952,0.198028 0.41211,0.310547 l 0.787109,-0.93555 C 19.507693,15.500455 19.321907,15.366636 19.125,15.251953 18.928091,15.13727 18.733749,15.029491 18.519531,14.947266 c -0.228413,-0.08419 -0.46442,-0.144969 -0.705078,-0.181641 -0.248289,-0.04749 -0.527328,-0.07021 -0.835937,-0.07031 z m 15.916016,0.07031 -3.107422,7.115234 h 1.271485 l 0.726562,-1.705078 H 35.125 l 0.716797,1.705078 h 1.310547 L 34.044922,14.765625 H 32.894531 Z M 2.5585938,14.8125 v 0.0039 7.0625 h 2.6347656 c 0.516915,0.006 1.0294507,-0.08728 1.5117187,-0.273437 C 7.1472261,21.436738 7.5510243,21.18294 7.8945312,20.857416 8.2299242,20.541501 8.490114,20.16693 8.671875,19.736328 8.855889,19.291891 8.9499016,18.815002 8.9472656,18.333984 8.9504656,17.85571 8.856451,17.382642 8.671875,16.941406 8.490114,16.510805 8.2299242,16.138394 7.8945312,15.820312 7.5591383,15.50223 7.1681361,15.259254 6.7050781,15.083984 6.2228101,14.897826 5.7102734,14.806452 5.1933594,14.8125 Z m 7.9628902,0.0039 v 7.0625 h 1.240235 v -7.0625 z m 11.109375,0 v 7.0625 h 1.242188 v -7.0625 z m 2.623047,0 v 1.150391 h 2.242188 v 5.914062 h 1.25 v -5.914062 h 2.240234 V 14.8164 Z m 14.105469,0 v 7.0625 h 4.955078 V 20.75 h -3.714844 v -5.933594 z m 7.994141,1.027344 v 1.927734 h -1.9375 v 1.111328 h 1.9375 V 20.8125 h 1.15039 v -1.929688 h 1.9375 v -1.111328 h -1.9375 V 15.84375 Z M 3.8007812,15.945312 h 1.3925782 c 0.34521,-0.0052 0.6874796,0.05588 1.0097656,0.179688 0.302935,0.121173 0.557898,0.289688 0.765625,0.503906 0.207728,0.214219 0.3794586,0.471345 0.4941406,0.765625 0.123803,0.304237 0.1854777,0.630545 0.1816406,0.958985 0.0033,0.331195 -0.058369,0.65938 -0.1816406,0.966796 -0.114682,0.289954 -0.2777576,0.54143 -0.4941406,0.757813 -0.218822,0.215737 -0.479141,0.384953 -0.765625,0.496094 -0.302936,0.114683 -0.6397516,0.173828 -1.0097656,0.173828 H 3.8007812 Z m 29.6464848,0.302735 1.220703,2.826172 h -2.431641 z" fill="#6a7377" fill-rule="evenodd"/></svg>