<?xml version="1.0" encoding="UTF-8" standalone="no"?>
<svg
   viewBox="0 0 58.553082 21.299942"
   version="1.1"
   id="svg4"
   sodipodi:docname="dts.svg"
   width="58.553082"
   height="21.299942"
   inkscape:version="1.1.1 (3bf5ae0d25, 2021-09-20)"
   xmlns:inkscape="http://www.inkscape.org/namespaces/inkscape"
   xmlns:sodipodi="http://sodipodi.sourceforge.net/DTD/sodipodi-0.dtd"
   xmlns="http://www.w3.org/2000/svg"
   xmlns:svg="http://www.w3.org/2000/svg">
  <defs
     id="defs8" />
  <sodipodi:namedview
     id="namedview6"
     pagecolor="#505050"
     bordercolor="#ffffff"
     borderopacity="1"
     inkscape:pageshadow="0"
     inkscape:pageopacity="0"
     inkscape:pagecheckerboard="1"
     showgrid="false"
     inkscape:zoom="21.639626"
     inkscape:cx="25.832239"
     inkscape:cy="10.605544"
     inkscape:window-width="2560"
     inkscape:window-height="1369"
     inkscape:window-x="2552"
     inkscape:window-y="-8"
     inkscape:window-maximized="1"
     inkscape:current-layer="svg4" />
  <path
     d="M 0.83727656,7.1788108 C 2.8975141,4.9623469 8.9879078,3.6490673 16.040071,4.0689261 24.107707,4.5498112 30.613077,7.1666056 31.242865,10.064119 V 10.037268 8.1039648 C 31.069551,5.0209318 24.095502,2.6335949 15.556745,2.7556469 8.5167871,2.8557295 2.5850611,4.6352476 0.67372691,6.9859687 l 0.15866758,0.1830779 0.007323,0.00732 z M 2.7461697,8.6458755 C 5.6070679,7.2398368 10.51844,6.4855555 16.042512,6.8150959 24.110148,7.2959807 30.615518,9.9127748 31.242865,12.810289 v -0.02685 -1.933303 C 31.069551,7.7671013 24.095502,5.3797646 15.556745,5.5018166 9.9423539,5.5823709 5.0358647,6.7272185 2.3092236,8.3822433 l 0.4271819,0.2611912 0.00976,0.00488 z M 31.15987,15.932378 C 30.481261,18.82501 23.848957,21.178172 15.710531,21.295342 7.9211734,21.40763 1.5329728,19.452357 0.31977618,16.764773 c 0,0 -0.12693406,-0.285602 -0.17087277,-0.576085 0,0 -0.12205197,-0.488208 -0.12205197,-2.101735 l 0.002441,-0.102524 C 0.66640377,16.879502 7.1644511,19.503619 15.227205,19.982063 23.40957,20.46783 30.22251,18.524762 31.147664,15.927496 Z M 6.3833185,10.191053 C 9.0709031,9.6003218 12.422451,9.3513357 16.035189,9.5661472 24.102825,10.047032 30.608195,12.663826 31.235542,15.56134 l 0.0024,-0.02685 V 13.601186 C 31.062228,10.515712 24.09062,8.1308162 15.549422,8.2528682 11.604702,8.3090121 8.0090509,8.8924205 5.2726455,9.8078101 L 6.3711133,10.186171 Z M 0.10740574,5.3675594 C 0.78601473,2.4749273 7.4183193,0.12176531 15.556745,0.00459541 23.346102,-0.10769241 29.736744,1.8500213 30.947499,4.537606 a 2.5875019,2.5875019 0 0 0 0.170873,0.5760853 c 0,0 0.122052,0.4882079 0.122052,2.099294 l -0.0024,0.1000826 C 30.603313,4.417995 24.102825,1.7963184 16.040071,1.3154336 7.8577064,0.82722573 1.0472059,2.7727341 0.11961094,5.3700005 Z M 30.593548,14.313969 C 28.682214,16.66469 22.750489,18.441767 15.712972,18.544291 7.1742153,18.666343 0.20016524,16.281447 0.02685144,13.195973 c 0,0 -0.04393872,-0.724989 0,-1.935744 l 0.002441,-0.02685 c 0.62978821,2.899955 7.13271766,5.51675 15.20035356,5.997634 7.049722,0.419859 13.137674,-0.895861 15.202794,-3.109884 l 0.161108,0.185519 z M 28.955611,12.917695 C 26.22897,14.570278 21.322481,15.717567 15.70809,15.798121 7.1693332,15.920173 0.19528316,13.535278 0.01952832,10.449804 c 0,0 -0.04393872,-0.7249892 0,-1.9333036 V 8.489649 c 0.62734716,2.897514 7.13271758,5.516749 15.20035368,5.997634 5.521631,0.32954 10.435443,-0.424741 13.296342,-1.833221 l 0.427182,0.256309 z m -2.963422,-1.428009 c -2.736405,0.91539 -6.332056,1.498799 -10.276776,1.554943 C 7.1766563,13.166681 0.20260628,10.779344 0.02685144,7.6963112 c 0,0 -0.04393872,-0.7249888 0,-1.9333034 l 0.002441,-0.026851 c 0.6273472,2.8975135 7.13271766,5.5143082 15.20035356,5.9951922 3.610297,0.214812 6.964286,-0.03417 9.65187,-0.624906 l 1.091145,0.37592 z m 11.699902,1.015473 c 0.02197,1.08138 0.502855,1.645261 0.502855,1.645261 0.324658,0.44671 0.937359,0.495531 0.937359,0.495531 0.346627,0.0415 0.827512,-0.03417 0.827512,-0.03417 l 0.0049,-4.335286 c 0,0 -0.466238,-0.05614 -0.832394,-0.0122 0,0 -0.598055,0.02685 -0.966652,0.537028 0,0 -0.463797,0.600496 -0.476003,1.606204 v 0.0952 z m 6.278354,3.080592 -3.483363,0.03173 -2.824283,0.02685 c -1.987006,0 -3.649354,-1.366982 -3.693293,-3.21729 -0.0415,-1.738021 1.342572,-3.1611467 3.454071,-3.2758755 0,0 0.932477,-0.090318 2.543563,0.1318161 l -0.0049,-0.18796 0.0024,-3.4882455 4.003305,-0.012205 V 9.3513307 H 45.9281 V 8.1064058 l 3.888576,-1.730697 0.0024,2.9731859 1.401157,-0.00244 -0.01221,1.0374423 -1.393833,-0.01953 v 1.933304 l 0.02929,1.232725 c 0,0 0.05614,0.534587 0.480885,0.883656 0,0 0.246545,0.229458 0.786015,0.275837 a 5.0285415,5.0285415 0 0 0 0.5175,0.01709 h 0.922713 0.02929 c 0.690814,-0.0049 0.900743,-0.131817 0.900743,-0.131817 0.295366,-0.14158 0.473562,-0.427181 0.473562,-0.746958 0,-0.241663 -0.104965,-0.451592 -0.266073,-0.612701 l -0.0049,-0.0049 -1.01059,-0.978857 a 3.2221722,3.2221722 0 0 1 -0.546793,-0.654198 l -0.0073,-0.0122 a 1.3913925,1.3913925 0 0 1 -0.200165,-0.720107 c 0,-0.512618 0.28316,-0.9666516 0.695696,-1.2058735 l 0.02929,-0.017087 c 0.373479,-0.2367808 2.299459,-0.9324768 5.787704,-0.1196109 l -0.02929,0.8934204 -0.07079,-0.0049 c 0,0 -0.932477,-0.08788 -1.305956,-0.01465 l -0.0098,0.0024 c -0.288042,0.04882 -0.507736,0.270956 -0.507736,0.568763 0,0.146462 0.05859,0.300248 0.153786,0.397889 l 0.02197,0.02441 1.398716,1.384069 0.01221,0.0122 a 1.6110861,1.6110861 0 0 1 0.458915,1.12776 c 0,0.700579 -0.515059,1.33769 -1.135083,1.554943 0,0 -0.395448,0.158667 -1.047206,0.200165 l -1.186345,0.03906 h -0.04882 c -3.168469,0.03662 -6.463873,-0.02441 -6.463873,-0.02441 l -0.08055,-0.0024 c -2.111371,-0.06832 -2.533671,-1.669637 -2.533671,-1.669637 -0.11717,-0.297807 -0.131816,-1.035001 -0.131816,-1.035001 l 0.0049,-2.597266 -1.962596,0.0024 v 5.221384 z"
     id="path825"
     fill="#6a7377" />
</svg>
