<?xml version="1.0" encoding="UTF-8" standalone="no"?>
<svg
   height="21.145529"
   width="58.131207"
   viewBox="0 0 58.131207 21.145528"
   version="1.1"
   id="svg4"
   sodipodi:docname="dtsx.svg"
   inkscape:version="1.1.1 (3bf5ae0d25, 2021-09-20)"
   xmlns:inkscape="http://www.inkscape.org/namespaces/inkscape"
   xmlns:sodipodi="http://sodipodi.sourceforge.net/DTD/sodipodi-0.dtd"
   xmlns="http://www.w3.org/2000/svg"
   xmlns:svg="http://www.w3.org/2000/svg">
  <defs
     id="defs8">
    <clipPath
       id="clip1">
      <path
         d="m 667,47 h 87.39844 v 81 H 667 Z m 0,0"
         id="path2" />
    </clipPath>
    <clipPath
       id="clip-path">
      <rect
         class="cls-1"
         x="41.099998"
         y="82.769997"
         width="117.81"
         height="34.450001"
         id="rect4" />
    </clipPath>
    <clipPath
       id="clip-path-7">
      <rect
         class="cls-1"
         x="41.099998"
         y="82.769997"
         width="117.81"
         height="34.450001"
         id="rect4-5" />
    </clipPath>
  </defs>
  <sodipodi:namedview
     id="namedview6"
     pagecolor="#505050"
     bordercolor="#ffffff"
     borderopacity="1"
     inkscape:pageshadow="0"
     inkscape:pageopacity="0"
     inkscape:pagecheckerboard="1"
     showgrid="false"
     inkscape:zoom="16"
     inkscape:cx="18.75"
     inkscape:cy="3.21875"
     inkscape:window-width="2560"
     inkscape:window-height="1369"
     inkscape:window-x="2552"
     inkscape:window-y="-8"
     inkscape:window-maximized="1"
     inkscape:current-layer="svg4" />
  <path
     id="path979"
     d="M 15.443359 0.00390625 C 7.3639332 0.12022672 0.78111127 2.4564634 0.10742188 5.328125 L 0.11914062 5.3320312 C 1.040011 2.7535941 7.8007817 0.82197184 15.923828 1.3066406 C 23.92813 1.7840392 30.381626 4.3856807 31.011719 7.2597656 L 31.013672 7.1601562 C 31.013672 5.5607497 30.892578 5.0761719 30.892578 5.0761719 C 30.814014 4.8927704 30.756796 4.7004836 30.722656 4.5039062 C 29.520678 1.8358055 23.176247 -0.10756753 15.443359 0.00390625 z M 43.646484 2.484375 L 39.671875 2.4941406 L 39.669922 5.9570312 L 39.677734 6.1425781 C 38.080697 5.9244806 37.152344 6.0136719 37.152344 6.0136719 C 35.056152 6.127569 33.679506 7.5402047 33.720703 9.265625 C 33.766743 11.102519 35.418024 12.460938 37.390625 12.460938 L 40.193359 12.435547 L 43.652344 12.404297 L 43.652344 7.2207031 L 45.597656 7.21875 L 45.59375 9.796875 C 45.59375 9.796875 45.608288 10.532477 45.724609 10.828125 C 45.724609 10.828125 46.145995 12.416992 48.242188 12.482422 L 48.322266 12.484375 L 54.736328 12.509766 L 54.785156 12.509766 L 55.964844 12.470703 C 56.611876 12.429503 57.003906 12.271484 57.003906 12.271484 C 57.619435 12.055806 58.130859 11.422532 58.130859 10.724609 C 58.131271 10.306188 57.968258 9.9046903 57.675781 9.6054688 L 57.660156 9.59375 L 56.275391 8.21875 L 56.25 8.1953125 C 56.15791 8.0983785 56.097656 7.9461819 56.097656 7.8007812 C 56.097656 7.5051334 56.317562 7.2823716 56.603516 7.2363281 L 56.613281 7.2363281 C 56.984052 7.1660511 57.908203 7.2519531 57.908203 7.2519531 L 57.978516 7.2578125 L 58.007812 6.3691406 C 54.547265 5.5597417 52.632491 6.2488405 52.261719 6.4863281 L 52.232422 6.5039062 C 51.822877 6.7413938 51.544922 7.1942229 51.544922 7.703125 C 51.54472 7.9550839 51.613947 8.2022566 51.744141 8.4179688 L 51.75 8.4296875 C 51.81301 8.5363146 51.977934 8.7800538 52.292969 9.078125 L 53.296875 10.048828 L 53.300781 10.056641 C 53.458298 10.219005 53.566406 10.422198 53.566406 10.662109 C 53.566406 10.979567 53.388928 11.265696 53.095703 11.40625 C 53.095703 11.40625 52.884555 11.532733 52.201172 11.535156 L 52.171875 11.535156 L 51.255859 11.535156 C 50.921438 11.537556 50.742187 11.517578 50.742188 11.517578 C 50.206629 11.471538 49.962891 11.244141 49.962891 11.244141 C 49.541229 10.897603 49.484375 10.367187 49.484375 10.367188 C 49.450445 10.146664 49.453125 9.2370885 49.453125 9.1425781 L 49.453125 7.2246094 L 50.835938 7.2421875 L 50.849609 6.2128906 L 49.457031 6.2148438 L 49.453125 3.2636719 L 45.59375 4.9824219 L 45.59375 6.21875 L 43.646484 6.21875 L 43.646484 2.484375 z M 15.443359 2.7363281 C 8.4616255 2.835583 2.5775525 4.5976213 0.67382812 6.9277344 C 0.72608197 6.9922087 0.77998849 7.0572421 0.83789062 7.1210938 C 2.8884215 4.9242092 8.9289459 3.622614 15.923828 4.0390625 C 23.932977 4.5164611 30.390402 7.1137258 31.015625 9.9902344 L 31.015625 9.9648438 L 31.015625 8.0449219 C 30.843568 4.9842395 23.920213 2.615161 15.443359 2.7363281 z M 0.83789062 7.1210938 C 0.8366875 7.1223827 0.83518475 7.1237104 0.83398438 7.125 L 0.82617188 7.1171875 L 0.66796875 6.9355469 C 0.66992024 6.9331468 0.6718682 6.9301333 0.67382812 6.9277344 C 0.34808393 6.5258095 0.12012176 6.1148033 0.029296875 5.6953125 L 0.02734375 5.7207031 C -0.01627642 6.9202579 0.02734375 7.640625 0.02734375 7.640625 C 0.20182446 10.701308 7.1247084 13.070386 15.601562 12.949219 C 19.5114 12.893571 23.076075 12.316395 25.791016 11.410156 C 25.63955 11.353873 25.490643 11.296594 25.333984 11.242188 L 25.074219 11.154297 C 24.946282 11.111495 24.810808 11.070821 24.679688 11.029297 C 22.015089 11.612463 18.693961 11.859185 15.119141 11.646484 C 11.835559 11.450761 8.8224342 10.894903 6.3554688 10.113281 C 6.3497401 10.114536 6.3436132 10.11593 6.3378906 10.117188 L 6.3242188 10.113281 L 6.0214844 10.009766 C 5.8830894 9.9638317 5.7498396 9.9145657 5.6152344 9.8671875 L 5.234375 9.7363281 C 5.2381626 9.7350611 5.2423029 9.7336876 5.2460938 9.7324219 C 4.2997264 9.3806537 3.4555963 8.9946942 2.7363281 8.5800781 C 2.7332752 8.5815747 2.7296107 8.5824863 2.7265625 8.5839844 L 2.7265625 8.5859375 L 2.7167969 8.5800781 L 2.2929688 8.3222656 C 2.2949124 8.3210859 2.2968822 8.3195386 2.2988281 8.3183594 C 1.7017314 7.9373222 1.2140082 7.5358582 0.83789062 7.1210938 z M 2.2988281 8.3183594 C 2.4377269 8.4069976 2.5864742 8.4936961 2.7363281 8.5800781 C 5.5778012 7.1871185 10.447642 6.4388248 15.925781 6.765625 C 23.93493 7.2430236 30.392826 9.8402875 31.015625 12.716797 L 31.015625 12.691406 L 31.015625 10.771484 C 30.843568 7.7108048 23.920213 5.3417234 15.443359 5.4628906 C 9.8736722 5.5428035 5.0068635 6.6772396 2.2988281 8.3183594 z M 5.2460938 9.7324219 C 5.3682428 9.7778251 5.4896956 9.8230005 5.6152344 9.8671875 L 6.0214844 10.009766 C 6.1301404 10.045829 6.2445377 10.078134 6.3554688 10.113281 C 9.0206666 9.5295419 12.339113 9.2832969 15.917969 9.4960938 C 19.200079 9.6917292 22.21333 10.248231 24.679688 11.029297 C 24.686622 11.027779 24.694246 11.026913 24.701172 11.025391 L 25.074219 11.154297 C 25.161978 11.183657 25.247759 11.212242 25.333984 11.242188 L 25.785156 11.398438 L 25.804688 11.40625 C 25.800327 11.407709 25.79538 11.408699 25.791016 11.410156 C 26.738833 11.76236 27.582644 12.149228 28.302734 12.564453 C 28.304523 12.563574 28.306807 12.56338 28.308594 12.5625 L 28.734375 12.816406 L 28.746094 12.824219 C 28.744153 12.825395 28.742177 12.826949 28.740234 12.828125 C 29.338023 13.209814 29.827076 13.609894 30.203125 14.025391 C 30.205252 14.023121 30.208819 14.021802 30.210938 14.019531 L 30.371094 14.203125 L 30.371094 14.210938 C 30.369422 14.212994 30.366913 14.214741 30.365234 14.216797 C 30.69017 14.618162 30.919075 15.030348 31.009766 15.449219 L 31.011719 15.421875 L 31.011719 13.501953 C 30.837262 10.438847 23.916778 8.0721922 15.4375 8.1933594 C 11.526837 8.2490186 7.9612482 8.8258533 5.2460938 9.7324219 z M 30.365234 14.216797 C 30.313503 14.152898 30.260405 14.088679 30.203125 14.025391 C 28.146854 16.219249 22.110524 17.521853 15.119141 17.105469 C 7.1099914 16.628071 0.65451941 14.031276 0.029296875 11.152344 L 0.02734375 11.177734 C -0.01627642 12.379712 0.02734375 13.099609 0.02734375 13.099609 C 0.19940112 16.162715 7.1227549 18.531323 15.599609 18.410156 C 22.57995 18.308465 28.462402 16.547417 30.365234 14.216797 z M 28.740234 12.828125 C 28.601121 12.739301 28.452848 12.651013 28.302734 12.564453 C 25.461801 13.961026 20.587528 14.709758 15.109375 14.382812 C 7.1002254 13.905413 0.64233043 11.304243 0.01953125 8.4277344 L 0.01953125 8.4550781 C -0.02408893 9.6546329 0.01953125 10.375 0.01953125 10.375 C 0.19401195 13.438106 7.1168958 15.804761 15.59375 15.683594 C 21.163443 15.60368 26.032201 14.466833 28.740234 12.828125 z M 39.132812 7.1015625 C 39.31492 7.1001925 39.496628 7.1097792 39.677734 7.1289062 L 39.669922 11.435547 C 39.669922 11.435547 39.195678 11.50994 38.851562 11.46875 C 38.851562 11.46875 38.239803 11.420031 37.919922 10.976562 C 37.919922 10.976562 37.443685 10.417291 37.421875 9.34375 L 37.421875 9.25 C 37.433995 8.2515826 37.890625 7.6542969 37.890625 7.6542969 C 38.256549 7.1478182 38.853516 7.1210938 38.853516 7.1210938 C 38.946836 7.1103037 39.040824 7.1059788 39.134766 7.1054688 L 39.132812 7.1015625 z M 0.029296875 13.882812 L 0.02734375 13.984375 C 0.02734375 15.586205 0.1484375 16.072266 0.1484375 16.072266 C 0.19205768 16.360644 0.31835938 16.642578 0.31835938 16.642578 C 1.5227609 19.310678 7.8628146 21.252098 15.595703 21.140625 C 23.675129 21.024304 30.259905 18.688067 30.933594 15.816406 L 30.921875 15.8125 C 30.003428 18.390937 23.240234 20.320136 15.117188 19.837891 C 7.1128845 19.362916 0.66178944 16.756898 0.029296875 13.882812 z M 47.886719 14.041016 L 42.751953 19.173828 L 44.742188 19.173828 L 46.109375 17.804688 L 46.857422 18.552734 L 48.9375 18.552734 L 47.150391 16.765625 L 49.876953 14.041016 L 47.886719 14.041016 z M 42.96875 14.662109 L 44.75 16.445312 L 45.789062 15.40625 L 45.048828 14.662109 L 42.96875 14.662109 z "
     fill="#6a7377" />
</svg>
