<svg height="15" width="122.18555" viewBox="0 0 122.18555 15" xmlns="http://www.w3.org/2000/svg"><path d="M 2.7207078,0 C 1.216445,0.00165566 -0.00220594,1.2223004 4.6910477e-6,2.7265625 V 12.271484 C -0.00275908,13.776136 1.2160538,14.998345 2.7207078,15 H 119.46289 c 1.5056,-5.51e-4 2.72466,-1.222921 2.72266,-2.728516 V 2.7265625 C 122.18721,1.2213579 120.9681,5.5165881e-4 119.46289,0 Z m 2.3261719,3.1503906 h 6.0566413 6.05664 V 7.375 11.599609 H 11.103521 5.0468797 V 7.375 Z m 17.7753913,0 2.296875,6.5039063 h 0.04687 l 2.320312,-6.5019531 h 1.601563 L 25.742193,11.599609 H 24.458989 L 21.160161,3.1523438 Z m 9.34375,0 V 11.599609 H 30.681646 V 3.1523438 Z m 11.167968,0 V 11.599609 H 41.849614 V 3.1523438 Z m 6.230469,0 c 0.309922,0 0.606795,0.02488 0.892578,0.074219 0.285784,0.049339 0.559263,0.1242766 0.820313,0.2226562 0.261645,0.09838 0.506388,0.2173049 0.732422,0.3574219 0.226034,0.140117 0.434279,0.3005679 0.625,0.4824219 0.190721,0.1818539 0.359259,0.3829059 0.507812,0.6035156 0.148554,0.2206097 0.276128,0.4613376 0.382813,0.7207031 0.106088,0.2587692 0.186892,0.5338487 0.240234,0.8242188 0.05334,0.2903701 0.08008,0.5952371 0.08008,0.9160156 0,0.3148167 -0.02674,0.6154019 -0.08008,0.9023437 -0.05334,0.2869419 -0.134146,0.560947 -0.240234,0.8203126 -0.104839,0.2534614 -0.228949,0.4881645 -0.373047,0.7070312 -0.0034,0.0051 -0.0064,0.010545 -0.0098,0.015625 -3.12e-4,4.707e-4 3.12e-4,0.00148 0,0.00195 -0.0041,0.0062 -0.0095,0.011411 -0.01367,0.017578 -0.145196,0.2154688 -0.30909,0.4160028 -0.49414,0.5976558 -0.183767,0.180394 -0.384863,0.338538 -0.601563,0.480469 -0.01767,0.01155 -0.03485,0.02387 -0.05273,0.03516 -0.218119,0.137998 -0.453012,0.258021 -0.703125,0.357421 -0.273132,0.106204 -0.554809,0.185972 -0.841797,0.238282 -0.286988,0.05231 -0.578072,0.07723 -0.871094,0.07422 -0.306941,0 -0.601664,-0.0261 -0.884765,-0.07813 -0.283102,-0.05202 -0.555193,-0.130032 -0.814454,-0.234375 -0.251362,-0.09865 -0.491544,-0.222707 -0.716796,-0.36914 -0.225253,-0.146433 -0.434743,-0.314196 -0.626954,-0.503907 -0.19126,-0.191014 -0.363352,-0.400663 -0.511718,-0.6249995 -0.148366,-0.2243366 -0.274065,-0.4640438 -0.375,-0.7148437 -0.10796,-0.2704381 -0.188661,-0.5511196 -0.242188,-0.8359376 -6.11e-4,-0.00328 -0.0013,-0.00649 -0.002,-0.00977 -2.36e-4,-0.00127 2.35e-4,-0.00264 0,-0.00391 -0.05302,-0.2869602 -0.07794,-0.5778889 -0.07422,-0.8710938 0,-0.3205902 0.02719,-0.6246555 0.08008,-0.9140625 2.23e-4,-0.00123 -2.23e-4,-0.00268 0,-0.00391 1.16e-4,-6.318e-4 -1.16e-4,-0.00132 0,-0.00195 4.98e-4,-0.00273 0.0015,-0.00509 0.002,-0.00781 0.05333,-0.2868604 0.131447,-0.5599927 0.236328,-0.8164062 0.106088,-0.2587693 0.233199,-0.4982893 0.380859,-0.71875 0.14766,-0.2204607 0.316927,-0.4216617 0.505859,-0.6035156 0.188337,-0.181854 0.393091,-0.3423049 0.617188,-0.4824219 4.77e-4,-2.983e-4 0.0015,2.981e-4 0.002,0 0.223696,-0.13973 0.465305,-0.2592513 0.724609,-0.3574219 0.259261,-0.09838 0.531352,-0.1716622 0.814454,-0.2207031 0.283101,-0.049041 0.577824,-0.074219 0.884765,-0.074219 z m 8.326172,0 3.873047,6.3261719 h 0.02344 V 3.1523438 h 1.484375 V 11.599609 H 61.388677 L 57.431646,5.0742188 h -0.02344 V 11.599609 H 55.92188 V 3.1523438 Z m 21.021484,0.00195 3.609375,8.4453124 H 80.818364 L 80.035161,9.6679688 h -3.630859 l -0.757813,1.9296872 h -1.669922 l 3.646485,-8.4433591 z m 10.042969,0 v 1.3125 H 86.388677 V 11.597656 H 84.896489 V 4.4648438 H 82.32813 V 3.1542969 Z m 4.19336,0 2.175781,6.0019531 h 0.03711 l 2.152344,-6 h 2.34375 V 11.597656 H 98.378911 V 4.8125 h -0.02539 l -2.542969,6.785156 H 94.767583 L 92.259771,4.8125 h -0.02344 v 6.785156 h -1.41992 V 3.1542969 Z m 12.757807,0 c 0.3114,0 0.60934,0.024897 0.89648,0.074219 0.28715,0.049322 0.56193,0.122358 0.82422,0.2207031 0.25724,0.096229 0.49773,0.215388 0.72071,0.3515625 0.007,0.00423 0.0146,0.00745 0.0215,0.011719 0.22478,0.1391896 0.43117,0.2983424 0.62109,0.4785156 0.19163,0.1817893 0.36246,0.3829843 0.51172,0.6035156 0.14926,0.2205313 0.27758,0.4594767 0.38477,0.71875 0.10537,0.2557203 0.1847,0.5280052 0.23828,0.8144531 5.1e-4,0.00272 10e-4,0.00509 0.002,0.00781 3.5e-4,0.00188 -3.4e-4,0.00398 0,0.00586 0.0531,0.2890074 0.0801,0.5922266 0.0801,0.9121094 0,0.3147047 -0.0265,0.615504 -0.0801,0.9023437 -0.0536,0.28684 -0.13364,0.5610395 -0.24023,0.8203126 -0.10719,0.2586774 -0.23551,0.4994429 -0.38477,0.7226562 -0.14926,0.2232126 -0.32009,0.4280816 -0.51172,0.6152336 -0.19162,0.187154 -0.39984,0.354271 -0.62695,0.5 0,0 -0.002,0 -0.002,0 -0.22671,0.145342 -0.47203,0.269553 -0.73438,0.373047 -0.27442,0.106193 -0.55735,0.18599 -0.8457,0.238282 -0.28835,0.05229 -0.58058,0.07726 -0.875,0.07422 -0.30713,0 -0.60465,-0.02635 -0.88867,-0.07813 0,0 -0.002,0 -0.002,0 -0.28458,-0.052 -0.55591,-0.130069 -0.8164,-0.234375 -0.50511,-0.197227 -0.96531,-0.493758 -1.35156,-0.873047 -0.19213,-0.190977 -0.36461,-0.400745 -0.51368,-0.6249992 -0.14906,-0.2242547 -0.27549,-0.4622032 -0.37695,-0.7128906 -0.10371,-0.2583907 -0.17867,-0.5271323 -0.23242,-0.7988282 -0.006,-0.028832 -0.0125,-0.056999 -0.0176,-0.085937 -0.0489,-0.2755867 -0.0739,-0.5547587 -0.0703,-0.8359375 0,-0.3218564 0.0265,-0.6275529 0.0801,-0.9179687 0.0536,-0.2904159 0.13364,-0.5649455 0.24023,-0.8242188 0.10659,-0.2586773 0.23445,-0.4982187 0.38281,-0.71875 0.14836,-0.2205313 0.31799,-0.4230834 0.50782,-0.6054687 0.18923,-0.1811933 0.39593,-0.3425037 0.62109,-0.4824219 0.22516,-0.1399182 0.46938,-0.2590769 0.73047,-0.3574219 0.26109,-0.098345 0.53212,-0.1716796 0.8164,-0.2207031 0,0 0.002,0 0.002,0 0.28372,-0.048807 0.58095,-0.072266 0.88867,-0.072266 z m -68.613276,0.00195 c 0.200853,0 0.40344,0.01696 0.607422,0.052734 0.203982,0.035775 0.409017,0.088607 0.615234,0.1601563 0.331377,0.1156711 0.626431,0.2780751 0.888672,0.484375 l 0.189453,0.162116 -0.916016,1.0195312 C 38.593297,4.9273845 38.496921,4.8325787 38.39063,4.75 38.284339,4.6674213 38.168134,4.5970696 38.044927,4.5410156 37.841912,4.4394028 37.624349,4.3767432 37.402349,4.3535156 37.180348,4.330288 36.95391,4.3464923 36.73438,4.4042969 c -0.158975,0.039376 -0.309465,0.1048175 -0.447266,0.1933593 -0.133801,0.08661 -0.24736,0.2016159 -0.330078,0.3378907 -0.08937,0.1527299 -0.134144,0.3289673 -0.128906,0.5058593 0,0.090629 0.01036,0.1749863 0.0293,0.2519532 0.01862,0.076215 0.04685,0.1472563 0.08398,0.2109375 0.0739,0.1287884 0.174759,0.2386886 0.304688,0.328125 0.131121,0.090628 0.289417,0.1703096 0.476562,0.2382812 0.185953,0.067971 0.390377,0.1351534 0.613282,0.203125 0.253897,0.083474 0.517285,0.1782645 0.789062,0.2832031 0.271777,0.1061313 0.521566,0.243866 0.748047,0.4179688 0.11324,0.087052 0.217272,0.1855112 0.310547,0.2949219 0.09327,0.1094106 0.175334,0.2301547 0.248047,0.3613281 0.07271,0.1323658 0.127706,0.2811967 0.164062,0.4453125 0.03636,0.1641158 0.05469,0.3448519 0.05469,0.5410156 0,0.2138298 -0.01992,0.4128477 -0.05859,0.5996094 -2.56e-4,0.00123 2.57e-4,0.00267 0,0.00391 -1.25e-4,6.005e-4 1.25e-4,0.00135 0,0.00195 -5.62e-4,0.00268 -0.0014,0.00513 -0.002,0.00781 -0.03917,0.1840258 -0.09713,0.3561136 -0.173828,0.5136715 -0.07526,0.155182 -0.164043,0.294706 -0.263672,0.423828 -0.0037,0.0048 -0.006,0.01083 -0.0098,0.01563 -3.34e-4,4.26e-4 3.35e-4,0.0015 0,0.002 -0.0051,0.0065 -0.0124,0.01113 -0.01758,0.01758 -0.100179,0.124715 -0.212186,0.239219 -0.335938,0.339843 -0.126885,0.101183 -0.263788,0.187579 -0.40625,0.263672 -0.02089,0.01118 -0.04132,0.02258 -0.0625,0.0332 -0.143599,0.07184 -0.292329,0.132794 -0.447265,0.177735 -0.179471,0.05347 -0.363655,0.09274 -0.548828,0.11914 -0.184236,0.02632 -0.371987,0.03994 -0.558594,0.03906 -0.256877,0 -0.510355,-0.02427 -0.761719,-0.07227 -0.251364,-0.048 -0.50054,-0.120206 -0.746094,-0.216797 -0.195645,-0.07422 -0.381833,-0.168328 -0.55664,-0.28125 -0.174808,-0.112921 -0.338199,-0.244734 -0.486328,-0.392578 l -0.164063,-0.18164 1.00586,-0.949219 c 0.193105,0.2718866 0.453118,0.4851702 0.777343,0.642578 0.161517,0.0799 0.32307,0.139603 0.482422,0.179688 0.159352,0.04008 0.316504,0.06055 0.472656,0.06055 0.163304,0 0.332258,-0.02077 0.503907,-0.0625 0.171649,-0.04174 0.324618,-0.11196 0.46289,-0.210937 0.136717,-0.096949 0.251943,-0.2221193 0.335938,-0.3671875 0.09082,-0.1681761 0.133469,-0.3577909 0.126953,-0.5488282 0.007,-0.1864988 -0.04283,-0.3689306 -0.144531,-0.5253906 C 37.970162,8.503966 37.837425,8.3798084 37.683599,8.2871094 37.519102,8.1857482 37.325665,8.096611 37.101567,8.0214844 L 36.398443,7.7832031 C 36.160042,7.709269 35.922001,7.6178499 35.683599,7.5117188 35.445198,7.4055875 35.229788,7.2666603 35.039067,7.09375 34.844228,6.9128703 34.686656,6.6949837 34.576177,6.453125 34.516577,6.3267216 34.473165,6.1847518 34.443364,6.0273438 c -0.0298,-0.1574081 -0.04492,-0.3311186 -0.04492,-0.5195313 0,-0.2039149 0.02078,-0.392915 0.0625,-0.5683594 0.04172,-0.1754443 0.104058,-0.3371031 0.1875,-0.484375 0.08404,-0.1472718 0.180904,-0.2807102 0.291015,-0.4023437 0.110112,-0.1216335 0.233252,-0.2301769 0.369141,-0.3261719 0.135888,-0.096591 0.281033,-0.1822081 0.435547,-0.2539063 0.154513,-0.071698 0.31875,-0.1306312 0.492187,-0.1777343 0.345682,-0.095398 0.699039,-0.140625 1.056641,-0.140625 z m 77.425776,0.011719 c 0.20117,0 0.40508,0.019149 0.60937,0.054687 0,0 0.002,0 0.002,0 0.20495,0.035762 0.40999,0.088633 0.61719,0.1601563 0.19775,0.068068 0.38162,0.1552729 0.55468,0.2558594 0.0169,0.00984 0.0341,0.019147 0.0508,0.029297 0.17131,0.1041628 0.33151,0.2221708 0.47852,0.359375 l -0.91992,1.0195313 c -0.0848,-0.1056309 -0.18253,-0.2005105 -0.28906,-0.2832031 -0.10654,-0.082693 -0.22193,-0.1531984 -0.34571,-0.2089844 -0.20284,-0.1010754 -0.42069,-0.1624421 -0.64258,-0.1855469 -0.002,-2.15e-4 -0.004,-0.00174 -0.006,-0.00195 -0.22274,-0.022448 -0.44979,-0.00503 -0.66992,0.052734 -0.15927,0.039052 -0.31109,0.1033725 -0.44922,0.1914062 -0.13506,0.08671 -0.24879,0.2030033 -0.33203,0.3398438 -0.0891,0.1524764 -0.13424,0.3256473 -0.1289,0.5019531 -0.005,0.1620977 0.033,0.3225927 0.11133,0.4648437 0.0754,0.1275505 0.17804,0.2375284 0.30859,0.328125 0.13175,0.090597 0.28972,0.1691417 0.47656,0.2382813 0.18803,0.066755 0.39518,0.1351775 0.61914,0.203125 0.25391,0.083444 0.51915,0.1783017 0.79102,0.2832031 0.13773,0.053047 0.26712,0.1137091 0.39258,0.1835938 0,0 0.002,0 0.002,0 0.12494,0.069684 0.24483,0.1496371 0.35937,0.2363281 0.11378,0.086424 0.21713,0.1835968 0.31055,0.2929687 0.0934,0.1093719 0.17694,0.2296053 0.25,0.3613282 0.0731,0.1323188 0.12753,0.281255 0.16406,0.4453124 0.0365,0.1640576 0.0547,0.3429685 0.0547,0.5390626 0,0.2145709 -0.0192,0.4177192 -0.0586,0.6054687 -0.0394,0.1877495 -0.0993,0.3617482 -0.17774,0.5214841 -0.0738,0.154636 -0.16409,0.29966 -0.26953,0.433594 -0.10544,0.133934 -0.22617,0.256927 -0.35937,0.365234 -0.12294,0.09845 -0.25481,0.182202 -0.39649,0.257813 -0.0207,0.01105 -0.0414,0.02264 -0.0625,0.0332 -0.14402,0.07202 -0.2972,0.134259 -0.46094,0.183593 -0.3607,0.106499 -0.73509,0.16037 -1.11132,0.158204 -0.25746,0 -0.51369,-0.02453 -0.76563,-0.07227 0,0 -0.002,0 -0.002,0 -0.25256,-0.04798 -0.50133,-0.120237 -0.74805,-0.216797 -0.24732,-0.09596 -0.47172,-0.21497 -0.67383,-0.357422 -0.2021,-0.142451 -0.38157,-0.309105 -0.53906,-0.498047 l 1.00977,-0.9492181 c 0.097,0.135895 0.21131,0.2578934 0.34179,0.3652344 0.13049,0.1073409 0.27717,0.2000237 0.43946,0.2792967 0.32577,0.158543 0.64519,0.238281 0.95898,0.238281 0.16408,0 0.33339,-0.02078 0.50586,-0.0625 0.17126,-0.04053 0.32787,-0.111236 0.4668,-0.208984 0.13712,-0.09733 0.25013,-0.2237686 0.33398,-0.3691406 0.0917,-0.168022 0.13697,-0.355803 0.13086,-0.546875 0.007,-0.186442 -0.0442,-0.3709716 -0.14648,-0.5273438 -0.10468,-0.1459738 -0.2381,-0.2690641 -0.39258,-0.3613281 -0.16527,-0.102517 -0.35883,-0.1905252 -0.58399,-0.265625 l -0.70703,-0.2382812 c -0.23952,-0.0751 -0.4792,-0.165391 -0.71875,-0.2714844 -0.12024,-0.052662 -0.23362,-0.1136589 -0.34179,-0.1835937 -0.10773,-0.069773 -0.20888,-0.1479506 -0.30469,-0.234375 -0.19561,-0.1809406 -0.35368,-0.3989466 -0.46485,-0.640625 -0.0599,-0.1263586 -0.10482,-0.2682802 -0.13476,-0.4257813 -0.0299,-0.1575011 -0.0449,-0.3305895 -0.0449,-0.5195313 0,-0.2038425 0.0206,-0.3929773 0.0625,-0.5683593 0.0419,-0.175382 0.1056,-0.3371555 0.18945,-0.484375 0.0844,-0.1466236 0.18233,-0.2807535 0.29297,-0.4023438 0.11063,-0.1215902 0.23456,-0.229615 0.37109,-0.3261719 0.13653,-0.095961 0.28225,-0.1804294 0.4375,-0.2519531 0.15525,-0.071524 0.31988,-0.130648 0.49414,-0.1777343 0.34733,-0.095365 0.70125,-0.1425782 1.06055,-0.1425782 z M 6.4882859,4.2519531 v 3.1171875 3.1152344 h 0.8125 c 1.0362664,0 1.4806207,-0.124393 2.03125,-0.5703125 C 10.000013,9.37246 10.390682,8.5603468 10.462896,7.6035156 10.554968,6.2874214 9.8866831,5.0170986 8.8125047,4.4863281 8.4387989,4.3094046 8.3669281,4.2972028 7.4570359,4.2773438 Z m 9.2324221,0.013672 -0.865234,0.00586 c -0.969468,0 -1.255632,0.065368 -1.753907,0.3867187 -1.054318,0.6733925 -1.591472,2.1748471 -1.277343,3.5234375 0.254553,1.0741785 0.994077,1.9248067 1.923828,2.1992187 0.243721,0.07221 0.615386,0.105469 1.166015,0.105469 h 0.806641 V 7.375 Z m 33.853516,0.2597656 c -0.197873,0 -0.385787,0.018674 -0.564453,0.054687 -0.178666,0.036014 -0.348084,0.089368 -0.507813,0.1621094 -0.159729,0.073338 -0.307947,0.1596084 -0.445312,0.2597656 -0.137366,0.1001572 -0.263878,0.214201 -0.378907,0.3417969 -0.116836,0.1306766 -0.221233,0.2716854 -0.310546,0.421875 -0.08931,0.1501896 -0.163546,0.3095599 -0.222657,0.4746094 -0.06408,0.177959 -0.112833,0.3612762 -0.144531,0.546875 -1.06e-4,6.197e-4 1.05e-4,0.00133 0,0.00195 -0.03169,0.1862372 -0.04654,0.3746739 -0.04492,0.5644531 0,0.207493 0.0153,0.4074518 0.04687,0.5976563 0.03157,0.1902045 0.0794,0.3706547 0.142578,0.5429687 0.06258,0.1729104 0.138599,0.3339156 0.228516,0.484375 0.08992,0.1504594 0.19373,0.2903729 0.310547,0.4179688 0.116816,0.1275959 0.244917,0.2407042 0.382812,0.3398437 0.137895,0.09914 0.285584,0.1843103 0.445313,0.2558594 0.159728,0.071549 0.328592,0.124821 0.505859,0.160156 0.177268,0.03533 0.36294,0.05273 0.556641,0.05273 0.194297,0 0.380946,-0.01872 0.558593,-0.05469 0.177648,-0.03597 0.346296,-0.0892 0.507813,-0.1601561 0.161517,-0.070951 0.311771,-0.1551055 0.451172,-0.2539063 3.97e-4,-2.817e-4 0.0016,2.82e-4 0.002,0 0.13894,-0.0986 0.26633,-0.2126117 0.382812,-0.3398437 0.116817,-0.1275959 0.220292,-0.2675094 0.310547,-0.4179688 0.09026,-0.1504594 0.167293,-0.3114646 0.230469,-0.484375 0.06258,-0.1729103 0.109395,-0.3548664 0.140625,-0.5449218 0.03123,-0.1900555 0.04687,-0.3882102 0.04687,-0.5957032 0.0018,-0.1897411 -0.01361,-0.3782171 -0.04492,-0.5644531 -1.04e-4,-6.209e-4 1.05e-4,-0.00133 0,-0.00195 C 52.128892,6.6015054 52.081482,6.4182277 52.017624,6.240227 51.958134,6.075407 51.882715,5.917364 51.793015,5.7675707 51.703274,5.6177849 51.59929,5.4762415 51.482427,5.3457031 51.366514,5.2173923 51.238659,5.1012468 51.099614,5 50.960569,4.8987532 50.810335,4.8124052 50.652349,4.7421875 50.482593,4.6677723 50.305767,4.612394 50.125005,4.5761719 49.944243,4.5399498 49.759544,4.522884 49.574224,4.5253907 Z m 56.341796,0 c -0.16932,-0.00376 -0.33619,0.011449 -0.5,0.041016 -0.0229,0.00414 -0.0456,0.0089 -0.0684,0.013672 -0.15146,0.031732 -0.29914,0.077974 -0.44141,0.1367188 -0.0202,0.00836 -0.0405,0.016505 -0.0606,0.025391 -0.15214,0.067582 -0.29929,0.1490925 -0.43554,0.2460937 -0.14484,0.1031079 -0.27899,0.2214513 -0.40039,0.3554688 -0.11739,0.1306302 -0.22096,0.271659 -0.31055,0.421875 -0.0896,0.150216 -0.16522,0.3096192 -0.22461,0.4746094 -0.1293,0.3569531 -0.19476,0.7338506 -0.19141,1.1132812 0,0.2074187 0.0168,0.4056137 0.0488,0.5957032 0.032,0.1900893 0.0791,0.3720728 0.14258,0.5449218 0.12576,0.345698 0.30628,0.6452896 0.54101,0.9003906 0.11738,0.1275505 0.24574,0.2421513 0.38477,0.3417969 0.13903,0.099646 0.28873,0.1843359 0.44922,0.2558594 0.16048,0.071524 0.32999,0.1233495 0.50781,0.1582035 0.17783,0.03485 0.36398,0.05273 0.5586,0.05273 0.19522,0 0.382,-0.01724 0.56054,-0.05273 0.17854,-0.03549 0.34884,-0.08923 0.51172,-0.1601566 0.16169,-0.070927 0.31278,-0.156553 0.45313,-0.2558594 0.14034,-0.099306 0.26994,-0.2122931 0.38671,-0.3398438 0.11078,-0.1203684 0.20806,-0.252229 0.29493,-0.3925781 0.0107,-0.017331 0.0209,-0.035097 0.0312,-0.052734 0.0835,-0.1422411 0.15714,-0.2926467 0.21679,-0.4550782 0.0629,-0.172849 0.10947,-0.3548325 0.14063,-0.5449218 0.0311,-0.1900894 0.0469,-0.3882845 0.0469,-0.5957032 0.002,-0.1896736 -0.0138,-0.3781845 -0.0449,-0.5644531 -0.0312,-0.1862686 -0.0782,-0.3702949 -0.14258,-0.5488281 -0.056,-0.1546136 -0.12819,-0.3018054 -0.21093,-0.4433594 -0.0103,-0.017647 -0.0206,-0.035323 -0.0312,-0.052734 -0.0865,-0.1405506 -0.184,-0.2752688 -0.29493,-0.3984375 -0.11627,-0.1282109 -0.24497,-0.2429744 -0.38476,-0.34375 C 107.30943,4.9011776 107.15853,4.81439 107,4.7441406 106.82925,4.6696863 106.65241,4.612889 106.4707,4.5761719 106.289,4.5394548 106.10242,4.5228178 105.91602,4.5253907 Z M 78.226567,4.9433594 76.912114,8.3789062 h 2.603516 z m -9.351562,1.7167968 a 0.83968925,0.83968925 0 0 1 0.242188,0.037109 0.83968925,0.83968925 0 0 1 0.01758,0.00391 0.83968925,0.83968925 0 0 1 0.0059,0.00195 0.83968925,0.83968925 0 0 1 0.220703,0.1132812 0.83968925,0.83968925 0 0 1 0.01367,0.00977 A 0.83968925,0.83968925 0 0 1 69.548833,7 a 0.83968925,0.83968925 0 0 1 0.0098,0.013672 0.83968925,0.83968925 0 0 1 0.109375,0.2167969 0.83968925,0.83968925 0 0 1 0.0078,0.017578 0.83968925,0.83968925 0 0 1 0.03906,0.2519531 0.83968925,0.83968925 0 0 1 -0.03906,0.2460938 0.83968925,0.83968925 0 0 1 -0.01172,0.03125 0.83968925,0.83968925 0 0 1 -0.09961,0.1972656 0.83968925,0.83968925 0 0 1 -0.02539,0.035156 0.83968925,0.83968925 0 0 1 -0.154296,0.1542969 0.83968925,0.83968925 0 0 1 -0.03125,0.023437 0.83968925,0.83968925 0 0 1 -0.208985,0.1054688 0.83968925,0.83968925 0 0 1 -0.0098,0.00586 0.83968925,0.83968925 0 0 1 -0.0059,0 0.83968925,0.83968925 0 0 1 -0.253852,0.041016 0.83968925,0.83968925 0 0 1 -0.589844,-0.2441407 0.83968925,0.83968925 0 0 1 -0.0059,-0.00586 A 0.83968925,0.83968925 0 0 1 68.035161,7.5 a 0.83968925,0.83968925 0 0 1 0.244141,-0.5898438 0.83968925,0.83968925 0 0 1 0.0059,-0.00586 0.83968925,0.83968925 0 0 1 0.589844,-0.2441407 z" fill="#6a7377"/></svg>