<svg height="15" width="127.75391" viewBox="0 0 127.75391 15" xmlns="http://www.w3.org/2000/svg"><path d="M 2.7207078,0 C 1.216445,0.00165566 -0.00220594,1.2223004 4.6910477e-6,2.7265625 V 12.271484 C -0.00275908,13.776136 1.2160538,14.998345 2.7207078,15 H 125.03125 c 1.5056,-5.51e-4 2.72466,-1.222921 2.72266,-2.728516 V 2.7265625 C 127.75557,1.2213579 126.53646,5.5165881e-4 125.03125,0 Z M 91.767583,3.0019531 h 0.0039 c 0.369517,1.197e-4 0.702708,0.027122 1,0.083984 0.288156,0.04391 0.570257,0.1179439 0.84375,0.21875 0.256497,0.098453 0.488838,0.2259639 0.72461,0.3632813 0.235769,0.1373172 0.462054,0.297832 0.679687,0.484375 L 94.074224,5.2734375 C 93.913588,5.1387113 93.74849,5.0143916 93.580083,4.9003906 93.411675,4.7863896 93.235376,4.6955949 93.048833,4.6230469 92.851924,4.5388604 92.646603,4.4796634 92.435552,4.4433594 c -0.217635,-0.049235 -0.459703,-0.072266 -0.726563,-0.072266 -0.375608,-0.00183 -0.745156,0.080079 -1.083984,0.2421874 -0.331633,0.1554539 -0.634048,0.3685828 -0.875,0.640625 -0.240952,0.2720447 -0.433036,0.5904005 -0.578125,0.953125 -0.138977,0.371118 -0.206978,0.7658299 -0.205078,1.1621094 0,0.4352668 0.06776,0.8365347 0.205078,1.2070313 0.137316,0.3704954 0.319037,0.6979825 0.578125,0.9648437 0.259089,0.26686 0.553253,0.4760424 0.908203,0.6289064 0.354953,0.152872 0.750281,0.228516 1.185547,0.228516 0.401588,-1e-6 0.772639,-0.0462 1.125,-0.167969 0.35236,-0.121773 0.659518,-0.2783399 0.916016,-0.4726565 V 8.1757812 H 91.720708 V 6.8828125 h 3.599609 v 3.5468755 c -0.220691,0.18584 -0.454154,0.355549 -0.699218,0.507812 -0.251316,0.160635 -0.52236,0.302055 -0.820313,0.423828 -0.303871,0.125544 -0.62019,0.216844 -0.943359,0.277344 -0.339405,0.07255 -0.695909,0.109375 -1.066406,0.109375 -0.660674,0 -1.261879,-0.104672 -1.800782,-0.330078 C 89.451334,11.192561 88.981791,10.895767 88.603521,10.501953 88.225253,10.108138 87.932524,9.6444138 87.722661,9.1132812 87.508774,8.5624676 87.401255,7.9756286 87.406255,7.3847656 87.403896,6.8059217 87.511466,6.232306 87.722661,5.6933594 87.931375,5.1756948 88.238882,4.7039556 88.628911,4.3046875 89.017543,3.9031013 89.466324,3.5847431 90.007817,3.3515625 90.54864,3.1186681 91.131151,3.0022441 91.767583,3.0019531 Z m 19.058587,0.083984 h 0.002 1.37696 l 3.7207,8.5195319 h -1.56836 L 113.49805,9.5644531 H 109.5 l -0.87305,2.0410159 h -1.52148 z m -36.318353,0.056641 h 3.152344 c 0.618934,-0.00724 1.231144,0.10132 1.808594,0.3242188 0.554449,0.2098619 1.026147,0.5019527 1.427734,0.8828125 0.401587,0.3808586 0.710101,0.826218 0.927735,1.3417968 0.220999,0.5283199 0.33391,1.0953009 0.330078,1.6679688 0.0032,0.5759534 -0.109746,1.1475346 -0.330078,1.6796875 -0.217634,0.5155872 -0.526148,0.9635235 -0.927735,1.3417965 -0.411303,0.38977 -0.898322,0.692507 -1.427734,0.894532 -0.57745,0.222898 -1.189658,0.335325 -1.808594,0.328125 H 74.507817 V 3.1464844 Z m 9.533204,0.00391 h 1.482422 V 11.60352 h -1.482422 z m 13.300781,0 H 98.82813 V 11.60352 h -1.486328 z m 3.140618,0 h 6.86328 v 1.3789062 h -2.68164 v 7.0800787 h -1.49804 V 4.5253906 h -2.6836 z m 16.88867,0 h 1.48438 v 7.1054689 h 4.44922 v 1.351563 h -5.9336 z m -112.3242103,0.0039 h 6.0566413 6.05664 V 7.375 11.599609 H 11.103521 5.0468797 V 7.375 Z m 17.7753913,0 2.296875,6.5039063 h 0.04687 l 2.320312,-6.5019531 h 1.601563 L 25.742193,11.599609 H 24.458989 L 21.160161,3.1523438 Z m 9.34375,0 V 11.599609 H 30.681646 V 3.1523438 Z m 11.167968,0 V 11.599609 H 41.849614 V 3.1523438 Z m 6.230469,0 c 0.619843,0 1.190792,0.1001157 1.712891,0.296875 0.52329,0.19676 0.97598,0.4761358 1.357422,0.8398438 0.381442,0.3637079 0.677256,0.8054876 0.890625,1.3242187 0.212177,0.5175384 0.320312,1.0986775 0.320312,1.7402344 0,0.6296333 -0.108135,1.203925 -0.320312,1.7226563 -0.214561,0.5187308 -0.509183,0.9654042 -0.890625,1.3398432 -0.381442,0.37444 -0.835324,0.665555 -1.357422,0.873047 -0.546264,0.212407 -1.126848,0.318518 -1.712891,0.3125 -0.613883,0 -1.180697,-0.103814 -1.699219,-0.3125 -0.502724,-0.197296 -0.959328,-0.493624 -1.34375,-0.873047 -0.382521,-0.382028 -0.684848,-0.8382436 -0.886718,-1.3398432 -0.21838,-0.5470419 -0.325834,-1.1316991 -0.31836,-1.7207032 0,-0.6439419 0.106183,-1.2254097 0.31836,-1.7441406 0.212177,-0.5175386 0.508853,-0.9585577 0.886718,-1.3222656 0.376674,-0.363708 0.824035,-0.6430838 1.34375,-0.8398438 0.518522,-0.19676 1.085336,-0.2949219 1.699219,-0.2949218 z m 8.326172,0 3.873047,6.3261719 h 0.02344 V 3.1523438 h 1.484375 V 11.599609 H 61.388677 L 57.431646,5.0742188 h -0.02344 V 11.599609 H 55.92188 V 3.1523438 Z m -20.597656,0.00391 c 0.401706,0 0.810222,0.069792 1.222656,0.2128906 0.331377,0.1156711 0.626431,0.2780751 0.888672,0.484375 l 0.189453,0.1621057 -0.916016,1.0195312 C 38.508855,4.8215659 38.291342,4.6531236 38.044927,4.5410156 37.638897,4.33779 37.173439,4.2886878 36.73438,4.4042969 c -0.158975,0.039376 -0.309465,0.1048175 -0.447266,0.1933593 -0.133801,0.08661 -0.24736,0.2016159 -0.330078,0.3378907 -0.08937,0.1527299 -0.134144,0.3289674 -0.128906,0.5058593 0,0.1812577 0.03818,0.3341023 0.113281,0.4628907 0.0739,0.1287884 0.174759,0.2386886 0.304688,0.328125 0.131121,0.090628 0.289417,0.1703096 0.476562,0.2382812 0.185953,0.067971 0.390377,0.1351534 0.613282,0.203125 0.253897,0.083474 0.517285,0.1782645 0.789062,0.2832031 0.271777,0.1061314 0.521566,0.243866 0.748047,0.4179688 0.226481,0.174104 0.413169,0.3939032 0.558594,0.65625 0.145425,0.2647316 0.21875,0.5940006 0.21875,0.9863281 0,0.4304871 -0.07822,0.8061755 -0.234375,1.1269529 -0.156153,0.321971 -0.365905,0.586565 -0.626954,0.798828 -0.271619,0.216599 -0.582403,0.377843 -0.916015,0.47461 -0.358942,0.10693 -0.73291,0.159967 -1.107422,0.158203 -0.513754,0 -1.016705,-0.09588 -1.507813,-0.289063 -0.391291,-0.148451 -0.74671,-0.378141 -1.042968,-0.673828 l -0.164063,-0.18164 1.00586,-0.9492191 c 0.193105,0.2718866 0.453118,0.4851702 0.777343,0.6425781 0.323034,0.159792 0.642773,0.240234 0.955078,0.240234 0.163304,0 0.332258,-0.02077 0.503907,-0.0625 0.171649,-0.04174 0.324618,-0.11196 0.46289,-0.210937 0.136717,-0.096949 0.251943,-0.2221194 0.335938,-0.3671876 0.09082,-0.1681761 0.133469,-0.3577907 0.126953,-0.5488282 0.007,-0.1864986 -0.04283,-0.3689306 -0.144531,-0.5253906 C 37.970162,8.503966 37.837425,8.3798084 37.683599,8.2871094 37.519102,8.1857482 37.325665,8.096611 37.101567,8.0214844 L 36.398443,7.7832031 C 36.160042,7.709269 35.922001,7.6178498 35.683599,7.5117188 35.445198,7.4055875 35.229788,7.2666603 35.039067,7.09375 34.844228,6.9128703 34.686656,6.6949837 34.576177,6.453125 34.456977,6.2003183 34.398443,5.8846378 34.398443,5.5078125 c 0,-0.4078298 0.08312,-0.7581906 0.25,-1.0527344 0.168072,-0.2945437 0.388378,-0.5365255 0.660156,-0.7285156 0.271777,-0.1931826 0.58086,-0.3374343 0.927734,-0.4316406 0.345682,-0.095398 0.699039,-0.140625 1.056641,-0.140625 z M 6.4882859,4.2519531 v 3.1171875 3.1152344 h 0.8125 c 1.0362664,0 1.4806207,-0.124393 2.03125,-0.5703125 C 10.000013,9.37246 10.390682,8.5603468 10.462896,7.6035156 10.554968,6.2874214 9.8866831,5.0170986 8.8125047,4.4863281 8.4387989,4.3094046 8.3669281,4.2972028 7.4570359,4.2773438 Z m 9.2324221,0.013672 -0.865234,0.00586 c -0.969468,0 -1.255631,0.065368 -1.753907,0.3867187 -1.054318,0.6733925 -1.591472,2.1748471 -1.277343,3.5234375 0.254553,1.0741785 0.994077,1.9248067 1.923828,2.1992187 0.243721,0.07221 0.615387,0.105469 1.166015,0.105469 h 0.806641 V 7.375 Z M 75.992193,4.4980469 V 10.25 h 1.667968 c 0.443042,0 0.846261,-0.07167 1.208985,-0.208984 0.343026,-0.1330766 0.654005,-0.3354348 0.916015,-0.5937504 0.259089,-0.2590892 0.454481,-0.5590696 0.591797,-0.90625 0.1476,-0.3680887 0.220797,-0.7616423 0.216797,-1.1582031 C 80.598349,6.9895503 80.525196,6.5986573 80.376958,6.234375 80.239642,5.8820148 80.033887,5.5748575 79.785161,5.3183594 79.536436,5.0618626 79.23187,4.859932 78.869146,4.7148438 78.483253,4.5666008 78.073503,4.4918169 77.660161,4.4980469 Z m -26.417969,0.027344 c -0.395746,0 -0.752809,0.071313 -1.072266,0.2167969 -0.319458,0.1466757 -0.594162,0.3463707 -0.824219,0.6015625 -0.233673,0.2613533 -0.414981,0.5663855 -0.533203,0.8964844 -0.128596,0.3571064 -0.192694,0.7337227 -0.189453,1.1132812 0,0.414986 0.0631,0.7959969 0.189453,1.140625 0.125161,0.3458208 0.30543,0.647152 0.539063,0.9023438 0.233633,0.2551918 0.508667,0.4526049 0.828125,0.5957031 0.319457,0.1430982 0.675098,0.2128902 1.0625,0.2128902 0.388594,0 0.743372,-0.07294 1.066406,-0.2148433 0.323033,-0.1419017 0.602305,-0.3385582 0.835937,-0.59375 0.233633,-0.2551918 0.414664,-0.556523 0.541016,-0.9023438 0.125161,-0.3458206 0.1875,-0.725639 0.1875,-1.140625 0.0036,-0.3794822 -0.05936,-0.756089 -0.1875,-1.1132812 C 51.898597,5.9105943 51.716153,5.6067798 51.482427,5.3457031 51.250602,5.0890815 50.968321,4.8826229 50.652349,4.7421875 50.312838,4.5933571 49.944865,4.5203773 49.574224,4.5253909 Z m 61.917966,0.3359375 -1.45313,3.3847657 h 2.91211 z M 68.875005,6.6601562 c 0.08211,4.619e-4 0.163707,0.012965 0.242188,0.037109 0.0059,0.00124 0.01173,0.00254 0.01758,0.00391 0.002,6.438e-4 0.0039,0.00129 0.0059,0.00195 0.07877,0.026625 0.15315,0.064802 0.220703,0.1132812 0.0046,0.00321 0.0091,0.00646 0.01367,0.00977 0.06616,0.049101 0.124727,0.1076715 0.173828,0.1738281 0.0033,0.00452 0.0066,0.00908 0.0098,0.013672 0.04677,0.066584 0.08361,0.1396136 0.109375,0.2167969 0.0027,0.00583 0.0053,0.011689 0.0078,0.017578 0.02577,0.081506 0.03894,0.16647 0.03906,0.2519531 -7.1e-4,0.083518 -0.01387,0.1664618 -0.03906,0.2460938 -0.0037,0.010493 -0.0076,0.020912 -0.01172,0.03125 -0.02437,0.069856 -0.05786,0.1361858 -0.09961,0.1972656 -0.0082,0.011935 -0.01663,0.023658 -0.02539,0.035156 -0.0445,0.057925 -0.09637,0.1097947 -0.154296,0.1542969 -0.01023,0.00805 -0.02065,0.015868 -0.03125,0.023437 -0.0644,0.044742 -0.134741,0.080243 -0.208985,0.1054688 -0.0032,0.00198 -0.0065,0.00393 -0.0098,0.00586 -0.002,6.8e-6 -0.0039,6.8e-6 -0.0059,0 -0.08203,0.02663 -0.167667,0.040464 -0.253906,0.041016 -0.221088,-5.542e-4 -0.433037,-0.088281 -0.589844,-0.2441407 -0.002,-0.00194 -0.0039,-0.0039 -0.0059,-0.00586 C 68.123497,7.9330332 68.035715,7.7210884 68.035161,7.5 c 5.54e-4,-0.2210884 0.08828,-0.4330373 0.244141,-0.5898438 0.0019,-0.00196 0.0039,-0.00392 0.0059,-0.00586 0.156725,-0.1558579 0.368715,-0.2435859 0.589803,-0.24414 z" fill="#6a7377"/></svg>