<svg height="15" width="68.44532" viewBox="0 0 68.44532 15" xmlns="http://www.w3.org/2000/svg"><path d="M 2.7207078,0 C 1.216445,0.00165566 -0.00220594,1.2223004 4.6910602e-6,2.7265625 V 12.271484 C -0.00275908,13.776136 1.2160538,14.998345 2.7207078,15 H 65.722661 c 1.505597,-5.51e-4 2.724857,-1.222921 2.722656,-2.728516 V 2.7265625 C 68.446977,1.2213579 67.227866,5.5165881e-4 65.722661,0 Z m 2.3261719,3.1503906 h 6.0566413 6.05664 V 7.375 11.599609 H 11.103521 5.0468797 V 7.375 Z m 17.7753913,0 2.296875,6.5039063 h 0.04687 l 2.320312,-6.5019531 h 1.601563 L 25.742193,11.599609 H 24.458989 L 21.160161,3.1523438 Z m 9.34375,0 V 11.599609 H 30.681646 V 3.1523438 Z m 11.167968,0 V 11.599609 H 41.849614 V 3.1523438 Z m 6.230469,0 c 0.619843,0 1.190792,0.1001157 1.712891,0.296875 0.52329,0.19676 0.97598,0.4761358 1.357422,0.8398438 0.381442,0.3637079 0.677256,0.8054876 0.890625,1.3242187 0.212177,0.5175384 0.320312,1.0986775 0.320312,1.7402344 0,0.6296333 -0.108135,1.2039252 -0.320312,1.7226563 -0.214561,0.518731 -0.509183,0.9654022 -0.890625,1.3398432 -0.381442,0.37444 -0.835324,0.665555 -1.357422,0.873047 -0.546264,0.212407 -1.126848,0.318518 -1.712891,0.3125 -0.613883,0 -1.180697,-0.103814 -1.699219,-0.3125 -0.502724,-0.197296 -0.959328,-0.493625 -1.34375,-0.873047 -0.382521,-0.382028 -0.684848,-0.8382434 -0.886718,-1.3398432 -0.21838,-0.5470419 -0.325834,-1.1316991 -0.31836,-1.7207032 0,-0.6439419 0.106183,-1.2254097 0.31836,-1.7441406 0.212177,-0.5175386 0.508853,-0.9585577 0.886718,-1.3222656 0.376674,-0.363708 0.824035,-0.6430838 1.34375,-0.8398438 0.518522,-0.19676 1.085336,-0.2949219 1.699219,-0.2949218 z m 8.326172,0 3.873047,6.3261719 h 0.02344 V 3.1523438 h 1.484375 V 11.599609 H 61.388677 L 57.431646,5.0742188 h -0.02344 V 11.599609 H 55.92188 V 3.1523438 Z m -20.597656,0.00391 c 0.401706,0 0.810222,0.069792 1.222656,0.2128906 0.331377,0.1156711 0.626431,0.2780751 0.888672,0.484375 l 0.189453,0.1621057 -0.916016,1.0195312 C 38.508855,4.8215659 38.291342,4.6531236 38.044927,4.5410156 37.638897,4.33779 37.173439,4.2886878 36.73438,4.4042969 c -0.158975,0.039376 -0.309465,0.1048174 -0.447266,0.1933593 -0.133801,0.08661 -0.24736,0.2016159 -0.330078,0.3378907 -0.08937,0.1527299 -0.134144,0.3289673 -0.128906,0.5058593 0,0.1812577 0.03818,0.3341023 0.113281,0.4628907 0.0739,0.1287884 0.174759,0.2386886 0.304688,0.328125 0.131121,0.090628 0.289417,0.1703096 0.476562,0.2382812 0.185953,0.067971 0.390376,0.1351534 0.613282,0.203125 0.253897,0.083474 0.517285,0.1782645 0.789062,0.2832031 0.271777,0.1061313 0.521566,0.243866 0.748047,0.4179688 0.226481,0.174104 0.413169,0.3939032 0.558594,0.65625 0.145425,0.2647316 0.21875,0.5940006 0.21875,0.9863281 0,0.4304871 -0.07822,0.8061751 -0.234375,1.1269529 -0.156153,0.321971 -0.365904,0.586565 -0.626954,0.798828 -0.271619,0.216599 -0.582403,0.377843 -0.916015,0.47461 -0.358942,0.10693 -0.73291,0.159967 -1.107422,0.158203 -0.513754,0 -1.016706,-0.09588 -1.507813,-0.289063 -0.391291,-0.148451 -0.74671,-0.378141 -1.042968,-0.673828 l -0.164063,-0.18164 1.00586,-0.9492191 c 0.193105,0.2718866 0.453118,0.4851702 0.777343,0.6425781 0.323034,0.159792 0.642773,0.240234 0.955078,0.240234 0.163304,0 0.332258,-0.02077 0.503907,-0.0625 0.171649,-0.04174 0.324618,-0.11196 0.46289,-0.210937 0.136717,-0.096949 0.251943,-0.2221194 0.335938,-0.3671876 0.09082,-0.1681761 0.133469,-0.3577908 0.126953,-0.5488282 0.007,-0.1864988 -0.04283,-0.3689306 -0.144531,-0.5253906 C 37.970162,8.503966 37.837425,8.3798084 37.683599,8.2871094 37.519102,8.1857482 37.325665,8.096611 37.101567,8.0214844 L 36.398443,7.7832031 C 36.160041,7.709269 35.922001,7.6178499 35.683599,7.5117188 35.445198,7.4055875 35.229788,7.2666603 35.039067,7.09375 34.844228,6.9128703 34.686656,6.6949837 34.576177,6.453125 34.456977,6.2003183 34.398442,5.8846378 34.398443,5.5078125 c 0,-0.4078298 0.08312,-0.7581906 0.25,-1.0527344 0.168072,-0.2945437 0.388378,-0.5365255 0.660156,-0.7285156 0.271777,-0.1931826 0.58086,-0.3374343 0.927734,-0.4316406 0.345682,-0.095398 0.699039,-0.140625 1.056641,-0.140625 z M 6.4882859,4.2519531 v 3.1171875 3.1152344 h 0.8125 c 1.0362663,0 1.4806207,-0.124393 2.03125,-0.5703125 C 10.000013,9.37246 10.390682,8.5603468 10.462896,7.6035156 10.554968,6.2874214 9.8866831,5.0170986 8.8125047,4.4863281 8.4387989,4.3094046 8.3669281,4.2972028 7.4570359,4.2773438 Z m 9.2324221,0.013672 -0.865234,0.00586 c -0.969468,0 -1.255632,0.065368 -1.753907,0.3867187 -1.054319,0.6733925 -1.591472,2.1748471 -1.277343,3.5234375 0.254553,1.0741785 0.994077,1.9248067 1.923828,2.1992187 0.243721,0.07221 0.615386,0.105469 1.166015,0.105469 h 0.806641 V 7.375 Z m 33.853516,0.2597656 c -0.395746,0 -0.752809,0.071313 -1.072266,0.2167969 -0.319458,0.1466757 -0.594162,0.3463707 -0.824219,0.6015625 -0.233673,0.2613533 -0.414981,0.5663855 -0.533203,0.8964844 -0.128596,0.3571064 -0.192694,0.7337227 -0.189453,1.1132812 0,0.414986 0.0631,0.7959969 0.189453,1.140625 0.125161,0.3458208 0.30543,0.647152 0.539063,0.9023438 0.233633,0.2551918 0.508667,0.4526049 0.828125,0.5957031 0.319457,0.1430984 0.675098,0.2128904 1.0625,0.2128904 0.388594,0 0.743372,-0.07294 1.066406,-0.2148435 0.323033,-0.1419017 0.602305,-0.3385582 0.835937,-0.59375 0.233633,-0.2551918 0.414664,-0.556523 0.541016,-0.9023438 0.125161,-0.3458206 0.1875,-0.725639 0.1875,-1.140625 0.0036,-0.3794822 -0.05936,-0.756089 -0.1875,-1.1132812 C 51.898597,5.9105944 51.716153,5.6067798 51.482427,5.3457031 51.250602,5.0890815 50.968321,4.8826229 50.652349,4.7421875 50.312838,4.5933571 49.944865,4.5203774 49.574224,4.5253907 Z" fill="#6a7377"/></svg>