<svg height="15" width="26" viewBox="0 0 26 15" xmlns="http://www.w3.org/2000/svg"><path d="M2.737 0h20.528A2.732 2.732 0 0126 2.727v9.545A2.732 2.732 0 0123.265 15H2.737A2.732 2.732 0 010 12.272V2.727A2.732 2.732 0 012.737 0zM12.5 11.778V3.326h-1.772v3.433H6.921V3.326H5.152v8.452h1.769V8.217h3.807v3.561zm1.409-8.452v8.452h3.257c2.536 0 4.03-1.576 4.03-4.258S19.7 3.326 17.163 3.326h-3.257zm1.769 1.458h1.277c1.558 0 2.437.972 2.437 2.741 0 1.827-.855 2.788-2.437 2.788h-1.28V4.785z" fill="#6a7377" fill-rule="evenodd"/></svg>
