<svg  viewBox="0 0 50 50" xmlns="http://www.w3.org/2000/svg">
<path
     d="M 4.5976562,0 C 2.0503392,0 0,2.0503392 0,4.5976562 V 45.402344 C 0,47.949661 2.0503392,50 4.5976562,50 H 45.402344 C 47.949661,50 50,47.949661 50,45.402344 V 4.5976562 C 50,2.0503392 47.949661,0 45.402344,0 Z M 15.658203,8.0429688 H 19 22.341797 l 0.04297,0.1230468 c 0.02421,0.067478 0.57762,1.6284297 1.228515,3.4687504 0.193438,0.546921 0.104645,0.296206 0.273438,0.773437 1.943045,5.493619 2.596233,7.340678 3.15039,8.904297 l 0.002,0.002 0.615235,1.740235 0.01367,-7.494141 0.01367,-7.4960939 h 3.324218 3.322266 l 0.01172,16.9296879 c 0.0062,9.310761 -0.0031,16.94052 -0.02148,16.957031 h -0.002 v 0.002 c -0.02127,0.01603 -0.325716,-0.0068 -0.679687,-0.05078 -1.536085,-0.190859 -3.560986,-0.366113 -5.195313,-0.447266 h -0.002 c -0.539526,-0.02678 -0.984059,-0.05242 -0.990234,-0.05859 -0.0047,-0.0047 -0.425535,-1.185988 -1.208985,-3.398437 v -0.01367 C 25.663544,36.361607 25.055827,34.652542 23.0898,29.089945 v -0.002 c -0.117012,-0.331069 -0.06583,-0.18502 -0.1875,-0.529297 l -0.529297,-1.5 v 0.0098 l -0.01172,7.167969 c -0.01069,6.796291 -0.01604,7.177243 -0.08984,7.177734 -0.253715,0.0016 -2.443891,0.143126 -3.177734,0.205079 -0.478483,0.04039 -1.438523,0.137083 -2.132812,0.214843 -0.694293,0.07776 -1.272033,0.132253 -1.283204,0.121094 -0.01116,-0.01117 -0.01953,-7.646599 -0.01953,-16.966797 z" fill="#6a7377" fill-rule="evenodd"/>
</svg>
