<?xml version="1.0" encoding="UTF-8" standalone="no"?>
<svg
   height="15.000001"
   width="31.999001"
   viewBox="0 0 31.999001 15.000001"
   version="1.1"
   id="svg4"
   sodipodi:docname="netflix.svg"
   inkscape:version="1.1.1 (3bf5ae0d25, 2021-09-20)"
   xmlns:inkscape="http://www.inkscape.org/namespaces/inkscape"
   xmlns:sodipodi="http://sodipodi.sourceforge.net/DTD/sodipodi-0.dtd"
   xmlns="http://www.w3.org/2000/svg"
   xmlns:svg="http://www.w3.org/2000/svg">
  <defs
     id="defs8" />
  <sodipodi:namedview
     id="namedview6"
     pagecolor="#505050"
     bordercolor="#ffffff"
     borderopacity="1"
     inkscape:pageshadow="0"
     inkscape:pageopacity="0"
     inkscape:pagecheckerboard="1"
     showgrid="false"
     inkscape:zoom="43.076923"
     inkscape:cx="16.505357"
     inkscape:cy="5.7223214"
     inkscape:window-width="2560"
     inkscape:window-height="1369"
     inkscape:window-x="5112"
     inkscape:window-y="-8"
     inkscape:window-maximized="1"
     inkscape:current-layer="svg4" />
  <path
     id="path850"
     style="fill:#6a7377;fill-rule:evenodd;stroke-width:1.22509"
     d="M 2.7285156 0 C 1.2283274 0 2.9605947e-16 1.2258323 0 2.7265625 L 0 12.271484 C 0.0013455 13.771889 1.2281109 14.999328 2.7285156 15 L 29.269531 15 C 30.771098 15.0013 31.998722 13.773051 31.998047 12.271484 L 31.998047 2.7265625 C 31.999267 1.2256129 30.771673 0 29.271484 0 L 2.7285156 0 z M 2.7285156 1 L 29.271484 1 C 30.231294 1 30.998827 1.7675146 30.998047 2.7265625 L 30.998047 12.271484 C 30.998479 13.232135 30.230182 14.000863 29.269531 14 L 2.7285156 14 C 1.768075 13.99957 1.0008613 13.231925 1 12.271484 L 1 2.7265625 C 1 1.7672952 1.7687063 1 2.7285156 1 z M 8.2226562 4.2324219 L 8.2226562 10.265625 L 11.050781 10.041016 L 11.050781 9.0585938 L 9.2460938 9.1679688 L 9.2460938 7.6484375 L 10.611328 7.6289062 L 10.611328 6.6074219 L 9.2460938 6.6269531 L 9.2460938 5.2558594 L 11.050781 5.2558594 L 11.050781 4.2324219 L 8.2226562 4.2324219 z M 11.708984 4.2324219 L 11.708984 5.2558594 L 12.765625 5.2558594 L 12.765625 9.9648438 L 13.789062 9.9492188 L 13.789062 5.2539062 L 14.847656 5.2539062 L 14.847656 4.2324219 L 11.708984 4.2324219 z M 15.505859 4.2324219 L 15.505859 9.8945312 L 16.507812 9.8945312 L 16.507812 7.5761719 L 17.90625 7.5761719 L 17.90625 6.5546875 L 16.507812 6.5546875 L 16.507812 5.2558594 L 18.357422 5.2558594 L 18.357422 4.2324219 L 15.505859 4.2324219 z M 18.996094 4.2324219 L 18.996094 9.9648438 L 21.751953 10.097656 L 21.751953 9.0878906 L 20.017578 8.9980469 L 20.017578 4.2324219 L 18.996094 4.2324219 z M 22.615234 4.2324219 L 22.615234 10.167969 L 23.617188 10.244141 L 23.617188 4.2324219 L 22.615234 4.2324219 z M 24.492188 4.2324219 L 25.679688 7.3007812 L 24.363281 10.294922 L 25.460938 10.429688 L 26.208984 8.6933594 L 26.943359 10.582031 L 28.091797 10.767578 L 26.794922 7.3417969 L 28.091797 4.2324219 L 26.974609 4.2324219 L 26.257812 5.9492188 L 25.587891 4.2324219 L 24.492188 4.2324219 z M 3.9082031 4.234375 L 3.9082031 10.767578 L 4.9492188 10.628906 L 4.9492188 7.0605469 L 6.1152344 10.480469 L 7.2304688 10.349609 L 7.2304688 4.234375 L 6.203125 4.234375 L 6.203125 7.9433594 L 4.8769531 4.234375 L 3.9082031 4.234375 z " />
  <g
     fill="none"
     fill-rule="evenodd"
     id="g1029" />
</svg>
