<svg viewBox="0 0 20.757 7.8940001" xmlns="http://www.w3.org/2000/svg"><path d="M 0.986,0 C 0.441,0 0,0.441 0,0.986 v 5.922 c 0,0.545 0.441,0.986 0.986,0.986 h 15.418 c 0.059,0 0.29,-0.025 0.523,-0.24 L 18.663,5.931 20.757,3.945 18.661,1.961 16.881,0.201 C 16.676,0.01 16.442,0.012 16.389,0 Z m 10.656,2.244 h 0.637 l 0.756,2.293 0.699,-2.283 h 0.775 L 13.357,5.65 H 12.712 L 11.95,3.443 11.188,5.65 H 10.542 L 9.39,2.254 h 0.797 l 0.697,2.283 z M 2.615,2.254 H 3.299 L 4.881,4.33 V 2.254 H 5.613 V 5.627 H 4.982 L 3.347,3.482 V 5.627 H 2.615 Z m 3.807,0 h 2.545 v 0.66 H 7.16 v 0.684 h 1.59 v 0.66 H 7.16 v 0.709 h 1.832 v 0.66 h -2.57 z" fill="#6a7377" fill-rule="evenodd"/></svg>