<svg height="15.000269" width="40.560551" viewBox="0 0 40.560551 15.000269" xmlns="http://www.w3.org/2000/svg"><path d="M 2.6503953,2.6888363e-4 C 1.1786686,0.03918532 -0.0021714,1.2460734 4.6910477e-6,2.7268314 V 12.271753 C -0.00275908,13.776405 1.2160538,14.998614 2.7207078,15.000269 H 31.277349 c 4.390309,0 9.283203,-6.2400634 9.283203,-7.5019532 0,-1.1597161 -5.030308,-7.49804691637 -9.283203,-7.49804691637 H 2.7207078 c -0.023504,2.586968e-5 -0.046952,-6.1772132e-4 -0.070312,0 z M 25.675786,3.314722 h 1.5625 l 1.859375,5.6347657 1.714844,-5.609375 h 1.90625 L 29.89063,11.685816 H 28.302739 L 26.433599,6.2639408 24.562505,11.685816 H 22.976567 L 20.146489,3.3401127 h 1.953125 l 1.716797,5.609375 z M 3.9023485,3.3401127 H 5.5839891 L 9.4668016,8.4416751 V 3.3401127 H 11.26563 V 11.625269 H 9.7148485 L 5.7011766,6.3576908 V 11.625269 H 3.9023485 Z m 8.7519535,0 h 6.251953 V 4.9612064 H 14.466802 V 6.642847 h 3.90625 v 1.6210938 h -3.90625 v 1.7402342 h 4.498047 v 1.621094 h -6.310547 z m 25.482422,2.7841562 c 0.37264,6.468e-4 1.491852,1.0033601 1.49142,1.376 4.32e-4,0.3726399 -1.11878,1.2753532 -1.49142,1.276 -0.373403,4.323e-4 -0.576151,-0.9025975 -0.575719,-1.276 -4.32e-4,-0.3734025 0.202316,-1.3764323 0.575719,-1.376 z" fill="#6a7377"/></svg>