<svg height="15" width="32" viewBox="0 0 32 15" xmlns="http://www.w3.org/2000/svg"><g fill="none" fill-rule="evenodd"><path d="M2.729.5h0C1.499.5.5 1.497.5 2.727v9.545A2.23 2.23 0 002.729 14.5H29.27a2.227 2.227 0 002.229-2.228V2.727C31.5 1.497 30.501.5 29.271.5z" stroke="#6a7377"/><path d="M4 9.373C4.054 11.005 5.366 12 7.428 12c2.13 0 3.475-1.067 3.475-2.754 0-1.326-.749-2.073-2.466-2.446l-1.04-.227c-.985-.229-1.401-.53-1.401-1.066.046-.346.23-.658.51-.86.28-.204.631-.28.969-.212a1.4 1.4 0 011.592 1.181h1.681C10.718 4.042 9.465 3 7.468 3 5.557 3 4.192 4.06 4.192 5.663c0 1.272.778 2.085 2.358 2.428l1.115.247c1.034.234 1.444.548 1.444 1.115 0 .639-.654 1.103-1.61 1.103-.8.12-1.562-.39-1.77-1.183H4.004zm8-6.223v8.692h3.303c2.572 0 4.087-1.622 4.087-4.38 0-2.76-1.508-4.312-4.083-4.312zm1.798 1.501h1.295c1.58 0 2.472 1 2.472 2.82 0 1.88-.867 2.868-2.472 2.868h-1.295zm14.199 7.194V3.15h-1.792v3.532h-3.86V3.15H20.55v8.692h1.795v-3.66h3.86v3.66H28z" fill="#6a7377"/></g></svg>
