<svg viewBox="0 0 20.757 7.8940001" xmlns="http://www.w3.org/2000/svg"><path d="M 0.986,0 C 0.441,0 0,0.441 0,0.986 v 5.922 c 0,0.545 0.441,0.986 0.986,0.986 h 15.418 c 0.059,0 0.29,-0.025 0.523,-0.24 L 18.663,5.931 20.757,3.945 18.661,1.961 16.881,0.201 C 16.676,0.01 16.442,0.012 16.389,0 Z m 5.59,2.424 c 0.908,0 1.561,0.679 1.561,1.516 V 3.947 C 8.137,4.784 7.477,5.47 6.569,5.47 5.661,5.47 5.008,4.791 5.008,3.954 V 3.947 c 0,-0.837 0.66,-1.523 1.568,-1.523 z m 3.727,0 c 0.908,0 1.559,0.679 1.559,1.516 v 0.007 c 0,0.837 -0.66,1.523 -1.568,1.523 C 9.386,5.47 8.733,4.791 8.733,3.954 V 3.947 c 0,-0.837 0.662,-1.523 1.57,-1.523 z m -7.059,0.01 c 0.429,0 0.793,0.133 1.092,0.373 L 4,3.295 C 3.739,3.114 3.483,3.006 3.234,3.006 2.985,3.006 2.855,3.119 2.855,3.262 V 3.27 c 0,0.193 0.128,0.256 0.637,0.387 0.597,0.156 0.934,0.372 0.934,0.885 V 4.55 c 0,0.585 -0.447,0.912 -1.082,0.912 A 1.87,1.87 0 0 1 2.096,4.991 L 2.479,4.532 c 0.265,0.219 0.542,0.357 0.879,0.357 0.265,0 0.424,-0.105 0.424,-0.277 V 4.604 C 3.782,4.44 3.682,4.355 3.19,4.229 2.597,4.078 2.213,3.913 2.213,3.329 V 3.321 c 0,-0.534 0.43,-0.887 1.031,-0.887 z m 9.344,0.041 h 0.598 l 1.379,1.813 V 2.476 h 0.641 V 5.421 H 14.655 L 13.229,3.547 V 5.42 h -0.641 z m -6.02,0.547 c -0.522,0 -0.883,0.413 -0.883,0.918 v 0.007 c 0,0.505 0.369,0.926 0.891,0.926 0.522,0 0.885,-0.413 0.885,-0.918 V 3.947 C 7.461,3.442 7.09,3.021 6.568,3.021 Z m 3.725,0 C 9.771,3.022 9.41,3.435 9.41,3.94 v 0.007 c 0,0.505 0.371,0.926 0.893,0.926 0.522,0 0.883,-0.413 0.883,-0.918 V 3.947 c 0,-0.505 -0.371,-0.926 -0.893,-0.926 z" fill="#6a7377"/></svg>