<svg xmlns="http://www.w3.org/2000/svg" height="15" width="48.631" xmlns:v="https://vecta.io/nano"><path d="M2.65 0C1.179.039-.002 1.246 0 2.727v9.545C-.003 13.775 1.216 14.999 2.721 15h36.627c4.39 0 9.283-6.24 9.283-7.502 0-1.16-5.03-7.498-9.283-7.498H2.721h-.07zm13.994 3.387c2.502 0 4.297 1.865 4.297 4.17v.021c0 2.305-1.819 4.193-4.32 4.193s-4.297-1.865-4.297-4.17v-.023c0-2.305 1.819-4.191 4.32-4.191zm9.844 0c2.502 0 4.299 1.865 4.299 4.17v.021c0 2.305-1.819 4.193-4.32 4.193s-4.297-1.865-4.297-4.17v-.023c0-2.305 1.817-4.191 4.318-4.191zM7.877 3.41c1.181 0 2.189.369 3.012 1.029l-.928 1.344c-.718-.498-1.424-.799-2.107-.799s-1.043.313-1.043.707v.023c0 .533.349.705 1.75 1.064 1.645.429 2.57 1.021 2.57 2.434v.021c0 1.61-1.228 2.514-2.977 2.514-1.228 0-2.467-.428-3.439-1.297l1.053-1.262c.73.602 1.495.984 2.422.984.73 0 1.17-.291 1.17-.766v-.021c0-.452-.278-.684-1.633-1.031-1.633-.417-2.687-.869-2.687-2.479v-.023c0-1.471 1.182-2.443 2.838-2.443zm24.496.115h1.645l3.799 4.992V3.525h1.762v8.107h-1.518l-3.928-5.154v5.154h-1.76V3.525zM16.621 5.031c-1.436 0-2.432 1.136-2.432 2.525v.021c0 1.39 1.019 2.549 2.455 2.549s2.432-1.136 2.432-2.525v-.023c0-1.39-1.019-2.547-2.455-2.547zm9.846 0c-1.436 0-2.434 1.136-2.434 2.525v.021c0 1.39 1.019 2.549 2.455 2.549s2.434-1.136 2.434-2.525v-.023c0-1.39-1.019-2.547-2.455-2.547zm19.74 1.092c.373.001 1.491 1.004 1.49 1.377s-1.118 1.274-1.49 1.275-.576-.902-.576-1.275.202-1.377.576-1.377z" fill="#6a7377"/></svg>