<svg viewBox="0 0 23.679001 10.143002" xmlns="http://www.w3.org/2000/svg"><path d="M 13.153,4.488 H 21.48 A 2.2,2.2 0 0 0 23.679,2.29 v 0 A 2.2,2.2 0 0 0 21.48,0.091 H 13.153 A 2.2,2.2 0 0 0 10.954,2.29 v 0 a 2.2,2.2 0 0 0 2.199,2.198 z M 2.199,10.09 h 9.572 A 2.2,2.2 0 0 0 13.97,7.892 v 0 A 2.2,2.2 0 0 0 11.771,5.693 H 2.199 A 2.2,2.2 0 0 0 0,7.892 v 0 A 2.2,2.2 0 0 0 2.199,10.09 Z M 1.295,4.409 H 2.266 V 0.861 H 3.523 V 0 H 0.039 v 0.859 h 1.257 z m 3.498,0 H 5.764 V 1.027 h 0.012 l 1.12,3.379 H 7.643 L 8.801,1.027 H 8.813 V 4.406 H 9.784 V 0 H 8.31 L 7.289,2.875 H 7.277 L 6.262,0 H 4.794 Z M 18.973,6.93 C 18.843,6.659 18.65,6.424 18.41,6.243 A 2.31,2.31 0 0 0 17.579,5.86 C 17.25,5.778 16.913,5.736 16.574,5.736 h -1.456 v 4.406 h 1.587 a 3.06,3.06 0 0 0 0.94,-0.143 C 17.932,9.912 18.2,9.772 18.435,9.586 18.664,9.4 18.85,9.166 18.979,8.901 19.119,8.606 19.188,8.283 19.182,7.957 19.192,7.603 19.121,7.252 18.973,6.93 Z m -0.925,1.609 c -0.073,0.166 -0.186,0.312 -0.329,0.423 a 1.33,1.33 0 0 1 -0.498,0.227 c -0.204,0.047 -0.413,0.07 -0.622,0.068 H 16.095 V 6.643 h 0.573 c 0.196,-10e-4 0.392,0.025 0.581,0.078 a 1.45,1.45 0 0 1 0.483,0.233 1.14,1.14 0 0 1 0.316,0.39 1.23,1.23 0 0 1 0.124,0.563 1.48,1.48 0 0 1 -0.124,0.632 z M 23.603,8.523 C 23.559,8.403 23.492,8.292 23.406,8.197 23.32,8.102 23.218,8.024 23.105,7.967 22.981,7.904 22.848,7.862 22.71,7.843 V 7.831 A 1.15,1.15 0 0 0 23.26,7.48 C 23.403,7.305 23.478,7.084 23.469,6.858 A 1.05,1.05 0 0 0 23.326,6.279 C 23.232,6.136 23.104,6.02 22.953,5.94 22.79,5.856 22.614,5.801 22.433,5.778 A 4.09,4.09 0 0 0 21.858,5.737 h -1.643 v 4.406 h 1.805 a 2.79,2.79 0 0 0 0.588,-0.062 c 0.188,-0.038 0.368,-0.107 0.533,-0.205 0.156,-0.093 0.288,-0.221 0.386,-0.373 A 1.06,1.06 0 0 0 23.676,8.92 1.17,1.17 0 0 0 23.608,8.524 Z m -2.417,-1.96 h 0.66 c 0.077,0 0.154,0.008 0.23,0.022 a 0.77,0.77 0 0 1 0.212,0.071 0.42,0.42 0 0 1 0.152,0.141 0.4,0.4 0 0 1 0.06,0.227 0.45,0.45 0 0 1 -0.054,0.224 C 22.412,7.308 22.365,7.36 22.307,7.397 A 0.61,0.61 0 0 1 22.11,7.478 c -0.072,0.017 -0.146,0.025 -0.22,0.025 h -0.703 z m 1.459,2.489 c -0.037,0.065 -0.089,0.12 -0.152,0.162 A 0.58,0.58 0 0 1 22.284,9.301 1.02,1.02 0 0 1 22.057,9.326 H 21.186 V 8.33 h 0.734 a 1.91,1.91 0 0 1 0.249,0.019 c 0.088,0.012 0.173,0.035 0.255,0.068 a 0.5,0.5 0 0 1 0.195,0.147 c 0.054,0.071 0.082,0.159 0.078,0.249 a 0.46,0.46 0 0 1 -0.054,0.239 z" fill="#6a7377"/></svg>