<svg viewBox="0 0 622.22461 582.961" xmlns="http://www.w3.org/2000/svg"><path d="m 384.02928,5e-5 c -63.46133,0 -118.84237,39.821978 -139.37304,98.556639 -13.69334,-5.7292 -28.49931,-8.71484 -43.55664,-8.71484 -53.75467,0 -100.17714,37.953941 -111.374995,89.724611 C 37.95394,190.76913 0,237.06198 0,290.94732 c 0,62.844 51.14623,113.99414 113.99022,113.99414 h 111.625 V 285.72271 c 0,-8.46293 6.84304,-15.30664 15.30665,-15.30664 h 140.50585 c 8.46294,0 15.30664,6.84304 15.30664,15.30664 V 404.9356 h 111.5 c 62.844,0 113.99024,-51.14428 113.99024,-113.98828 l -0.006,-0.002 c 0,-56 -40.06799,-102.66797 -93.58399,-112.2461 2.11462,-9.83333 3.23438,-20.1621 3.23438,-30.74023 C 531.86899,66.326989 465.53981,0 384.02914,0 Z M 262.95507,295.31451 c -6.84374,0 -12.44336,5.47455 -12.44336,12.44336 V 431.13872 H 202.2246 c -4.85414,0 -9.33267,2.73955 -11.32227,7.21875 -1.9948,4.35934 -1.24605,9.58396 1.86328,13.31836 l 108.89063,126.93164 c 2.36466,2.7344 5.84952,4.35352 9.45898,4.35352 3.60947,0 7.09445,-1.61392 9.45899,-4.35352 L 429.46483,451.67583 c 3.10932,-3.7344 3.85288,-8.95902 1.86328,-13.31836 -1.9896,-4.4792 -6.46813,-7.21875 -11.32226,-7.21875 H 371.83983 V 307.75787 c 0,-6.96867 -5.59962,-12.44336 -12.44336,-12.44336 z" fill="#6a7377"/></svg>