<svg height="15" width="34" viewBox="0 0 34 15" xmlns="http://www.w3.org/2000/svg"><path d="M2.72 0h28.557A2.724 2.724 0 0134 2.727v9.545A2.724 2.724 0 0131.277 15H2.72A2.723 2.723 0 010 12.272V2.727A2.723 2.723 0 012.72 0zm9.672 11.6V3.151h-1.769v3.433H6.816V3.151H5.047V11.6h1.769V8.042h3.807V11.6zM13.8 3.151V11.6h3.257c2.536 0 4.03-1.576 4.03-4.258s-1.494-4.194-4.03-4.194H13.8zm1.77 1.459h1.277c1.558 0 2.437.972 2.437 2.741 0 1.827-.855 2.788-2.437 2.788H15.57zM24 4.534h1.53a1.3 1.3 0 011.429 1.347 1.268 1.268 0 01-1.412 1.347H24zm0 3.977h1.447l1.571 3.089h2L27.24 8.247a2.484 2.484 0 001.535-2.4c0-1.669-1.113-2.694-3.057-2.694h-3.491V11.6H24z" fill="#6a7377" fill-rule="evenodd"/></svg>
