<?xml version="1.0" encoding="UTF-8" standalone="no"?>
<!-- Created with Inkscape (http://www.inkscape.org/) -->

<svg
   width="2199px"
   height="1705px"
   viewBox="0 0 2199 1705"
   version="1.1"
   id="svg2237"
   xml:space="preserve"
   inkscape:version="1.2.2 (732a01da63, 2022-12-09)"
   sodipodi:docname="planek.svg"
   xmlns:inkscape="http://www.inkscape.org/namespaces/inkscape"
   xmlns:sodipodi="http://sodipodi.sourceforge.net/DTD/sodipodi-0.dtd"
   xmlns:xlink="http://www.w3.org/1999/xlink"
   xmlns="http://www.w3.org/2000/svg"
   xmlns:svg="http://www.w3.org/2000/svg"><sodipodi:namedview
     id="namedview2239"
     pagecolor="#505050"
     bordercolor="#eeeeee"
     borderopacity="1"
     inkscape:showpageshadow="0"
     inkscape:pageopacity="0"
     inkscape:pagecheckerboard="0"
     inkscape:deskcolor="#505050"
     inkscape:document-units="mm"
     showgrid="false"
     inkscape:zoom="0.96009957"
     inkscape:cx="1407.1457"
     inkscape:cy="632.22609"
     inkscape:window-width="2560"
     inkscape:window-height="1304"
     inkscape:window-x="0"
     inkscape:window-y="857"
     inkscape:window-maximized="0"
     inkscape:current-layer="binary_sensor.motion_sensor_entrance" /><defs
     id="defs2234"><linearGradient
       inkscape:collect="always"
       id="linearGradient2807"><stop
         style="stop-color:#000000;stop-opacity:1;"
         offset="0"
         id="stop2803" /><stop
         style="stop-color:#000000;stop-opacity:0;"
         offset="1"
         id="stop2805" /></linearGradient><linearGradient
       inkscape:collect="always"
       id="linearGradient2683"><stop
         style="stop-color:#ffffff;stop-opacity:1;"
         offset="0"
         id="stop2679" /><stop
         style="stop-color:#ffffff;stop-opacity:0;"
         offset="1"
         id="stop2681" /></linearGradient><rect
       x="1594.7495"
       y="637.89979"
       width="195.9093"
       height="51.366462"
       id="rect911" /><linearGradient
       inkscape:collect="always"
       xlink:href="#linearGradient2683"
       id="linearGradient2687"
       x1="972.68964"
       y1="1351.3412"
       x2="1166.8936"
       y2="1351.3412"
       gradientUnits="userSpaceOnUse" /><linearGradient
       inkscape:collect="always"
       xlink:href="#linearGradient2807"
       id="linearGradient2809"
       x1="972.68965"
       y1="1351.3412"
       x2="1166.8936"
       y2="1351.3412"
       gradientUnits="userSpaceOnUse" /><linearGradient
       id="SVGID_1_"
       gradientUnits="userSpaceOnUse"
       x1="28.1996"
       y1="-108.3677"
       x2="14.1068"
       y2="-79.065697"
       gradientTransform="matrix(-1,0,0,1,124.8804,0)">
		<stop
   offset="0.3098"
   style="stop-color:#FCE8B2"
   id="stop2215" />
		<stop
   offset="0.3987"
   style="stop-color:#FFCC80"
   id="stop2217" />
	</linearGradient></defs><g
     inkscape:label="background"
     inkscape:groupmode="layer"
     id="background"
     style="display:inline"><image
       width="2199"
       height="1705"
       preserveAspectRatio="none"
       xlink:href="bg_bellow_horizon.png"
       id="bellow_horizon"
       x="0"
       y="0"
       inkscape:label="bellow_horizon"
       inkscape:svg-dpi="1"
       href="/local/hafloor/bg_bellow_horizon.png"
       style="display:inline"
       sodipodi:absref="/Users/vietngoc/Documents/Floorplan Final/floorplan 4/final/bg_bellow_horizon.png" /><image
       width="2199"
       height="1705"
       preserveAspectRatio="none"
       xlink:href="bg_above_horizon.png"
       id="above_horizon"
       x="0"
       y="0"
       inkscape:label="above_horizon"
       inkscape:svg-dpi="1"
       href="/local/hafloor/bg_above_horizon.png"
       style="display:inline"
       sodipodi:absref="/Users/vietngoc/Documents/Floorplan Final/floorplan 4/final/bg_above_horizon.png" /><g
       inkscape:groupmode="layer"
       id="light-overlays"
       inkscape:label="Light Overlays"
       style="display:inline"><image
         width="2199"
         height="1705"
         preserveAspectRatio="none"
         xlink:href="bg_living_lamp.png"
         id="light_overlay.living_room_floor_lamp"
         x="0"
         y="0"
         href="/local/hafloor/bg_living_lamp.png"
         style="display:inline"
         inkscape:svg-dpi="1"
         sodipodi:absref="/Users/vietngoc/Documents/Floorplan Final/floorplan 4/final/bg_living_lamp.png" /><image
         width="2199.4597"
         height="1705.3564"
         preserveAspectRatio="none"
         xlink:href="bg_living_main.png"
         id="light_overlay.shelly_rgbw_kitchen_led_strip"
         x="0"
         y="0"
         href="/local/hafloor/bg_living_main.png"
         inkscape:svg-dpi="1"
         style="display:inline"
         sodipodi:absref="/Users/vietngoc/Documents/Floorplan Final/floorplan 4/final/bg_living_main.png" /><image
         width="2199"
         height="1705"
         preserveAspectRatio="none"
         xlink:href="bg_kitchen_table.png"
         id="light_overlay.kitchen_table_light"
         x="0"
         y="0"
         href="/local/hafloor/bg_kitchen_table.png"
         inkscape:svg-dpi="1"
         style="display:inline"
         sodipodi:absref="/Users/vietngoc/Documents/Floorplan Final/floorplan 4/final/bg_kitchen_table.png" /><image
         width="2199"
         height="1705"
         preserveAspectRatio="none"
         xlink:href="bg_kitchen_main.png"
         id="light_overlay.kitchen_main_light"
         x="0"
         y="0"
         href="/local/hafloor/bg_kitchen_main.png"
         inkscape:svg-dpi="1"
         style="display:inline"
         sodipodi:absref="/Users/vietngoc/Documents/Floorplan Final/floorplan 4/final/bg_kitchen_main.png" /><image
         width="2199"
         height="1705"
         preserveAspectRatio="none"
         xlink:href="bg_bathroom.png"
         id="light_overlay.bathroom_group"
         x="0"
         y="0"
         href="/local/hafloor/bg_bathroom.png"
         style="display:inline"
         sodipodi:absref="/Users/vietngoc/Documents/Floorplan Final/floorplan 4/final/bg_bathroom.png" /><image
         width="2199"
         height="1705"
         preserveAspectRatio="none"
         xlink:href="bg_utility.png"
         id="light_overlay.utility_room_light"
         x="0"
         y="0"
         href="/local/hafloor/bg_utility.png"
         style="display:inline"
         sodipodi:absref="/Users/vietngoc/Documents/Floorplan Final/floorplan 4/final/bg_utility.png" /><image
         width="2199"
         height="1705"
         preserveAspectRatio="none"
         xlink:href="bg_hallway.png"
         id="light_overlay.hallway_group"
         x="0"
         y="0"
         href="/local/hafloor/bg_hallway.png"
         style="display:inline"
         sodipodi:absref="/Users/vietngoc/Documents/Floorplan Final/floorplan 4/final/bg_hallway.png" /><image
         width="2199"
         height="1705"
         preserveAspectRatio="none"
         xlink:href="bg_office_table.png"
         id="light_overlay.office_led_light_strip"
         x="0"
         y="0"
         href="/local/hafloor/bg_office_table.png"
         style="display:inline"
         sodipodi:absref="/Users/vietngoc/Documents/Floorplan Final/floorplan 4/final/bg_office_table.png" /><image
         width="2199"
         height="1705"
         preserveAspectRatio="none"
         xlink:href="bg_office_lamp.png"
         id="light_overlay.office_lamp_bulb"
         x="0"
         y="0"
         href="/local/hafloor/bg_office_lamp.png"
         style="display:inline"
         sodipodi:absref="/Users/vietngoc/Documents/Floorplan Final/floorplan 4/final/bg_office_lamp.png" /><image
         width="2199"
         height="1705"
         preserveAspectRatio="none"
         xlink:href="bg_kidsroom.png"
         id="light_overlay.vanesska_ceiling_light"
         x="0"
         y="0"
         href="/local/hafloor/bg_kidsroom.png"
         style="display:inline"
         sodipodi:absref="/Users/vietngoc/Documents/Floorplan Final/floorplan 4/final/bg_kidsroom.png" /><image
         width="2199"
         height="1705"
         preserveAspectRatio="none"
         xlink:href="bg_bedroom_closet.png"
         id="light_overlay.bedroom_closet_light"
         x="0"
         y="0"
         href="/local/hafloor/bg_bedroom_closet.png"
         style="display:inline"
         sodipodi:absref="/Users/vietngoc/Documents/Floorplan Final/floorplan 4/final/bg_bedroom_closet.png" /><image
         width="2199"
         height="1705"
         preserveAspectRatio="none"
         xlink:href="bg_shower.png"
         id="light_overlay.shower_room_mirror_light"
         x="0"
         y="0"
         href="/local/hafloor/bg_shower.png"
         style="display:inline"
         sodipodi:absref="/Users/vietngoc/Documents/Floorplan Final/floorplan 4/final/bg_shower.png" /><image
         width="2199"
         height="1705"
         preserveAspectRatio="none"
         xlink:href="bg_bedroom_main.png"
         id="light_overlay.bed_light"
         x="0"
         y="0"
         href="/local/hafloor/bg_bedroom_main.png"
         style="display:inline"
         sodipodi:absref="/Users/vietngoc/Documents/Floorplan Final/floorplan 4/final/bg_bedroom_main.png" /></g><g
       inkscape:groupmode="layer"
       id="tv_overlays"
       inkscape:label="TV Overlays"
       style="display:inline"><image
         width="2199"
         height="1705"
         preserveAspectRatio="none"
         xlink:href="bg_atv_idle.png"
         id="media_player_overlay.living_room_tv"
         x="0"
         y="0"
         inkscape:svg-dpi="1"
         inkscape:label="media_player_overlay.living_room_tv"
         href="/local/hafloor/bg_atv_idle.png"
         sodipodi:absref="/Users/vietngoc/Documents/Floorplan Final/floorplan 4/final/bg_atv_idle.png" /></g></g><g
     inkscape:groupmode="layer"
     id="areas"
     inkscape:label="Areas"
     style="display:inline;stroke-width:0;stroke-dasharray:none"><g
       inkscape:groupmode="layer"
       id="area.living_room"
       inkscape:label="Living Room"
       style="display:inline;stroke-width:0;stroke-dasharray:none"><path
         style="fill:none;stroke:#ffffff;stroke-width:0;stroke-dasharray:none"
         d="M 696.00949,1265.0784 1063.8487,1098.4689 839.53891,785.44491 508.48362,921.76179 Z"
         id="path1190"
         sodipodi:nodetypes="ccccc" /><use
         id="light.shelly_rgbw_kitchen_led_strip"
         inkscape:label="light.shelly_rgbw_kitchen_led_strip"
         href="#path1190"
         style="stroke-width:0;stroke-dasharray:none" /></g><g
       inkscape:groupmode="layer"
       id="area.kitchen"
       inkscape:label="Kitchen"
       style="display:inline;stroke-width:0;stroke-dasharray:none"><path
         style="fill:none;stroke:#ffffff;stroke-width:0;stroke-dasharray:none"
         d="m 839.45691,785.60496 54.64389,-127.7664 229.3988,-88.96132 11.8791,13.72697 6.3355,-2.6398 1.3199,-66.523 50.1562,58.33962 -1.8478,21.64637 34.8453,-14.51891 228.6069,266.35598 -12.1431,93.97694 -252.629,108.23189 -126.7105,50.9481 z"
         id="path1435" /><use
         id="light.kitchen_main_light"
         inkscape:label="light.kitchen_main_light"
         href="#path1435"
         style="stroke-width:0;stroke-dasharray:none" /></g><g
       inkscape:groupmode="layer"
       id="area.bathroom"
       inkscape:label="Bathroom"
       style="display:inline;stroke-width:0;stroke-dasharray:none"><path
         style="fill:none;stroke:#ffffff;stroke-width:0;stroke-dasharray:none"
         d="m 900.33354,655.38986 -117.45293,-156.09761 4.01684,-2.81178 -3.21347,-38.56159 86.62426,-18.97649 -1.24205,-39.74577 25.83475,33.16288 132.52736,-30.43036 56.57,67.00926 0.4217,-65.57547 36.6886,42.59242 -0.2109,66.84059 32.6823,43.43584 -29.9412,12.65122 z"
         id="path1476" /><use
         id="light.bathroom_group"
         inkscape:label="light.bathroom_group"
         href="#path1476"
         style="stroke-width:0;stroke-dasharray:none" /></g><g
       inkscape:groupmode="layer"
       id="area.utility"
       inkscape:label="Utility"
       style="display:inline;stroke-width:0;stroke-dasharray:none"><path
         style="fill:none;stroke:#ffffff;stroke-width:0;stroke-dasharray:none"
         d="M 782.8994,499.30131 675.36407,356.76428 664.39968,255.13285 l 104.16167,-36.05596 9.27756,9.48841 132.62691,-47.86377 30.99548,32.68231 3.37366,98.04692 7.80158,11.8078 2.95195,-2.31939 -2.53024,-66.41888 33.31487,38.58621 2.95195,66.62973 38.37533,42.17072 -133.0486,30.78463 -25.93499,-33.52572 1.47598,39.85133 -86.44998,19.39853 3.16281,38.37535 z"
         id="path1481" /><use
         id="light.utility_room_light"
         inkscape:label="light.utility_room_light"
         href="#path1481"
         style="stroke-width:0;stroke-dasharray:none" /></g><g
       inkscape:groupmode="layer"
       id="area.hallway"
       inkscape:label="Hallway"
       style="display:inline;stroke-width:0;stroke-dasharray:none"><path
         style="fill:none;stroke:#ffffff;stroke-width:0;stroke-dasharray:none"
         d="m 910.0023,181.01756 170.779,-54.05954 116.3099,119.9958 -1.2286,84.36565 17.6103,15.56259 -3.6859,74.94619 22.1153,25.3916 4.9145,-67.16488 45.0496,50.37366 -4.5049,68.39351 11.4671,13.51489 -15.5626,9.00992 27.0298,29.48703 -74.1781,28.68062 -34.2952,14.0185 1.502,-21.27808 -50.3164,-58.32695 -0.5007,27.78666 -21.2781,-28.78798 0.2504,-67.33885 -37.2992,-42.80648 -0.2504,66.58786 -94.87516,-109.895 -3.00396,-66.83818 -32.79327,-38.30053 2.50331,66.33752 -3.00397,2.5033 -8.01057,-11.76552 -3.25429,-98.3798 z"
         id="path1523" /><use
         id="light.hallway_group"
         inkscape:label="light.hallway_group"
         href="#path1523"
         style="stroke-width:0;stroke-dasharray:none" /></g><g
       inkscape:groupmode="layer"
       id="area.office"
       inkscape:label="Office"
       style="display:inline;stroke-width:0;stroke-dasharray:none"><path
         style="fill:none;stroke:#ffffff;stroke-width:0;stroke-dasharray:none"
         d="M 1081.0682,126.98092 1438.738,5.5647392 1620.8568,174.02457 l -410.2731,248.89561 2.7474,-76.03192 -17.111,-15.55552 0.6222,-85.24429 z"
         id="path1567" /><use
         id="light.office_led_light_strip"
         inkscape:label="light.office_led_light_strip"
         href="#path1567"
         style="stroke-width:0;stroke-dasharray:none" /><use
         id="light.officelamp"
         inkscape:label="light.officelamp"
         href="#path1567"
         style="stroke-width:0;stroke-dasharray:none" /></g><g
       inkscape:groupmode="layer"
       id="area.kidsroom"
       inkscape:label="Kids Room"
       style="display:inline;stroke-width:0;stroke-dasharray:none"><path
         style="fill:none;stroke:#ffffff;stroke-width:0;stroke-dasharray:none"
         d="m 1620.7512,173.95119 175.6849,161.5261 -82.6413,39.87585 -2.0226,12.71404 -368.9962,217.00556 -42.7654,-55.1905 -26.7162,-28.84054 15.3757,-8.64879 -10.9552,-13.26149 4.2283,-69.19034 -45.1659,-50.16299 -4.9971,67.26838 -21.3336,-24.40881 z"
         id="path1633" /><use
         id="light.vanesska_ceiling_light"
         inkscape:label="light.vanesska_ceiling_light"
         href="#path1633"
         style="stroke-width:0;stroke-dasharray:none" /></g><g
       inkscape:groupmode="layer"
       id="area.bedroom"
       inkscape:label="Bedroom"
       style="display:inline;stroke-width:0;stroke-dasharray:none"><path
         style="fill:none;stroke:#ffffff;stroke-width:0;stroke-dasharray:none"
         d="m 1795.6742,335.20357 273.5018,244.81316 -102.9642,62.0483 -180.7494,77.78519 -13.4888,55.75355 -116.453,72.38968 13.9384,-73.28893 -38.2181,-31.47378 -35.5205,-32.82265 -0.8992,2.69775 -82.2814,-68.79268 -5.3956,1.7985 -0.65,-2.96619 -3.0905,-5.85103 c -2.8045,-3.40159 -6.4581,-5.61822 -11.3612,-7.26038 -4.4539,-0.27445 -11.4866,-0.46021 -18.2112,1.20611 -5.2414,1.2988 -11.7322,4.30418 -16.4089,7.2343 -22.6184,14.17144 -25.3656,20.2267 -25.3656,20.2267 l -64.2964,8.99251 0.8992,-16.63614 -36.4196,-41.36554 10.791,-4.94587 368.6928,-217.16906 1.7985,-11.69026 z"
         id="path1724"
         sodipodi:nodetypes="cccccccccccccccsscccccccc" /><path
         style="fill:none;stroke:#000000;stroke-width:0;stroke-dasharray:none"
         d="m 1338.3346,616.86043 128.0617,-75.75479 50.5032,104.61375 -9.6884,0.43638 c 0,0 0.4857,-4.24943 -2.7924,-8.49885 -3.2782,-4.24943 -8.4989,-6.67768 -8.4989,-6.67768 0,0 -3.0353,-1.69977 -12.384,-1.57835 -9.3488,0.12141 -21.9756,6.19202 -21.9756,6.19202 0,0 -8.9845,4.9779 -11.777,7.04191 -2.7925,2.064 -5.0993,3.88519 -7.7704,5.82778 -2.6711,1.9426 -1.3355,0.48565 -4.2494,3.03531 -2.9139,2.54965 -5.0993,4.61366 -5.7064,5.70637 -0.6071,1.09271 -1.6998,1.21412 -1.6998,1.21412 l -62.4059,8.74168 0.4857,-16.14782 z"
         id="path981" /><use
         id="light.bed_light"
         inkscape:label="light.bed_light"
         href="#path1724"
         style="stroke-width:0;stroke-dasharray:none" /><use
         id="light.bedroom_closet_light"
         inkscape:label="light.bedroom_closet_light"
         href="#path981"
         style="stroke-width:0;stroke-dasharray:none" /></g><g
       inkscape:groupmode="layer"
       id="area.shower"
       inkscape:label="Shower"
       style="display:inline;stroke-width:0;stroke-dasharray:none"><path
         d="m 1367.9507,667.60245 -58.5521,8.24066 145.641,170.19913 -12.4383,93.5263 213.3643,-91.37352 13.1559,-73.1945 -38.2716,-32.29168 -35.1621,-32.29169 -0.7176,2.87037 -82.0448,-68.64974 -5.9799,1.91358 -0.4873,-3.16174 c 0,0 -0.1232,-2.46415 -2.9569,-5.79075 -2.8338,-3.3266 -8.1317,-7.14604 -11.828,-7.39245 -3.6962,-0.24642 -11.8279,-0.36963 -15.5241,0.61603 -3.6962,0.98567 -14.4153,5.17472 -16.017,6.28359 -1.6017,1.10887 -13.06,7.63886 -16.2634,10.34943 -3.2034,2.71056 -7.2692,5.79075 -9.7334,8.62452 -2.4641,2.83378 -2.5873,2.95698 -2.5873,2.95698 z"
         id="path1774"
         style="fill:none;stroke:#ffffff;stroke-width:0;stroke-dasharray:none" /><use
         id="light.shower_room_mirror_light"
         inkscape:label="light.shower_room_mirror_light"
         href="#path1774"
         style="stroke-width:0;stroke-dasharray:none" /></g></g><g
     inkscape:groupmode="layer"
     id="entities"
     inkscape:label="Entities"
     inkscape:highlight-color="#f3ea21"
     style="display:inline"><ellipse
       style="opacity:1;fill:none;fill-opacity:1;stroke:#000000;stroke-opacity:1"
       id="light.living_room_floor_lamp"
       cx="685.3725"
       cy="1157.7437"
       rx="22.850203"
       ry="20.044039"
       inkscape:label="light.living_room_floor_lamp" /><path
       style="display:inline;fill:none;stroke:#4f83ca;stroke-width:0;stroke-dasharray:none;stroke-opacity:1"
       d="m 529.75801,732.01786 246.40635,-95.8073 9.70597,90.48467 -239.51825,94.86802 z"
       id="media_player.living_room_tv"
       inkscape:label="media_player.living_room_tv" /><path
       style="fill:none;stroke:#4f83ca;stroke-width:0;stroke-dasharray:none;stroke-opacity:1"
       d="m 1565.5849,481.24144 -9.7057,66.05275 121.591,-50.14617 11.3233,-65.78314 z"
       id="media_player.bedroom_tv"
       inkscape:label="media_player.bedroom_tv" /><ellipse
       style="opacity:1;fill:none;fill-opacity:1;stroke:#000000;stroke-opacity:1"
       id="light.office_lamp_bulb"
       cx="1500.2527"
       cy="204.97533"
       rx="15.157183"
       ry="12.034599"
       inkscape:label="light.office_lamp_bulb" /><path
       style="fill:none;stroke:#ffffff;stroke-opacity:1"
       d="m 966.0834,817.65137 83.6524,-35.0252 92.6638,121.22799 -44.7167,19.04283 v 23.63351 l -29.9244,12.41184 z"
       id="light.kitchen_table_light"
       inkscape:label="light.kitchen_table_light" /><path
       style="opacity:0.7;fill:none;stroke:none"
       d="m 1085.1099,128.6744 115.409,120.05189 -3.3164,57.04123 77.6026,78.92914 128.6744,-76.93933 -209.5933,-221.532216 z"
       id="input_boolean.office_mode"
       inkscape:label="input_boolean.office_mode" /></g><g
     inkscape:groupmode="layer"
     id="doors"
     inkscape:label="Doors"
     inkscape:highlight-color="#2173f3"
     style="display:inline"><path
       d="m 1671.2568,243.68826 -28.1771,153.65349 15.8496,14.08857 30.1584,-18.71139 19.3717,-114.24951 z"
       id="binary_sensor.contact_sensor_kid_balcony"
       inkscape:label="binary_sensor.contact_sensor_kid_balcony"
       style="fill:none;stroke:#000000;stroke-opacity:1" /><path
       d="m 1869.5338,425.49818 45.676,39.31132 -40.0601,153.87571 -46.7992,-40.80889 z"
       id="binary_sensor.contact_sensor_bedroom_balcony"
       inkscape:label="binary_sensor.contact_sensor_bedroom_balcony"
       style="fill:none;stroke:#000000;stroke-opacity:1" /><path
       d="m 1094.9607,1031.9257 75.9432,-35.01857 -5.1485,144.65537 -72.9245,32.4877 z"
       id="binary_sensor.contact_sensor_garden_door"
       inkscape:label="binary_sensor.contact_sensor_garden_door"
       style="fill:none;stroke:#000000;stroke-opacity:1" /><path
       d="m 522.12733,1013.5218 23.46268,124.914 73.69266,127.2273 -21.47993,-126.5663 z"
       id="binary_sensor.contact_sensor_terrace_door"
       inkscape:label="binary_sensor.contact_sensor_terrace_door"
       style="fill:none;stroke:#000000;stroke-opacity:1" /><path
       d="m 941.09979,212.14898 75.62951,-26.83629 2.6105,158.12346 -30.38599,10.07926 -2.96449,-60.62381 -33.20228,-39.13127 2.07514,54.10194 -10.82039,-14.37778 z"
       id="lock.nuki_neklanka_byt_lock"
       inkscape:label="lock.nuki_neklanka_byt_lock"
       style="opacity:1;fill:none;fill-opacity:1;stroke:#000000;stroke-opacity:1" /></g><g
     inkscape:groupmode="layer"
     id="cover"
     inkscape:label="Covers"
     inkscape:highlight-color="#21f34e"
     style="display:inline"><path
       d="m 422.76953,837.53022 183.23249,312.34468 19.17267,147.0713 -166.00136,-293.1719 z"
       id="cover.living_room_terrace"
       inkscape:label="cover.living_room_terrace" /><path
       d="m 956.78524,1089.8387 114.70126,-50.8215 0.353,101.2901 -111.9788,50.4349 z"
       id="cover.window"
       inkscape:label="cover.window" /><path
       d="m 1090.4828,1175.6537 1.4769,-144.9875 82.7093,-36.92378 -6.4001,150.89528 -77.7861,35.2006 z"
       id="cover.door"
       inkscape:label="cover.door" /><path
       d="m 1796.9874,721.15236 146.8022,-64.0548 -26.5506,94.77254 -142.516,63.4595 z"
       id="cover.bedroom_shutters"
       inkscape:label="cover.bedroom_shutters" /></g><g
     inkscape:groupmode="layer"
     id="icons"
     inkscape:label="Icons"
     style="display:inline"><path
       d="m 980.30269,236.1936 a 2.8507001,3.8340816 43.696356 0 0 3.29615,-4.27465 c -0.0327,-1.79755 -1.56948,-2.77267 -3.41506,-2.20297 a 2.8507001,3.8340816 43.696356 0 0 -3.29615,4.27467 2.8507001,3.8340816 43.696356 0 0 3.41506,2.20295 m 9.79933,-17.68218 a 2.8507001,3.8340816 43.696356 0 1 3.41506,2.20295 l 0.29718,16.19405 a 2.8507001,3.8340816 43.696356 0 1 -3.29615,4.27462 l -20.13382,6.21511 a 2.8507001,3.8340816 43.696356 0 1 -3.41506,-2.20293 l -0.29718,-16.19402 c -0.0327,-1.79753 1.45058,-3.70495 3.29615,-4.27467 l 1.67793,-0.51783 -0.0589,-3.23882 a 7.1267503,9.5852039 43.696356 0 1 8.24047,-10.68665 7.1267503,9.5852039 43.696356 0 1 8.53765,5.50736 l 0.0589,3.23883 1.67776,-0.51787 m -10.21542,-4.98943 a 4.2760501,5.7511224 43.696356 0 0 -4.94432,6.41196 l 0.0589,3.23881 10.0669,-3.10755 -0.0589,-3.2388 a 4.2760501,5.7511224 43.696356 0 0 -5.12259,-3.30442 z"
       id="icon-front-door"
       inkscape:transform-center-x="5.9506196"
       inkscape:transform-center-y="-2.6102727"
       style="stroke-width:1.65301" /><g
       id="icon-phone-rotate"
       transform="matrix(0,1.8897638,-1.8897638,0,161.05232,44.213269)"
       style="stroke-width:0.529167">
	<circle
   style="display:inline;opacity:0.2;fill:#ffffff;stroke-width:1.00157"
   id="path1065"
   cx="1811.4303"
   cy="-1392.1267"
   r="94.48819"
   transform="matrix(0.52916666,0,0,0.52916666,-929.76387,768.02646)" /><circle
   cx="4.5999999"
   cy="19"
   r="1"
   id="circle4153"
   style="stroke-width:0.529167" />
	<circle
   cx="11.8"
   cy="19"
   r="1"
   id="circle4155"
   style="stroke-width:0.529167" />
	<circle
   cx="8.1999998"
   cy="19"
   r="1"
   id="circle4157"
   style="stroke-width:0.529167" />
	<circle
   cx="15.399"
   cy="19"
   r="1"
   id="circle4159"
   style="stroke-width:0.529167" />
	<path
   d="M 1,20 C 1.27,20 1.52,19.89 1.71,19.71 1.89,19.52 2,19.26 2,19 2,18.74 1.89,18.48 1.71,18.29 1.34,17.92 0.66,17.92 0.29,18.29 0.109,18.48 0,18.73 0,19 0,19.27 0.109,19.52 0.29,19.71 0.479,19.89 0.729,20 1,20 Z"
   id="path4161"
   style="stroke-width:0.529167" />
	<path
   d="m 1,34.67 c 0.55,0 1,-0.45 1,-1 0,-0.56 -0.45,-1 -1,-1 -0.55,0 -1,0.44 -1,1 0,0.55 0.45,1 1,1 z"
   id="path4163"
   style="stroke-width:0.529167" />
	<path
   d="m 1,38.33 c 0.55,0 1,-0.44 1,-1 0,-0.55 -0.45,-1 -1,-1 -0.55,0 -1,0.45 -1,1 0,0.56 0.45,1 1,1 z"
   id="path4165"
   style="stroke-width:0.529167" />
	<path
   d="m 1,23.67 c 0.55,0 1,-0.45 1,-1 0,-0.56 -0.45,-1 -1,-1 -0.55,0 -1,0.44 -1,1 0,0.55 0.45,1 1,1 z"
   id="path4167"
   style="stroke-width:0.529167" />
	<circle
   cx="1"
   cy="30"
   r="1"
   id="circle4169"
   style="stroke-width:0.529167" />
	<path
   d="m 1,27.33 c 0.55,0 1,-0.44 1,-1 0,-0.55 -0.45,-1 -1,-1 -0.55,0 -1,0.45 -1,1 0,0.56 0.45,1 1,1 z"
   id="path4171"
   style="stroke-width:0.529167" />
	<path
   d="M 2,41 C 2,40.74 1.89,40.48 1.71,40.29 1.34,39.92 0.66,39.92 0.29,40.29 0.109,40.48 0,40.74 0,41 0,41.27 0.109,41.52 0.29,41.7 0.479,41.89 0.729,42 1,42 1.27,42 1.52,41.89 1.71,41.71 1.89,41.52 2,41.26 2,41 Z"
   id="path4173"
   style="stroke-width:0.529167" />
	<circle
   cx="11.8"
   cy="41"
   r="1"
   id="circle4175"
   style="stroke-width:0.529167" />
	<circle
   cx="8.1999998"
   cy="41"
   r="1"
   id="circle4177"
   style="stroke-width:0.529167" />
	<circle
   cx="15.399"
   cy="41"
   r="1"
   id="circle4179"
   style="stroke-width:0.529167" />
	<circle
   cx="4.5999999"
   cy="41"
   r="1"
   id="circle4181"
   style="stroke-width:0.529167" />
	<circle
   cx="46.25"
   cy="41"
   r="1"
   id="circle4183"
   style="stroke-width:0.529167" />
	<circle
   cx="54.75"
   cy="41"
   r="1"
   id="circle4185"
   style="stroke-width:0.529167" />
	<circle
   cx="50.5"
   cy="41"
   r="1"
   id="circle4187"
   style="stroke-width:0.529167" />
	<path
   d="M 58.29,40.29 C 58.109,40.48 58,40.74 58,41 c 0,0.26 0.109,0.52 0.29,0.71 0.189,0.18 0.45,0.29 0.71,0.29 0.27,0 0.52,-0.11 0.71,-0.29 C 59.89,41.52 60,41.26 60,41 c 0,-0.26 -0.11,-0.52 -0.29,-0.71 -0.37,-0.37 -1.05,-0.37 -1.42,0 z"
   id="path4189"
   style="stroke-width:0.529167" />
	<path
   d="m 59,32.67 c -0.55,0 -1,0.44 -1,1 0,0.55 0.45,1 1,1 0.55,0 1,-0.45 1,-1 0,-0.56 -0.45,-1 -1,-1 z"
   id="path4191"
   style="stroke-width:0.529167" />
	<circle
   cx="59"
   cy="30"
   r="1"
   id="circle4193"
   style="stroke-width:0.529167" />
	<path
   d="m 59,21.67 c -0.55,0 -1,0.44 -1,1 0,0.55 0.45,1 1,1 0.55,0 1,-0.45 1,-1 0,-0.56 -0.45,-1 -1,-1 z"
   id="path4195"
   style="stroke-width:0.529167" />
	<path
   d="m 59,25.33 c -0.55,0 -1,0.45 -1,1 0,0.56 0.45,1 1,1 0.55,0 1,-0.44 1,-1 0,-0.55 -0.45,-1 -1,-1 z"
   id="path4197"
   style="stroke-width:0.529167" />
	<path
   d="m 59,36.33 c -0.55,0 -1,0.45 -1,1 0,0.56 0.45,1 1,1 0.55,0 1,-0.44 1,-1 0,-0.55 -0.45,-1 -1,-1 z"
   id="path4199"
   style="stroke-width:0.529167" />
	<path
   d="M 58.29,18.29 C 58.109,18.48 58,18.74 58,19 c 0,0.26 0.109,0.52 0.29,0.71 0.189,0.18 0.45,0.29 0.71,0.29 0.26,0 0.52,-0.11 0.71,-0.29 C 59.89,19.52 60,19.26 60,19 c 0,-0.26 -0.11,-0.52 -0.29,-0.71 -0.38,-0.37 -1.04,-0.37 -1.42,0 z"
   id="path4201"
   style="stroke-width:0.529167" />
	<circle
   cx="46.25"
   cy="19"
   r="1"
   id="circle4203"
   style="stroke-width:0.529167" />
	<circle
   cx="50.5"
   cy="19"
   r="1"
   id="circle4205"
   style="stroke-width:0.529167" />
	<circle
   cx="54.75"
   cy="19"
   r="1"
   id="circle4207"
   style="stroke-width:0.529167" />
	<path
   d="m 54,14 v 0 l -2.4,-1.8 c -0.44,-0.333 -1.068,-0.242 -1.399,0.2 -0.332,0.442 -0.242,1.069 0.2,1.4 l 4,3 c 0.019,0.014 0.042,0.019 0.062,0.032 0.031,0.02 0.057,0.046 0.091,0.063 0.017,0.008 0.036,0.005 0.052,0.012 0.126,0.055 0.258,0.093 0.393,0.093 0,0 0,0 0,0 v 0 c 0.134,0 0.264,-0.037 0.389,-0.09 0.035,-0.015 0.066,-0.033 0.1,-0.052 0.036,-0.021 0.077,-0.032 0.111,-0.058 l 4,-3 c 0.442,-0.331 0.532,-0.958 0.2,-1.4 C 59.468,11.958 58.841,11.867 58.4,12.2 L 56,14 C 56,6.618 50.253,0.567 43,0.051 V 0 H 18 V 57.949 C 11.85,57.438 7,52.279 7,46 v 0 l 2.4,1.8 c 0.18,0.135 0.39,0.2 0.599,0.2 0.305,0 0.604,-0.138 0.801,-0.4 0.332,-0.442 0.242,-1.069 -0.2,-1.4 l -4,-3 C 6.585,43.189 6.567,43.187 6.552,43.177 6.517,43.153 6.486,43.125 6.448,43.105 6.399,43.081 6.346,43.07 6.295,43.054 6.268,43.046 6.243,43.034 6.216,43.028 6.106,43.004 5.994,42.998 5.883,43.011 5.856,43.014 5.832,43.024 5.805,43.029 5.717,43.047 5.634,43.076 5.553,43.117 5.522,43.132 5.494,43.147 5.465,43.166 5.443,43.179 5.42,43.186 5.4,43.2 l -4,3 c -0.442,0.331 -0.532,0.958 -0.2,1.4 0.331,0.441 0.957,0.532 1.399,0.2 L 5,46 c 0,7.382 5.747,13.433 13,13.949 V 60 H 43 V 2.051 C 49.15,2.562 54,7.721 54,14 Z"
   id="path4209"
   style="stroke-width:0.529167" />
</g></g><g
     inkscape:groupmode="layer"
     id="temphumid"
     inkscape:label="Temp humid"
     style="display:inline"><text
       xml:space="preserve"
       style="font-style:normal;font-variant:normal;font-weight:500;font-stretch:normal;font-size:45.2876px;font-family:Futura;-inkscape-font-specification:'Futura, Medium';font-variant-ligatures:normal;font-variant-caps:normal;font-variant-numeric:normal;font-variant-east-asian:normal;opacity:0.370787;fill:#ffffff;fill-opacity:1;stroke:none;stroke-width:2.42992;stroke-opacity:1"
       x="804.78418"
       y="1310.4199"
       id="sensor.bedroom_tem_humid_temperature"
       inkscape:label="bedroom temp"
       transform="matrix(0.96953239,-0.41333866,0.60870589,0.77191679,0,0)"><tspan
         sodipodi:role="line"
         x="804.78418"
         y="1310.4199"
         id="tspan974"
         style="fill:#ffffff;fill-opacity:1;stroke:none;stroke-width:2.42992;stroke-opacity:1"
         transform="matrix(0.92917162,0.12621746,-0.03974616,1.0708284,129.58518,-230.92313)">21.6°C</tspan></text><text
       xml:space="preserve"
       style="font-style:normal;font-variant:normal;font-weight:500;font-stretch:normal;font-size:45.2876px;font-family:Futura;-inkscape-font-specification:'Futura, Medium';font-variant-ligatures:normal;font-variant-caps:normal;font-variant-numeric:normal;font-variant-east-asian:normal;opacity:0.370787;fill:#ffffff;fill-opacity:1;stroke:none;stroke-width:2.42992;stroke-opacity:1"
       x="800.21753"
       y="1389.2035"
       id="sensor.bedroom_tem_humid_humidity"
       inkscape:label="bedroom humid"
       transform="matrix(0.9572234,-0.43692139,0.63068916,0.75681227,0,0)"><tspan
         sodipodi:role="line"
         x="800.21753"
         y="1389.2035"
         id="tspan12129"
         style="fill:#ffffff;fill-opacity:1;stroke:none;stroke-width:2.42992;stroke-opacity:1"
         transform="matrix(0.92917162,0.12621746,-0.03974616,1.0708284,129.58518,-230.92313)">42%</tspan></text><text
       xml:space="preserve"
       style="font-style:normal;font-variant:normal;font-weight:500;font-stretch:normal;font-size:63.1907px;font-family:Futura;-inkscape-font-specification:'Futura, Medium';font-variant-ligatures:normal;font-variant-caps:normal;font-variant-numeric:normal;font-variant-east-asian:normal;opacity:0.370787;fill:#ffffff;fill-opacity:1;stroke:none;stroke-width:3.39052;stroke-opacity:1"
       x="-266.81326"
       y="1320.8673"
       id="sensor.dyson_ph04_temperature"
       inkscape:label="living temp"
       transform="matrix(1.0037073,-0.4096423,0.6528259,0.72986903,0,0)"
       inkscape:transform-center-x="-78.433188"
       inkscape:transform-center-y="25.516524"><tspan
         sodipodi:role="line"
         x="-266.81326"
         y="1320.8673"
         id="tspan12704"
         style="fill:#ffffff;fill-opacity:1;stroke:none;stroke-width:3.39052;stroke-opacity:1"
         transform="matrix(0.92917162,0.12621746,-0.03974616,1.0708284,129.58518,-230.92313)">21.6°C</tspan></text><text
       xml:space="preserve"
       style="font-style:normal;font-variant:normal;font-weight:500;font-stretch:normal;font-size:52.1775px;font-family:Futura;-inkscape-font-specification:'Futura, Medium';font-variant-ligatures:normal;font-variant-caps:normal;font-variant-numeric:normal;font-variant-east-asian:normal;opacity:0.370787;fill:#ffffff;fill-opacity:1;stroke:none;stroke-width:2.79961;stroke-opacity:1"
       x="-53.306683"
       y="1197.0211"
       id="sensor.dyson_ph04_humidity"
       inkscape:label="living humid"
       transform="matrix(1.0122098,-0.41318647,0.66691812,0.7156999,0,0)"><tspan
         sodipodi:role="line"
         x="-53.306683"
         y="1197.0211"
         id="tspan12708"
         style="fill:#ffffff;fill-opacity:1;stroke:none;stroke-width:2.79961;stroke-opacity:1"
         transform="matrix(0.92917162,0.12621746,-0.03974616,1.0708284,129.58518,-230.92313)">42%</tspan></text><text
       xml:space="preserve"
       style="font-style:normal;font-variant:normal;font-weight:500;font-stretch:normal;font-size:38.5458px;font-family:Futura;-inkscape-font-specification:'Futura, Medium';font-variant-ligatures:normal;font-variant-caps:normal;font-variant-numeric:normal;font-variant-east-asian:normal;opacity:0.370787;fill:#ffffff;fill-opacity:1;stroke:none;stroke-width:2.79961;stroke-opacity:1"
       x="1118.0494"
       y="-652.12787"
       id="sensor.kids_room_temp_humid_humidity"
       inkscape:label="kids humid"
       transform="matrix(0.80108614,0.70665076,-0.80468743,0.5384777,0,0)"><tspan
         sodipodi:role="line"
         x="1118.0494"
         y="-652.12787"
         id="tspan15133"
         style="fill:#ffffff;fill-opacity:1;stroke:none;stroke-width:2.79961;stroke-opacity:1"
         transform="matrix(0.92917162,0.12621746,-0.03974616,1.0708284,129.58518,-230.92313)">42%</tspan></text><text
       xml:space="preserve"
       style="font-style:normal;font-variant:normal;font-weight:500;font-stretch:normal;font-size:31.9494px;font-family:Futura;-inkscape-font-specification:'Futura, Medium';font-variant-ligatures:normal;font-variant-caps:normal;font-variant-numeric:normal;font-variant-east-asian:normal;opacity:0.370787;fill:#ffffff;fill-opacity:1;stroke:none;stroke-width:3.39052;stroke-opacity:1"
       x="1246.2321"
       y="-615.4505"
       id="sensor.kids_room_temp_humid_temperature"
       inkscape:label="kids temp"
       transform="matrix(0.55239551,0.63776375,-1.0972449,0.54348194,0,0)"
       inkscape:transform-center-x="20.689404"
       inkscape:transform-center-y="28.977727"><tspan
         sodipodi:role="line"
         x="1246.2321"
         y="-615.4505"
         id="tspan15137"
         style="fill:#ffffff;fill-opacity:1;stroke:none;stroke-width:3.39052;stroke-opacity:1"
         transform="matrix(0.92917162,0.12621746,-0.03974616,1.0708284,129.58518,-230.92313)">21.6°C</tspan></text><text
       xml:space="preserve"
       style="font-style:normal;font-variant:normal;font-weight:500;font-stretch:normal;font-size:33.3221px;font-family:Futura;-inkscape-font-specification:'Futura, Medium';font-variant-ligatures:normal;font-variant-caps:normal;font-variant-numeric:normal;font-variant-east-asian:normal;opacity:0.370787;fill:#ffffff;fill-opacity:1;stroke:none;stroke-width:3.39052;stroke-opacity:1"
       x="1645.6859"
       y="746.06305"
       id="sensor.office_temp_humid_sensor_temperature"
       inkscape:label="office temp"
       transform="matrix(0.77379696,-0.36963499,0.07540223,1.2563098,0,0)"
       inkscape:transform-center-x="-7.0114541"
       inkscape:transform-center-y="20.169561"><tspan
         sodipodi:role="line"
         x="1645.6859"
         y="746.06305"
         id="tspan15180"
         style="fill:#ffffff;fill-opacity:1;stroke:none;stroke-width:3.39052;stroke-opacity:1"
         transform="matrix(0.92917162,0.12621746,-0.03974616,1.0708284,129.58518,-230.92313)">21.6°C</tspan></text><text
       xml:space="preserve"
       style="font-style:normal;font-variant:normal;font-weight:500;font-stretch:normal;font-size:33.3221px;font-family:Futura;-inkscape-font-specification:'Futura, Medium';font-variant-ligatures:normal;font-variant-caps:normal;font-variant-numeric:normal;font-variant-east-asian:normal;opacity:0.370787;fill:#ffffff;fill-opacity:1;stroke:none;stroke-width:3.39052;stroke-opacity:1"
       x="1636.1931"
       y="704.51703"
       id="sensor.office_temp_humid_sensor_humidity"
       inkscape:label="office humid"
       transform="matrix(0.77379696,-0.36963499,0.07540223,1.2563098,0,0)"
       inkscape:transform-center-x="3.4667067"
       inkscape:transform-center-y="-28.516242"><tspan
         sodipodi:role="line"
         x="1636.1931"
         y="704.51703"
         id="tspan15184"
         style="fill:#ffffff;fill-opacity:1;stroke:none;stroke-width:3.39052;stroke-opacity:1"
         transform="matrix(0.92917162,0.12621746,-0.03974616,1.0708284,129.58518,-230.92313)">21.6°C</tspan></text><text
       xml:space="preserve"
       style="font-style:normal;font-variant:normal;font-weight:500;font-stretch:normal;font-size:31.9494px;font-family:Futura;-inkscape-font-specification:'Futura, Medium';font-variant-ligatures:normal;font-variant-caps:normal;font-variant-numeric:normal;font-variant-east-asian:normal;opacity:0.370787;fill:#ffffff;fill-opacity:1;stroke:none;stroke-width:3.39052;stroke-opacity:1"
       x="1114.4769"
       y="686.36176"
       id="sensor.bathroom_temp_humid_temperature"
       inkscape:label="bathroom temp"
       transform="matrix(0.82917812,-0.30821279,-0.00191143,1.206724,0,0)"
       inkscape:transform-center-x="-16.861535"
       inkscape:transform-center-y="28.860245"><tspan
         sodipodi:role="line"
         x="1114.4769"
         y="686.36176"
         id="tspan15188"
         style="fill:#ffffff;fill-opacity:1;stroke:none;stroke-width:3.39052;stroke-opacity:1"
         transform="matrix(0.92917162,0.12621746,-0.03974616,1.0708284,129.58518,-230.92313)">21.6°C</tspan></text><text
       xml:space="preserve"
       style="font-style:normal;font-variant:normal;font-weight:500;font-stretch:normal;font-size:31.9494px;font-family:Futura;-inkscape-font-specification:'Futura, Medium';font-variant-ligatures:normal;font-variant-caps:normal;font-variant-numeric:normal;font-variant-east-asian:normal;opacity:0.370787;fill:#ffffff;fill-opacity:1;stroke:none;stroke-width:3.39052;stroke-opacity:1"
       x="1145.9707"
       y="783.6283"
       id="sensor.bathroom_temp_humid_humidity"
       inkscape:label="bathroom humid"
       transform="matrix(0.82917812,-0.30821279,-0.00191143,1.206724,0,0)"
       inkscape:transform-center-x="-16.861535"
       inkscape:transform-center-y="28.860245"><tspan
         sodipodi:role="line"
         x="1145.9707"
         y="783.6283"
         id="tspan15192"
         style="fill:#ffffff;fill-opacity:1;stroke:none;stroke-width:3.39052;stroke-opacity:1"
         transform="matrix(0.92917162,0.12621746,-0.03974616,1.0708284,129.58518,-230.92313)">21.6°C</tspan></text></g><g
     inkscape:groupmode="layer"
     id="motions"
     inkscape:label="Motion Sensors"
     style="display:inline"
     transform="rotate(-13.045615,1123.1411,506.49922)"><g
       inkscape:groupmode="layer"
       id="binary_sensor.motion_sensor_entrance"
       inkscape:label="binary_sensor.motion_sensor_entrance"
       transform="matrix(1.5177905,6.9713564,-6.8628438,3.5530245,8263.5559,-11081.868)"
       style="display:inline"><path
         d="m 978.88407,1249.0082 h -2 a 5,5 0 0 1 -5,5 v 2 a 7,7 0 0 0 7,-7"
         id="path6789" /><path
         d="m 982.88407,1249.0082 h -2 a 9,9 0 0 1 -9,9 v 2 c 6.08,0 11,-4.93 11,-11"
         id="path6787" /><path
         d="m 974.88407,1249.0082 h -3 v 3 a 3,3 0 0 0 3,-3"
         id="path6201" /></g><g
       inkscape:groupmode="layer"
       id="binary_sensor.motion_sensor_kidsroom"
       inkscape:label="binary_sensor.motion_sensor_kidsroom"
       transform="matrix(7.8029663,1.662625,-0.08157222,6.8051624,-6742.9198,-9951.5791)"
       style="display:inline"><path
         d="m 978.88407,1249.0082 h -2 a 5,5 0 0 1 -5,5 v 2 a 7,7 0 0 0 7,-7"
         id="path2697" /><path
         d="m 982.88407,1249.0082 h -2 a 9,9 0 0 1 -9,9 v 2 c 6.08,0 11,-4.93 11,-11"
         id="path2699" /><path
         d="m 974.88407,1249.0082 h -3 v 3 a 3,3 0 0 0 3,-3"
         id="path2701" /></g><g
       inkscape:groupmode="layer"
       id="binary_sensor.motion_sensor_bathroom"
       inkscape:label="binary_sensor.motion_sensor_bathroom"
       transform="matrix(7.9410208,-0.82355689,1.8653231,6.5104825,-9244.6585,-6935.6644)"
       style="display:inline"><path
         d="m 978.88407,1249.0082 h -2 a 5,5 0 0 1 -5,5 v 2 a 7,7 0 0 0 7,-7"
         id="path2689" /><path
         d="m 982.88407,1249.0082 h -2 a 9,9 0 0 1 -9,9 v 2 c 6.08,0 11,-4.93 11,-11"
         id="path2691" /><path
         d="m 974.88407,1249.0082 h -3 v 3 a 3,3 0 0 0 3,-3"
         id="path2693" /></g><g
       inkscape:groupmode="layer"
       id="binary_sensor.motion_sensor_hallway_occupancy"
       inkscape:label="binary_sensor.motion_sensor_hallway_occupancy"
       transform="matrix(7.6071668,-2.4226163,3.1514065,5.994535,-10185.409,-4609.8911)"
       style="display:inline"><path
         d="m 978.88407,1249.0082 h -2 a 5,5 0 0 1 -5,5 v 2 a 7,7 0 0 0 7,-7"
         id="path2681" /><path
         d="m 982.88407,1249.0082 h -2 a 9,9 0 0 1 -9,9 v 2 c 6.08,0 11,-4.93 11,-11"
         id="path2683" /><path
         d="m 974.88407,1249.0082 h -3 v 3 a 3,3 0 0 0 3,-3"
         id="path2685" /></g></g></svg>
