<svg id="svg2237" width="2199px" height="1705px" version="1.1" viewBox="0 0 2199 1705" xml:space="preserve" xmlns="http://www.w3.org/2000/svg" xmlns:xlink="http://www.w3.org/1999/xlink"><g id="background"><image id="bellow_horizon" width="2199" height="1705" href="/local/hafloor/bg_bellow_horizon.png" preserveAspectRatio="none" xlink:href="file:///Users/vietngoc/Documents/Floorplan%20Final/floorplan%204/final/bg_bellow_horizon.png"/><image id="above_horizon" width="2199" height="1705" href="/local/hafloor/bg_above_horizon.png" preserveAspectRatio="none" xlink:href="file:///Users/vietngoc/Documents/Floorplan%20Final/floorplan%204/final/bg_above_horizon.png"/><g id="light-overlays"><image id="light_overlay.living_room_floor_lamp" width="2199" height="1705" href="/local/hafloor/bg_living_lamp.png" preserveAspectRatio="none" xlink:href="file:///Users/vietngoc/Documents/Floorplan%20Final/floorplan%204/final/bg_living_lamp.png"/><image id="light_overlay.shelly_rgbw_kitchen_led_strip" width="2199.5" height="1705.4" href="/local/hafloor/bg_living_main.png" preserveAspectRatio="none" xlink:href="file:///Users/vietngoc/Documents/Floorplan%20Final/floorplan%204/final/bg_living_main.png"/><image id="light_overlay.kitchen_table_light" width="2199" height="1705" href="/local/hafloor/bg_kitchen_table.png" preserveAspectRatio="none" xlink:href="file:///Users/vietngoc/Documents/Floorplan%20Final/floorplan%204/final/bg_kitchen_table.png"/><image id="light_overlay.kitchen_main_light" width="2199" height="1705" href="/local/hafloor/bg_kitchen_main.png" preserveAspectRatio="none" xlink:href="file:///Users/vietngoc/Documents/Floorplan%20Final/floorplan%204/final/bg_kitchen_main.png"/><image id="light_overlay.bathroom_group" width="2199" height="1705" href="/local/hafloor/bg_bathroom.png" preserveAspectRatio="none" xlink:href="file:///Users/vietngoc/Documents/Floorplan%20Final/floorplan%204/final/bg_bathroom.png"/><image id="light_overlay.utility_room_light" width="2199" height="1705" href="/local/hafloor/bg_utility.png" preserveAspectRatio="none" xlink:href="file:///Users/vietngoc/Documents/Floorplan%20Final/floorplan%204/final/bg_utility.png"/><image id="light_overlay.hallway_group" width="2199" height="1705" href="/local/hafloor/bg_hallway.png" preserveAspectRatio="none" xlink:href="file:///Users/vietngoc/Documents/Floorplan%20Final/floorplan%204/final/bg_hallway.png"/><image id="light_overlay.office_led_light_strip" width="2199" height="1705" href="/local/hafloor/bg_office_table.png" preserveAspectRatio="none" xlink:href="file:///Users/vietngoc/Documents/Floorplan%20Final/floorplan%204/final/bg_office_table.png"/><image id="light_overlay.office_lamp_bulb" width="2199" height="1705" href="/local/hafloor/bg_office_lamp.png" preserveAspectRatio="none" xlink:href="file:///Users/vietngoc/Documents/Floorplan%20Final/floorplan%204/final/bg_office_lamp.png"/><image id="light_overlay.vanesska_ceiling_light" width="2199" height="1705" href="/local/hafloor/bg_kidsroom.png" preserveAspectRatio="none" xlink:href="file:///Users/vietngoc/Documents/Floorplan%20Final/floorplan%204/final/bg_kidsroom.png"/><image id="light_overlay.bedroom_closet_light" width="2199" height="1705" href="/local/hafloor/bg_bedroom_closet.png" preserveAspectRatio="none" xlink:href="file:///Users/vietngoc/Documents/Floorplan%20Final/floorplan%204/final/bg_bedroom_closet.png"/><image id="light_overlay.shower_room_mirror_light" width="2199" height="1705" href="/local/hafloor/bg_shower.png" preserveAspectRatio="none" xlink:href="file:///Users/vietngoc/Documents/Floorplan%20Final/floorplan%204/final/bg_shower.png"/><image id="light_overlay.bed_light" width="2199" height="1705" href="/local/hafloor/bg_bedroom_main.png" preserveAspectRatio="none" xlink:href="file:///Users/vietngoc/Documents/Floorplan%20Final/floorplan%204/final/bg_bedroom_main.png"/></g><g id="tv_overlays"><image id="media_player_overlay.living_room_tv" width="2199" height="1705" href="/local/hafloor/bg_atv_idle.png" preserveAspectRatio="none" xlink:href="file:///Users/vietngoc/Documents/Floorplan%20Final/floorplan%204/final/bg_atv_idle.png"/></g></g><g id="areas" stroke-width="0"><g id="area.living_room"><path id="path1190" d="m696.01 1265.1 367.84-166.61-224.31-313.02-331.06 136.32z" fill="none"/><use id="light.shelly_rgbw_kitchen_led_strip" href="#path1190"/></g><g id="area.kitchen"><path id="path1435" d="m839.46 785.6 54.644-127.77 229.4-88.961 11.879 13.727 6.3355-2.6398 1.3199-66.523 50.156 58.34-1.8478 21.646 34.845-14.519 228.61 266.36-12.143 93.977-252.63 108.23-126.71 50.948z" fill="none"/><use id="light.kitchen_main_light" href="#path1435"/></g><g id="area.bathroom"><path id="path1476" d="m900.33 655.39-117.45-156.1 4.0168-2.8118-3.2135-38.562 86.624-18.976-1.242-39.746 25.835 33.163 132.53-30.43 56.57 67.009 0.4217-65.575 36.689 42.592-0.2109 66.841 32.682 43.436-29.941 12.651z" fill="none"/><use id="light.bathroom_group" href="#path1476"/></g><g id="area.utility"><path id="path1481" d="m782.9 499.3-107.54-142.54-10.964-101.63 104.16-36.056 9.2776 9.4884 132.63-47.864 30.995 32.682 3.3737 98.047 7.8016 11.808 2.952-2.3194-2.5302-66.419 33.315 38.586 2.952 66.63 38.375 42.171-133.05 30.785-25.935-33.526 1.476 39.851-86.45 19.399 3.1628 38.375z" fill="none"/><use id="light.utility_room_light" href="#path1481"/></g><g id="area.hallway"><path id="path1523" d="m910 181.02 170.78-54.06 116.31 120-1.2286 84.366 17.61 15.563-3.6859 74.946 22.115 25.392 4.9145-67.165 45.05 50.374-4.5049 68.394 11.467 13.515-15.563 9.0099 27.03 29.487-74.178 28.681-34.295 14.018 1.502-21.278-50.316-58.327-0.5007 27.787-21.278-28.788 0.2504-67.339-37.299-42.806-0.2504 66.588-94.875-109.9-3.004-66.838-32.793-38.301 2.5033 66.338-3.004 2.5033-8.0106-11.766-3.2543-98.38z" fill="none"/><use id="light.hallway_group" href="#path1523"/></g><g id="area.office"><path id="path1567" d="m1081.1 126.98 357.67-121.42 182.12 168.46-410.27 248.9 2.7474-76.032-17.111-15.556 0.6222-85.244z" fill="none"/><use id="light.office_led_light_strip" href="#path1567"/><use id="light.officelamp" href="#path1567"/></g><g id="area.kidsroom"><path id="path1633" d="m1620.8 173.95 175.68 161.53-82.641 39.876-2.0226 12.714-369 217.01-42.765-55.19-26.716-28.841 15.376-8.6488-10.955-13.261 4.2283-69.19-45.166-50.163-4.9971 67.268-21.334-24.409z" fill="none"/><use id="light.vanesska_ceiling_light" href="#path1633"/></g><g id="area.bedroom"><path id="path1724" d="m1795.7 335.2 273.5 244.81-102.96 62.048-180.75 77.785-13.489 55.754-116.45 72.39 13.938-73.289-38.218-31.474-35.52-32.823-0.8992 2.6978-82.281-68.793-5.3956 1.7985-0.65-2.9662-3.0905-5.851c-2.8045-3.4016-6.4581-5.6182-11.361-7.2604-4.4539-0.27445-11.487-0.46021-18.211 1.2061-5.2414 1.2988-11.732 4.3042-16.409 7.2343-22.618 14.171-25.366 20.227-25.366 20.227l-64.296 8.9925 0.8992-16.636-36.42-41.366 10.791-4.9459 368.69-217.17 1.7985-11.69z" fill="none"/><path id="path981" d="m1338.3 616.86 128.06-75.755 50.503 104.61-9.6884 0.43638s0.4857-4.2494-2.7924-8.4988c-3.2782-4.2494-8.4989-6.6777-8.4989-6.6777s-3.0353-1.6998-12.384-1.5784c-9.3488 0.12141-21.976 6.192-21.976 6.192s-8.9845 4.9779-11.777 7.0419c-2.7925 2.064-5.0993 3.8852-7.7704 5.8278-2.6711 1.9426-1.3355 0.48565-4.2494 3.0353-2.9139 2.5496-5.0993 4.6137-5.7064 5.7064s-1.6998 1.2141-1.6998 1.2141l-62.406 8.7417 0.4857-16.148z" fill="none"/><use id="light.bed_light" href="#path1724"/><use id="light.bedroom_closet_light" href="#path981"/></g><g id="area.shower"><path id="path1774" d="m1368 667.6-58.552 8.2407 145.64 170.2-12.438 93.526 213.36-91.374 13.156-73.194-38.272-32.292-35.162-32.292-0.7176 2.8704-82.045-68.65-5.9799 1.9136-0.4873-3.1617s-0.1232-2.4642-2.9569-5.7908c-2.8338-3.3266-8.1317-7.146-11.828-7.3924-3.6962-0.24642-11.828-0.36963-15.524 0.61603-3.6962 0.98567-14.415 5.1747-16.017 6.2836s-13.06 7.6389-16.263 10.349c-3.2034 2.7106-7.2692 5.7908-9.7334 8.6245-2.4641 2.8338-2.5873 2.957-2.5873 2.957z" fill="none"/><use id="light.shower_room_mirror_light" href="#path1774"/></g></g><g id="entities" fill="none"><ellipse id="light.living_room_floor_lamp" cx="685.37" cy="1157.7" rx="22.85" ry="20.044" stroke="#000"/><path id="media_player.living_room_tv" d="m529.76 732.02 246.41-95.807 9.706 90.485-239.52 94.868z" stroke-width="0"/><path id="media_player.bedroom_tv" d="m1565.6 481.24-9.7057 66.053 121.59-50.146 11.323-65.783z" stroke-width="0"/><ellipse id="light.office_lamp_bulb" cx="1500.3" cy="204.98" rx="15.157" ry="12.035" stroke="#000"/><path id="light.kitchen_table_light" d="m966.08 817.65 83.652-35.025 92.664 121.23-44.717 19.043v23.634l-29.924 12.412z" stroke="#fff"/><path id="input_boolean.office_mode" d="m1085.1 128.67 115.41 120.05-3.3164 57.041 77.603 78.929 128.67-76.939-209.59-221.53z" opacity=".7"/></g><g id="doors" fill="none" stroke="#000"><path id="binary_sensor.contact_sensor_kid_balcony" d="m1671.3 243.69-28.177 153.65 15.85 14.089 30.158-18.711 19.372-114.25z"/><path id="binary_sensor.contact_sensor_bedroom_balcony" d="m1869.5 425.5 45.676 39.311-40.06 153.88-46.799-40.809z"/><path id="binary_sensor.contact_sensor_garden_door" d="m1095 1031.9 75.943-35.019-5.1485 144.66-72.924 32.488z"/><path id="binary_sensor.contact_sensor_terrace_door" d="m522.13 1013.5 23.463 124.91 73.693 127.23-21.48-126.57z"/><path id="lock.nuki_neklanka_byt_lock" d="m941.1 212.15 75.63-26.836 2.6105 158.12-30.386 10.079-2.9645-60.624-33.202-39.131 2.0751 54.102-10.82-14.378z"/></g><g id="cover"><path id="cover.living_room_terrace" d="m422.77 837.53 183.23 312.34 19.173 147.07-166-293.17z"/><path id="cover.window" d="m956.79 1089.8 114.7-50.822 0.353 101.29-111.98 50.435z"/><path id="cover.door" d="m1090.5 1175.7 1.4769-144.99 82.709-36.924-6.4001 150.9-77.786 35.201z"/><path id="cover.bedroom_shutters" d="m1797 721.15 146.8-64.055-26.551 94.773-142.52 63.46z"/></g><g id="icons"><path id="icon-front-door" d="m980.3 236.19a2.8507 3.8341 43.696 0 0 3.2962-4.2746c-0.0327-1.7976-1.5695-2.7727-3.4151-2.203a2.8507 3.8341 43.696 0 0-3.2962 4.2747 2.8507 3.8341 43.696 0 0 3.4151 2.203m9.7993-17.682a2.8507 3.8341 43.696 0 1 3.4151 2.203l0.29718 16.194a2.8507 3.8341 43.696 0 1-3.2962 4.2746l-20.134 6.2151a2.8507 3.8341 43.696 0 1-3.4151-2.2029l-0.29718-16.194c-0.0327-1.7975 1.4506-3.705 3.2962-4.2747l1.6779-0.51783-0.0589-3.2388a7.1268 9.5852 43.696 0 1 8.2405-10.687 7.1268 9.5852 43.696 0 1 8.5376 5.5074l0.0589 3.2388 1.6778-0.51787m-10.215-4.9894a4.2761 5.7511 43.696 0 0-4.9443 6.412l0.0589 3.2388 10.067-3.1076-0.0589-3.2388a4.2761 5.7511 43.696 0 0-5.1226-3.3044z" stroke-width="1.653"/><g id="icon-phone-rotate" transform="matrix(0 1.8898 -1.8898 0 161.05 44.213)">
	<circle id="path1065" transform="matrix(.52917 0 0 .52917 -929.76 768.03)" cx="1811.4" cy="-1392.1" r="94.488" fill="#fff" opacity=".2" stroke-width="1.0016"/><circle id="circle4153" cx="4.6" cy="19" r="1" stroke-width=".52917"/>
	<circle id="circle4155" cx="11.8" cy="19" r="1" stroke-width=".52917"/>
	<circle id="circle4157" cx="8.2" cy="19" r="1" stroke-width=".52917"/>
	<circle id="circle4159" cx="15.399" cy="19" r="1" stroke-width=".52917"/>
	<path id="path4161" d="m1 20c0.27 0 0.52-0.11 0.71-0.29 0.18-0.19 0.29-0.45 0.29-0.71s-0.11-0.52-0.29-0.71c-0.37-0.37-1.05-0.37-1.42 0-0.181 0.19-0.29 0.44-0.29 0.71s0.109 0.52 0.29 0.71c0.189 0.18 0.439 0.29 0.71 0.29z" stroke-width=".52917"/>
	<path id="path4163" d="m1 34.67c0.55 0 1-0.45 1-1 0-0.56-0.45-1-1-1s-1 0.44-1 1c0 0.55 0.45 1 1 1z" stroke-width=".52917"/>
	<path id="path4165" d="m1 38.33c0.55 0 1-0.44 1-1 0-0.55-0.45-1-1-1s-1 0.45-1 1c0 0.56 0.45 1 1 1z" stroke-width=".52917"/>
	<path id="path4167" d="m1 23.67c0.55 0 1-0.45 1-1 0-0.56-0.45-1-1-1s-1 0.44-1 1c0 0.55 0.45 1 1 1z" stroke-width=".52917"/>
	<circle id="circle4169" cx="1" cy="30" r="1" stroke-width=".52917"/>
	<path id="path4171" d="m1 27.33c0.55 0 1-0.44 1-1 0-0.55-0.45-1-1-1s-1 0.45-1 1c0 0.56 0.45 1 1 1z" stroke-width=".52917"/>
	<path id="path4173" d="m2 41c0-0.26-0.11-0.52-0.29-0.71-0.37-0.37-1.05-0.37-1.42 0-0.181 0.19-0.29 0.45-0.29 0.71 0 0.27 0.109 0.52 0.29 0.7 0.189 0.19 0.439 0.3 0.71 0.3 0.27 0 0.52-0.11 0.71-0.29 0.18-0.19 0.29-0.45 0.29-0.71z" stroke-width=".52917"/>
	<circle id="circle4175" cx="11.8" cy="41" r="1" stroke-width=".52917"/>
	<circle id="circle4177" cx="8.2" cy="41" r="1" stroke-width=".52917"/>
	<circle id="circle4179" cx="15.399" cy="41" r="1" stroke-width=".52917"/>
	<circle id="circle4181" cx="4.6" cy="41" r="1" stroke-width=".52917"/>
	<circle id="circle4183" cx="46.25" cy="41" r="1" stroke-width=".52917"/>
	<circle id="circle4185" cx="54.75" cy="41" r="1" stroke-width=".52917"/>
	<circle id="circle4187" cx="50.5" cy="41" r="1" stroke-width=".52917"/>
	<path id="path4189" d="m58.29 40.29c-0.181 0.19-0.29 0.45-0.29 0.71s0.109 0.52 0.29 0.71c0.189 0.18 0.45 0.29 0.71 0.29 0.27 0 0.52-0.11 0.71-0.29 0.18-0.19 0.29-0.45 0.29-0.71s-0.11-0.52-0.29-0.71c-0.37-0.37-1.05-0.37-1.42 0z" stroke-width=".52917"/>
	<path id="path4191" d="m59 32.67c-0.55 0-1 0.44-1 1 0 0.55 0.45 1 1 1s1-0.45 1-1c0-0.56-0.45-1-1-1z" stroke-width=".52917"/>
	<circle id="circle4193" cx="59" cy="30" r="1" stroke-width=".52917"/>
	<path id="path4195" d="m59 21.67c-0.55 0-1 0.44-1 1 0 0.55 0.45 1 1 1s1-0.45 1-1c0-0.56-0.45-1-1-1z" stroke-width=".52917"/>
	<path id="path4197" d="m59 25.33c-0.55 0-1 0.45-1 1 0 0.56 0.45 1 1 1s1-0.44 1-1c0-0.55-0.45-1-1-1z" stroke-width=".52917"/>
	<path id="path4199" d="m59 36.33c-0.55 0-1 0.45-1 1 0 0.56 0.45 1 1 1s1-0.44 1-1c0-0.55-0.45-1-1-1z" stroke-width=".52917"/>
	<path id="path4201" d="m58.29 18.29c-0.181 0.19-0.29 0.45-0.29 0.71s0.109 0.52 0.29 0.71c0.189 0.18 0.45 0.29 0.71 0.29s0.52-0.11 0.71-0.29c0.18-0.19 0.29-0.45 0.29-0.71s-0.11-0.52-0.29-0.71c-0.38-0.37-1.04-0.37-1.42 0z" stroke-width=".52917"/>
	<circle id="circle4203" cx="46.25" cy="19" r="1" stroke-width=".52917"/>
	<circle id="circle4205" cx="50.5" cy="19" r="1" stroke-width=".52917"/>
	<circle id="circle4207" cx="54.75" cy="19" r="1" stroke-width=".52917"/>
	<path id="path4209" d="m54 14-2.4-1.8c-0.44-0.333-1.068-0.242-1.399 0.2-0.332 0.442-0.242 1.069 0.2 1.4l4 3c0.019 0.014 0.042 0.019 0.062 0.032 0.031 0.02 0.057 0.046 0.091 0.063 0.017 8e-3 0.036 5e-3 0.052 0.012 0.126 0.055 0.258 0.093 0.393 0.093 0.134 0 0.264-0.037 0.389-0.09 0.035-0.015 0.066-0.033 0.1-0.052 0.036-0.021 0.077-0.032 0.111-0.058l4-3c0.442-0.331 0.532-0.958 0.2-1.4-0.331-0.442-0.958-0.533-1.399-0.2l-2.4 1.8c0-7.382-5.747-13.433-13-13.949v-0.051h-25v57.949c-6.15-0.511-11-5.67-11-11.949l2.4 1.8c0.18 0.135 0.39 0.2 0.599 0.2 0.305 0 0.604-0.138 0.801-0.4 0.332-0.442 0.242-1.069-0.2-1.4l-4-3c-0.015-0.011-0.033-0.013-0.048-0.023-0.035-0.024-0.066-0.052-0.104-0.072-0.049-0.024-0.102-0.035-0.153-0.051-0.027-8e-3 -0.052-0.02-0.079-0.026-0.11-0.024-0.222-0.03-0.333-0.017-0.027 3e-3 -0.051 0.013-0.078 0.018-0.088 0.018-0.171 0.047-0.252 0.088-0.031 0.015-0.059 0.03-0.088 0.049-0.022 0.013-0.045 0.02-0.065 0.034l-4 3c-0.442 0.331-0.532 0.958-0.2 1.4 0.331 0.441 0.957 0.532 1.399 0.2l2.401-1.8c0 7.382 5.747 13.433 13 13.949v0.051h25v-57.949c6.15 0.511 11 5.67 11 11.949z" stroke-width=".52917"/>
</g></g><g id="temphumid" fill="#ffffff" font-family="Futura" font-weight="500"><text id="sensor.bedroom_tem_humid_temperature" transform="matrix(.96953 -.41334 .60871 .77192 0 0)" x="804.78418" y="1310.4199" font-size="45.288px" opacity=".37079" stroke-width="2.4299" style="font-variant-caps:normal;font-variant-east-asian:normal;font-variant-ligatures:normal;font-variant-numeric:normal" xml:space="preserve"><tspan id="tspan974" transform="matrix(.92917 .12622 -.039746 1.0708 129.59 -230.92)" x="804.78418" y="1310.4199" fill="#ffffff" stroke-width="2.4299">21.6°C</tspan></text><text id="sensor.bedroom_tem_humid_humidity" transform="matrix(.95722 -.43692 .63069 .75681 0 0)" x="800.21753" y="1389.2035" font-size="45.288px" opacity=".37079" stroke-width="2.4299" style="font-variant-caps:normal;font-variant-east-asian:normal;font-variant-ligatures:normal;font-variant-numeric:normal" xml:space="preserve"><tspan id="tspan12129" transform="matrix(.92917 .12622 -.039746 1.0708 129.59 -230.92)" x="800.21753" y="1389.2035" fill="#ffffff" stroke-width="2.4299">42%</tspan></text><text id="sensor.dyson_ph04_temperature" transform="matrix(1.0037 -.40964 .65283 .72987 0 0)" x="-266.81326" y="1320.8673" font-size="63.191px" opacity=".37079" stroke-width="3.3905" style="font-variant-caps:normal;font-variant-east-asian:normal;font-variant-ligatures:normal;font-variant-numeric:normal" xml:space="preserve"><tspan id="tspan12704" transform="matrix(.92917 .12622 -.039746 1.0708 129.59 -230.92)" x="-266.81326" y="1320.8673" fill="#ffffff" stroke-width="3.3905">21.6°C</tspan></text><text id="sensor.dyson_ph04_humidity" transform="matrix(1.0122 -.41319 .66692 .7157 0 0)" x="-53.306683" y="1197.0211" font-size="52.178px" opacity=".37079" stroke-width="2.7996" style="font-variant-caps:normal;font-variant-east-asian:normal;font-variant-ligatures:normal;font-variant-numeric:normal" xml:space="preserve"><tspan id="tspan12708" transform="matrix(.92917 .12622 -.039746 1.0708 129.59 -230.92)" x="-53.306683" y="1197.0211" fill="#ffffff" stroke-width="2.7996">42%</tspan></text><text id="sensor.kids_room_temp_humid_humidity" transform="matrix(.80109 .70665 -.80469 .53848 0 0)" x="1118.0494" y="-652.12787" font-size="38.546px" opacity=".37079" stroke-width="2.7996" style="font-variant-caps:normal;font-variant-east-asian:normal;font-variant-ligatures:normal;font-variant-numeric:normal" xml:space="preserve"><tspan id="tspan15133" transform="matrix(.92917 .12622 -.039746 1.0708 129.59 -230.92)" x="1118.0494" y="-652.12787" fill="#ffffff" stroke-width="2.7996">42%</tspan></text><text id="sensor.kids_room_temp_humid_temperature" transform="matrix(.5524 .63776 -1.0972 .54348 0 0)" x="1246.2321" y="-615.4505" font-size="31.949px" opacity=".37079" stroke-width="3.3905" style="font-variant-caps:normal;font-variant-east-asian:normal;font-variant-ligatures:normal;font-variant-numeric:normal" xml:space="preserve"><tspan id="tspan15137" transform="matrix(.92917 .12622 -.039746 1.0708 129.59 -230.92)" x="1246.2321" y="-615.4505" fill="#ffffff" stroke-width="3.3905">21.6°C</tspan></text><text id="sensor.office_temp_humid_sensor_temperature" transform="matrix(.7738 -.36963 .075402 1.2563 0 0)" x="1645.6859" y="746.06305" font-size="33.322px" opacity=".37079" stroke-width="3.3905" style="font-variant-caps:normal;font-variant-east-asian:normal;font-variant-ligatures:normal;font-variant-numeric:normal" xml:space="preserve"><tspan id="tspan15180" transform="matrix(.92917 .12622 -.039746 1.0708 129.59 -230.92)" x="1645.6859" y="746.06305" fill="#ffffff" stroke-width="3.3905">21.6°C</tspan></text><text id="sensor.office_temp_humid_sensor_humidity" transform="matrix(.7738 -.36963 .075402 1.2563 0 0)" x="1636.1931" y="704.51703" font-size="33.322px" opacity=".37079" stroke-width="3.3905" style="font-variant-caps:normal;font-variant-east-asian:normal;font-variant-ligatures:normal;font-variant-numeric:normal" xml:space="preserve"><tspan id="tspan15184" transform="matrix(.92917 .12622 -.039746 1.0708 129.59 -230.92)" x="1636.1931" y="704.51703" fill="#ffffff" stroke-width="3.3905">21.6°C</tspan></text><text id="sensor.bathroom_temp_humid_temperature" transform="matrix(.82918 -.30821 -.0019114 1.2067 0 0)" x="1114.4769" y="686.36176" font-size="31.949px" opacity=".37079" stroke-width="3.3905" style="font-variant-caps:normal;font-variant-east-asian:normal;font-variant-ligatures:normal;font-variant-numeric:normal" xml:space="preserve"><tspan id="tspan15188" transform="matrix(.92917 .12622 -.039746 1.0708 129.59 -230.92)" x="1114.4769" y="686.36176" fill="#ffffff" stroke-width="3.3905">21.6°C</tspan></text><text id="sensor.bathroom_temp_humid_humidity" transform="matrix(.82918 -.30821 -.0019114 1.2067 0 0)" x="1145.9707" y="783.6283" font-size="31.949px" opacity=".37079" stroke-width="3.3905" style="font-variant-caps:normal;font-variant-east-asian:normal;font-variant-ligatures:normal;font-variant-numeric:normal" xml:space="preserve"><tspan id="tspan15192" transform="matrix(.92917 .12622 -.039746 1.0708 129.59 -230.92)" x="1145.9707" y="783.6283" fill="#ffffff" stroke-width="3.3905">21.6°C</tspan></text></g><g id="motions" transform="rotate(-13.046 1123.1 506.5)"><g id="binary_sensor.motion_sensor_entrance" transform="matrix(1.5178 6.9714 -6.8628 3.553 8263.6 -11082)"><path id="path6789" d="m978.88 1249h-2a5 5 0 0 1-5 5v2a7 7 0 0 0 7-7"/><path id="path6787" d="m982.88 1249h-2a9 9 0 0 1-9 9v2c6.08 0 11-4.93 11-11"/><path id="path6201" d="m974.88 1249h-3v3a3 3 0 0 0 3-3"/></g><g id="binary_sensor.motion_sensor_kidsroom" transform="matrix(7.803 1.6626 -.081572 6.8052 -6742.9 -9951.6)"><path id="path2697" d="m978.88 1249h-2a5 5 0 0 1-5 5v2a7 7 0 0 0 7-7"/><path id="path2699" d="m982.88 1249h-2a9 9 0 0 1-9 9v2c6.08 0 11-4.93 11-11"/><path id="path2701" d="m974.88 1249h-3v3a3 3 0 0 0 3-3"/></g><g id="binary_sensor.motion_sensor_bathroom" transform="matrix(7.941 -.82356 1.8653 6.5105 -9244.7 -6935.7)"><path id="path2689" d="m978.88 1249h-2a5 5 0 0 1-5 5v2a7 7 0 0 0 7-7"/><path id="path2691" d="m982.88 1249h-2a9 9 0 0 1-9 9v2c6.08 0 11-4.93 11-11"/><path id="path2693" d="m974.88 1249h-3v3a3 3 0 0 0 3-3"/></g><g id="binary_sensor.motion_sensor_hallway_occupancy" transform="matrix(7.6072 -2.4226 3.1514 5.9945 -10185 -4609.9)"><path id="path2681" d="m978.88 1249h-2a5 5 0 0 1-5 5v2a7 7 0 0 0 7-7"/><path id="path2683" d="m982.88 1249h-2a9 9 0 0 1-9 9v2c6.08 0 11-4.93 11-11"/><path id="path2685" d="m974.88 1249h-3v3a3 3 0 0 0 3-3"/></g></g></svg>
