<?xml version="1.0" encoding="UTF-8"?>
<svg xmlns="http://www.w3.org/2000/svg" viewBox="0 0 50 50">
  <defs>
    <style>
      .cls-1 {
        fill: #fff;
      }
    </style>
  </defs>
  <g id="Layer_3" data-name="Layer 3">
    <rect width="50" height="50"/>
  </g>
  <g id="Layer_2" data-name="Layer 2">
    <g>
      <path d="M42.8,36.1c-1.7,2.8-4.2,5.1-7,6.8-3.2,1.9-6.9,3-10.8,3s-7.7-1.1-10.8-3c-2.9-1.7-5.2-4-6.9-6.8l6.9-2.9,10.8-4.4,10.8,4.4,7,2.9Z"/>
      <path d="M35.7,7.1c6.1,3.7,10.2,10.4,10.2,18,0,3.6-.9,7-2.5,9.9l-7.6-6-7.5-5.8-2.7-19.1c3.7,.1,7.2,1.2,10.1,3Z"/>
      <path d="M24.5,4l-2.6,19-7.7,6-7.7,6c-1.5-3-2.4-6.4-2.4-10,0-7.6,4.1-14.3,10.2-18,3-1.8,6.4-2.9,10.2-3Z"/>
      <path class="cls-1" d="M21.9,23l2.6-19c-3.8,.1-7.2,1.2-10.2,3-6.1,3.7-10.2,10.4-10.2,18,0,3.6,.9,7,2.4,10l7.7-6,7.7-6Zm13.9,19.9c2.8-1.7,5.3-4,7-6.8l-7-2.9-10.8-4.4-10.8,4.4-6.9,2.9c1.7,2.8,4,5.1,6.9,6.8,3.1,1.9,6.9,3,10.8,3s7.6-1.1,10.8-3Zm7.6-7.9c1.6-2.9,2.5-6.3,2.5-9.9,0-7.6-4.1-14.3-10.2-18-2.9-1.8-6.4-2.9-10.1-3l2.7,19.1,7.5,5.8,7.6,6Zm-7.6-30.7c7.4,3.9,12.5,11.7,12.5,20.7s-5.1,16.8-12.5,20.6c-3.3,1.7-6.9,2.7-10.8,2.7s-7.6-1-10.8-2.6C6.8,41.8,1.7,34,1.7,25S6.8,8.2,14.2,4.3c3.2-1.7,6.9-2.6,10.8-2.6s7.6,1,10.8,2.6Z"/>
    </g>
  </g>
</svg>