<?xml version="1.0" encoding="UTF-8" standalone="no"?>
<svg xmlns:dc="http://purl.org/dc/elements/1.1/" xmlns:cc="http://creativecommons.org/ns#" xmlns:rdf="http://www.w3.org/1999/02/22-rdf-syntax-ns#" xmlns:svg="http://www.w3.org/2000/svg" xmlns="http://www.w3.org/2000/svg" id="Layer_1" width="676.09" height="676.09" viewBox="0 0 676.09 676.09" version="1.1">
  <metadata id="metadata236">
    <rdf:RDF>
      <cc:Work rdf:about="">
        <dc:format>image/svg+xml</dc:format>
        <dc:type rdf:resource="http://purl.org/dc/dcmitype/StillImage" />
        <dc:title></dc:title>
      </cc:Work>
    </rdf:RDF>
  </metadata>
  <defs id="defs59">
    <style id="style2">
      .cls-1 {
        fill: url(#radial-gradient);
      }

      .cls-2 {
        fill: url(#linear-gradient);
      }

      .cls-3 {
        fill: url(#linear-gradient-2);
      }

      .cls-4 {
        fill: #bfbfbf;
      }

      .cls-5 {
        fill: #717171;
      }

      .cls-6 {
        fill: url(#radial-gradient-2);
      }

      .cls-7 {
        fill: url(#radial-gradient-3);
      }
    </style>
    <radialGradient id="radial-gradient" cx="337.41" cy="349.86" fx="-116.7450903156788" fy="382.16010116945176" r="607.92" gradientTransform="matrix(-0.51, -0.86, 3.83, -2.28, -830.22, 1436.07)" gradientUnits="userSpaceOnUse">
      <stop offset="0.44" stop-color="#bbb" id="stop4" />
      <stop offset="0.47" stop-color="#c8c8c8" id="stop6" />
      <stop offset="0.52" stop-color="#dedede" id="stop8" />
      <stop offset="0.58" stop-color="#eee" id="stop10" />
      <stop offset="0.65" stop-color="#f8f8f8" id="stop12" />
      <stop offset="0.74" stop-color="#fbfbfb" id="stop14" />
    </radialGradient>
    <linearGradient id="linear-gradient" x1="286.8" y1="280.12" x2="615.61" y2="656.33" gradientUnits="userSpaceOnUse">
      <stop offset="0.14" stop-color="#313131" id="stop17" />
      <stop offset="0.74" stop-color="#3b3b3b" id="stop19" />
    </linearGradient>
    <linearGradient id="linear-gradient-2" x1="277.55" y1="279.82" x2="428.91" y2="398.78" gradientUnits="userSpaceOnUse">
      <stop offset="0.1" stop-color="#e6e6e6" id="stop22" />
      <stop offset="0.29" stop-color="#dfdfdf" id="stop24" />
      <stop offset="0.56" stop-color="#cccbcb" id="stop26" />
      <stop offset="0.89" stop-color="#acaaab" id="stop28" />
      <stop offset="1" stop-color="#a09d9e" id="stop30" />
    </linearGradient>
    <radialGradient id="radial-gradient-2" cx="360.37" cy="362.29" r="338.04" gradientUnits="userSpaceOnUse">
      <stop offset="0.88" stop-color="#eaebef" id="stop33" />
      <stop offset="0.9" stop-color="#f4f5f9" id="stop35" />
      <stop offset="0.92" stop-color="#f8f9fd" id="stop37" />
      <stop offset="0.95" stop-color="#f5f6fa" id="stop39" />
      <stop offset="0.96" stop-color="#eff0f4" id="stop41" />
      <stop offset="0.98" stop-color="#e5e7ea" id="stop43" />
      <stop offset="1" stop-color="#e2e4e7" id="stop45" />
    </radialGradient>
    <radialGradient id="radial-gradient-3" cx="360.37" cy="363.29" r="296.14" gradientUnits="userSpaceOnUse">
      <stop offset="0.92" stop-color="#acb3b9" id="stop48" />
      <stop offset="0.92" stop-color="#aeb5bb" id="stop50" />
      <stop offset="0.95" stop-color="#c0c6cb" id="stop52" />
      <stop offset="0.97" stop-color="#cbd1d5" id="stop54" />
      <stop offset="1" stop-color="#cfd4d8" id="stop56" />
    </radialGradient>
  </defs>
  <g id="g67">
    <path class="cls-1" d="M586.85,215.26A269.67,269.67,0,0,0,361,93.15C211.88,93.15,91,214,91,363.09A268.65,268.65,0,0,0,131,504.44c2.36-2.17,56.86-52.11,138.75-111.74C346.58,336.72,464,260.5,586.85,215.26Z" transform="translate(-22.33 -24.24)" id="path63" />
    <path class="cls-2" d="M586.58,214.94l.15.41c-122.8,45.19-240.17,121.38-317,177.34C186.44,453.33,131.51,503.94,131,504.44l-.29-.32a269.76,269.76,0,0,0,229.7,128.11c149.09,0,270-120.86,270-269.94A268.72,268.72,0,0,0,586.58,214.94Z" transform="translate(-22.33 -24.24)" id="path65" />
  </g>
  <path class="cls-3" d="M419.68,447.81c-12.38,12-26,10.14-39.07,4.48-13.84-5.78-26.5-6.15-41.12,0-18.2,7.85-27.87,5.57-38.83-4.48C238.75,384.07,247.89,287,318.25,283.33c17.06.91,29,9.43,39.06,10.14,14.94-3,29.24-11.74,45.23-10.6q28.83,2.33,43.18,22.78c-39.52,23.76-30.15,75.84,6.15,90.46C444.6,415.19,435.28,434,419.66,448ZM355.94,282.64c-1.85-28.32,21.11-51.63,47.52-53.91C407.09,261.4,373.76,285.84,355.94,282.64Z" transform="translate(-22.33 -24.24)" id="path69" />
  <g id="g227">
    <path class="cls-4" d="M314.21,112.14l3.69-.63,11.75,20.68-3.61.62-3-5.62-8.43,1.45-1,6.3-3.59.62Zm.83,13.59,6.61-1.13-4.81-8.93-.26,0Z" transform="translate(-22.33 -24.24)" id="path71" />
    <path class="cls-4" d="M330.59,110.19a2.11,2.11,0,1,1,2.32,1.86A2.13,2.13,0,0,1,330.59,110.19Zm1,5,3.33-.34,1.73,16.76-3.33.34Z" transform="translate(-22.33 -24.24)" id="path73" />
    <path class="cls-4" d="M340.71,114.37l3.36-.19.14,2.54h.25a4.29,4.29,0,0,1,4.25-3.09,7.18,7.18,0,0,1,1.48.08l.18,3.09a9.24,9.24,0,0,0-1.83-.1c-2.56.15-4.22,1.83-4.09,4.26l.57,10-3.36.19Z" transform="translate(-22.33 -24.24)" id="path75" />
    <path class="cls-4" d="M359.18,111.2l-7.05-.07,0-3,17.54.17,0,3-7-.07-.19,19.39-3.47,0Z" transform="translate(-22.33 -24.24)" id="path77" />
    <path class="cls-4" d="M369.66,126v0c.24-3,2.64-4.56,6.66-4.49l4.57.1.12-1.49c.15-1.84-.93-3-3.21-3.13-1.85-.15-3.13.43-3.63,1.59l0,.06-3.23-.25,0-.11c.62-2.72,3.41-4.35,7.23-4,4.22.34,6.43,2.63,6.15,6.16l-.91,11.49-3.33-.27.19-2.38-.26,0a5.51,5.51,0,0,1-5.19,2.26C371.63,131.19,369.42,129.05,369.66,126Zm6.28,2.84c2.5.2,4.47-1.29,4.65-3.46l.11-1.44-4.12-.06c-2.33,0-3.45.71-3.57,2.22v0C372.89,127.68,374.13,128.7,375.94,128.84Z" transform="translate(-22.33 -24.24)" id="path79" />
    <path class="cls-4" d="M387.69,133.6l0,0,3.36.55v0c.09,1.19,1.31,2.22,3.56,2.59,2.74.46,4.57-.56,4.94-2.83l.54-3.27-.24,0a5.69,5.69,0,0,1-5.59,2c-4.28-.7-6.37-4.43-5.59-9.11v0c.78-4.75,4-7.66,8.3-7a5.58,5.58,0,0,1,4.6,3.85l.2,0,.45-2.72,3.3.54-2.68,16.29c-.62,3.78-4,5.71-8.72,4.93C389.93,138.72,387.63,136.43,387.69,133.6ZM401,125.48v0c.51-3.09-.85-5.55-3.65-6s-4.78,1.45-5.29,4.54v0c-.5,3.09.73,5.51,3.57,6S400.52,128.59,401,125.48Z" transform="translate(-22.33 -24.24)" id="path81" />
    <path class="cls-4" d="M427,131.65a3.47,3.47,0,0,1-4.32,2.41h0a3.48,3.48,0,0,1-2.4-4.33v0a3.49,3.49,0,0,1,4.33-2.4h0a3.47,3.47,0,0,1,2.4,4.32Z" transform="translate(-22.33 -24.24)" id="path83" />
    <path class="cls-4" d="M448.18,124.68l6.78,2.88c6.28,2.67,8.12,8.05,5.42,14.42l0,0c-2.71,6.4-7.85,8.81-14.14,6.14l-6.78-2.87Zm-1.32,21.66c5,2.13,9.25.15,11.5-5.16v0c2.26-5.31.75-9.74-4.27-11.87l-4.71-2-7.24,17.06Z" transform="translate(-22.33 -24.24)" id="path85" />
    <path class="cls-4" d="M463.2,146.67v0c2.46-4.6,6.65-6.25,10.6-4.14s4.81,6.37,2.47,10.73l-.41.76-11.05-5.92c-1.79,3.48-1,6.55,1.91,8.12,2.15,1.14,4.17.92,5.26,0l.1-.06,1.82,1-.1.09c-1.64,1.68-4.74,2.31-8,.57C461.69,155.59,460.72,151.29,463.2,146.67Zm2.42,0,9.21,4.93c1.54-3.38.65-6.07-1.88-7.43S467.56,143.56,465.62,146.62Z" transform="translate(-22.33 -24.24)" id="path87" />
    <path class="cls-4" d="M477.45,159.17l1.78,1.14c-.52,1.64.25,3.4,2.29,4.7s4.3,1.25,5.23-.21l0,0c.78-1.21.36-2.49-1.38-4.29l-1.66-1.72c-2.23-2.28-2.75-4.14-1.49-6.11v0c1.45-2.27,4.76-2.53,7.6-.72s3.94,4.52,2.85,7l-1.7-1.08c.52-1.51-.22-3.23-2.09-4.43s-4-1.07-4.84.33l0,0c-.74,1.15-.3,2.36,1.29,4l1.65,1.7c2.3,2.39,2.92,4.33,1.63,6.36l0,0c-1.54,2.42-5,2.61-8.06.65S476.27,161.66,477.45,159.17Z" transform="translate(-22.33 -24.24)" id="path89" />
    <path class="cls-4" d="M499.55,158.76l1.67,1.19-9.72,13.59-1.66-1.19Zm2.51-4.33a1.51,1.51,0,1,1,.36,2.11A1.51,1.51,0,0,1,502.06,154.43Z" transform="translate(-22.33 -24.24)" id="path91" />
    <path class="cls-4" d="M494.88,178h0l1.67,1.31v0c-.6,1.38.14,3.24,2.15,4.81,2.54,2,5.12,1.92,6.79-.2l2.3-3-.16-.12a5.89,5.89,0,0,1-6.55-.71c-3.38-2.65-3.47-7-.52-10.76l0,0c2.94-3.76,7.22-4.75,10.61-2.09a5.93,5.93,0,0,1,2.16,6.33l.11.09,2.08-2.67,1.62,1.27-10.16,13c-2.24,2.87-6,3-9.43.28C494.58,183.18,493.63,180.27,494.88,178Zm15.83-.65,0,0c2.3-2.95,2.26-6.35-.34-8.38s-5.83-1.23-8.13,1.71l0,0c-2.3,2.94-2.31,6.22.32,8.27S508.41,180.25,510.71,177.31Z" transform="translate(-22.33 -24.24)" id="path93" />
    <path class="cls-4" d="M522.27,176.85l1.48,1.41-2,2.12.15.14a5.34,5.34,0,0,1,6,1.32c2.7,2.56,2.7,5.65,0,8.47l-7.48,7.86L519,196.76l7.12-7.49c2.19-2.31,2.27-4.48.17-6.48s-5-1.9-7.19.38l-6.84,7.19L510.76,189Z" transform="translate(-22.33 -24.24)" id="path95" />
    <path class="cls-4" d="M529.62,195.68l0,0c3.89-3.47,8.39-3.6,11.38-.26s2.34,7.63-1.35,10.93l-.65.58-8.36-9.35c-2.87,2.65-3.19,5.81-1,8.28,1.63,1.82,3.6,2.3,4.93,1.83l.12,0,1.38,1.53-.12,0c-2.13,1-5.25.56-7.71-2.19C525.15,203.55,525.71,199.18,529.62,195.68Zm2.3.78,7,7.78c2.6-2.64,2.68-5.48.77-7.62S534.78,194.24,531.92,196.46Z" transform="translate(-22.33 -24.24)" id="path97" />
    <path class="cls-4" d="M542.11,209.82l0,0c4.14-3.12,8.59-3,11.14.43a6,6,0,0,1,.56,6.61l.11.15,7.91-6,1.24,1.65-18.63,14.07-1.25-1.65,2.66-2-.11-.14a5.92,5.92,0,0,1-6.27-2.31C537,217.27,538,212.92,542.11,209.82Zm7.79,10.28,0,0c3.28-2.47,4.13-5.77,2.15-8.4s-5.37-2.71-8.66-.22l0,0c-3.3,2.49-4.15,5.76-2.16,8.4S546.6,222.59,549.9,220.1Z" transform="translate(-22.33 -24.24)" id="path99" />
    <path class="cls-5" d="M556.34,238.92l-.1-.18-2.89,1.67-1-1.78L572.57,227l1,1.77L565,233.69l.1.17A5.92,5.92,0,0,1,571,237c2.12,3.66.55,7.78-4,10.38h0c-4.47,2.58-8.87,1.88-11-1.78A5.89,5.89,0,0,1,556.34,238.92Zm9.61,6.61h0c3.59-2.07,4.83-5.17,3.19-8s-5-3.36-8.58-1.31l0,0c-3.56,2.05-4.83,5.23-3.19,8.08S562.35,247.61,566,245.53Z" transform="translate(-22.33 -24.24)" id="path101" />
    <path class="cls-5" d="M556.41,257.61l1.54-.73a4.68,4.68,0,0,0,.32.79c.67,1.4,1.69,2,3.79,1.71l1.32-.16,12.46-12.9.95,2L565.9,259.1l.09.19,15.23-1.71.94,2-19.29,1.74c-3.48.31-5-.39-6.13-2.81A5.89,5.89,0,0,1,556.41,257.61Z" transform="translate(-22.33 -24.24)" id="path103" />
    <path class="cls-5" d="M595.18,277.65l.67,2L577.28,294.7l-.71-2.12,5.72-4.53-3-8.93L572,279l-.71-2.12Zm-13.94,1.51,2.57,7.68,9.1-7.22-.06-.18Z" transform="translate(-22.33 -24.24)" id="path105" />
    <path class="cls-5" d="M594.45,294.4l.47,2-3.22.77,0,.2a5.9,5.9,0,0,1,4.8,4.61c1,4.11-1.71,7.68-6.72,8.88h0c-5,1.21-9-.75-10-4.87a5.93,5.93,0,0,1,2.14-6.26l0-.2-8.55,2.05-.48-2Zm-5.15,14.42h0c4-1,6.1-3.61,5.34-6.83s-3.86-4.64-7.85-3.68h0c-4,1-6.11,3.64-5.35,6.84S585.28,309.78,589.3,308.82Z" transform="translate(-22.33 -24.24)" id="path107" />
    <path class="cls-5" d="M599,314.57l.3,2-3.27.5,0,.2a5.89,5.89,0,0,1,4.4,5c.64,4.18-2.35,7.51-7.44,8.28h0c-5.12.78-8.94-1.5-9.58-5.68a6,6,0,0,1,2.65-6.07l0-.2-8.69,1.33-.31-2Zm-6.33,13.93h0c4.07-.62,6.38-3.09,5.88-6.35s-3.45-4.95-7.51-4.33h0c-4.07.62-6.39,3.12-5.9,6.37S588.57,329.12,592.66,328.5Z" transform="translate(-22.33 -24.24)" id="path109" />
    <path class="cls-5" d="M608.36,334.3l.19,2-23.27,2.14-.19-2Z" transform="translate(-22.33 -24.24)" id="path111" />
    <path class="cls-5" d="M594,342.83h0c5.2-.18,8.75,2.61,8.9,7.09s-3.09,7.36-8,7.53l-.87,0-.43-12.54c-3.91.2-6.17,2.42-6.06,5.74.09,2.43,1.29,4.06,2.61,4.56l.11.06.08,2.06-.13,0c-2.29-.57-4.39-2.94-4.51-6.63C585.57,346,588.81,343,594,342.83Zm1.27,2.07.37,10.45c3.69-.37,5.57-2.5,5.47-5.36S598.93,345,595.31,344.9Z" transform="translate(-22.33 -24.24)" id="path113" />
    <path class="cls-5" d="M602.48,372.09l-.12,2-16.67-1,.12-2Zm5-.19a1.51,1.51,0,1,1-1.59,1.43A1.52,1.52,0,0,1,607.48,371.9Z" transform="translate(-22.33 -24.24)" id="path115" />
    <path class="cls-5" d="M602,380.56l-.23,2-2.92-.34,0,.2a5.35,5.35,0,0,1,2.57,5.63c-.43,3.7-2.9,5.55-6.77,5.09L583.8,391.9l.24-2,10.27,1.21c3.16.37,5-.87,5.29-3.75s-1.49-5.16-4.62-5.53l-9.86-1.16.24-2Z" transform="translate(-22.33 -24.24)" id="path117" />
    <path class="cls-5" d="M592.42,407.57h0c6.95,1.74,10.37,6.5,8.9,12.38a8.71,8.71,0,0,1-9.24,6.89v0l.51-2.06h0a6.73,6.73,0,0,0,6.81-5.28c1.14-4.54-1.79-8.36-7.52-9.79h0c-5.73-1.44-10.09.53-11.24,5.11-.84,3.35.37,6.42,3.06,7.73l0,0-.51,2.07h0c-3.81-1.61-5.6-5.7-4.45-10.3C580.22,408.41,585.47,405.83,592.42,407.57Z" transform="translate(-22.33 -24.24)" id="path119" />
    <path class="cls-5" d="M580.31,427.81h0c2.74.94,3.64,3.53,2.62,7.27l-1.38,5,1.48.51c2.32.8,4-.18,4.92-2.73.74-2.14.39-4-1-4.9l0,0,.68-2,0,0c2.38,1.28,3.17,4.23,2,7.5-1.27,3.69-3.95,5.17-7.28,4l-10.79-3.73.68-1.95,2.71.94.06-.18a5.85,5.85,0,0,1-1.19-6.19C574.93,428.44,577.5,426.83,580.31,427.81Zm-4.87,4.63c-1,2.83.22,5.64,2.73,6.5l1.83.64,1.29-4.77c.75-2.75.19-4.39-1.6-5h0C577.86,429.17,576.18,430.31,575.44,432.44Z" transform="translate(-22.33 -24.24)" id="path121" />
    <path class="cls-5" d="M591.18,452.71l-.78,1.9-21.61-8.87.78-1.89Z" transform="translate(-22.33 -24.24)" id="path123" />
    <path class="cls-5" d="M581.74,457.87l-.84,1.86-15.22-6.86.84-1.87Zm4.74,1.61a1.51,1.51,0,1,1-2,.76A1.5,1.5,0,0,1,586.48,459.48Z" transform="translate(-22.33 -24.24)" id="path125" />
    <path class="cls-5" d="M576.23,465.59l1.24-2.48,1.54.77-1.24,2.48,1.91,1c2.77,1.39,3.46,3.51,2.15,6.11a9.27,9.27,0,0,1-.85,1.4l-1.49-.75a10.23,10.23,0,0,0,.64-1.09c.86-1.72.31-3-1.42-3.85l-1.87-.94-1.75,3.49-1.54-.77,1.75-3.49-13.38-6.72.92-1.85Z" transform="translate(-22.33 -24.24)" id="path127" />
    <path class="cls-5" d="M566.26,470.67h0c4.59,2.68,6,6.86,3.61,10.89s-6.67,4.91-11.27,2.22h0c-4.59-2.68-6-6.88-3.61-10.91S561.67,468,566.26,470.67ZM559.67,482h0c3.64,2.13,6.88,1.65,8.62-1.32s.56-6-3.09-8.16l0,0c-3.65-2.12-6.9-1.65-8.64,1.32S556,479.83,559.67,482Z" transform="translate(-22.33 -24.24)" id="path129" />
    <path class="cls-5" d="M562.73,492.64l-1.15,1.69-2.27-1.54-.12.17a4.46,4.46,0,0,1,0,5.46,7.93,7.93,0,0,1-1,1.21l-1.67-1.13a7,7,0,0,0,1.18-1.36,4.41,4.41,0,0,0-1.27-6.33L547.75,485l1.15-1.7Z" transform="translate(-22.33 -24.24)" id="path131" />
    <path class="cls-5" d="M555.2,503.53l-1.26,1.62-2.31-1.81-.13.16a5.36,5.36,0,0,1-.72,6.15c-2.29,2.93-5.36,3.23-8.43.84l-8.55-6.68,1.26-1.62,8.15,6.37c2.51,1.95,4.68,1.82,6.46-.47s1.41-5.17-1.08-7.11l-7.82-6.11,1.26-1.61Z" transform="translate(-22.33 -24.24)" id="path133" />
    <path class="cls-5" d="M542.89,518.78l-1.35,1.54-12.58-11,1.35-1.54Zm4.06,2.91a1.52,1.52,0,0,1,.13,2.14,1.5,1.5,0,1,1-.13-2.14Z" transform="translate(-22.33 -24.24)" id="path135" />
    <path class="cls-5" d="M529.32,515.94l0,0c2.07,2,1.77,4.75-.74,7.69l-3.4,4,1.12,1.09c1.75,1.72,3.73,1.56,5.61-.37,1.59-1.62,2-3.4,1.17-4.87l0,0,1.45-1.48,0,.06c1.6,2.17,1.06,5.17-1.36,7.65-2.73,2.79-5.79,3-8.31.53l-8.16-8,1.44-1.48,2.05,2,.13-.13a5.85,5.85,0,0,1,1.57-6.11C524.18,514.21,527.19,513.86,529.32,515.94Zm-6.38,2.12c-2.09,2.14-2.21,5.19-.31,7l1.38,1.36,3.21-3.77c1.85-2.16,2-3.88.69-5.2l0,0C526.52,516.13,524.52,516.45,522.94,518.06Z" transform="translate(-22.33 -24.24)" id="path137" />
    <path class="cls-5" d="M505.36,544.11a3.72,3.72,0,0,1,.52-5.28l0,0a3.71,3.71,0,0,1,5.27.53l0,0a3.71,3.71,0,0,1-.53,5.26h0a3.71,3.71,0,0,1-5.27-.51Z" transform="translate(-22.33 -24.24)" id="path139" />
    <path class="cls-5" d="M493.67,568.84,491.89,570l-19.08-14.38,1.89-1.2,5.77,4.45,7.94-5.05-1.59-7.11,1.89-1.2Zm-4.83-13.16L482,560l9.2,7.08.16-.1Z" transform="translate(-22.33 -24.24)" id="path141" />
    <path class="cls-5" d="M472.55,560.46l-1.86,1c-1.18-1.26-3.09-1.46-5.23-.33s-3.21,3.12-2.4,4.66v0c.68,1.28,2,1.55,4.41.92l2.32-.59c3.09-.81,5-.34,6.06,1.73h0c1.26,2.39-.15,5.4-3.12,7s-5.88,1.19-7.46-1l1.79-.94c1.05,1.2,2.91,1.4,4.88.37s2.88-2.91,2.11-4.38l0,0c-.64-1.21-1.91-1.43-4.12-.86l-2.29.59c-3.22.82-5.21.4-6.34-1.72v0c-1.34-2.54.2-5.63,3.43-7.33S471,558.2,472.55,560.46Z" transform="translate(-22.33 -24.24)" id="path143" />
    <path class="cls-5" d="M458,568l-1.93.85c-1.08-1.33-3-1.67-5.19-.69s-3.42,2.88-2.72,4.47v0c.58,1.32,1.88,1.68,4.34,1.23l2.35-.43c3.13-.58,5,0,5.91,2.16h0c1.09,2.47-.53,5.37-3.61,6.73s-5.95.77-7.36-1.49l1.84-.81c1,1.27,2.81,1.61,4.84.72s3.08-2.7,2.41-4.22v0c-.55-1.24-1.81-1.56-4.05-1.14l-2.33.43c-3.26.59-5.22,0-6.19-2.17v0c-1.16-2.62.6-5.6,3.93-7.07S456.57,565.65,458,568Z" transform="translate(-22.33 -24.24)" id="path145" />
    <path class="cls-5" d="M443.91,578.56v0c1.73,4.91.13,9.13-4.1,10.62s-7.94-.75-9.58-5.42L430,583l11.83-4.17c-1.36-3.66-4.16-5.16-7.28-4-2.3.8-3.5,2.44-3.58,3.85l0,.12-1.94.69v-.13c-.14-2.35,1.49-5.06,5-6.29C438.34,571.43,442.17,573.62,443.91,578.56Zm-1.59,1.83-9.86,3.47c1.46,3.42,4.05,4.57,6.76,3.62S443.27,583.88,442.32,580.39Z" transform="translate(-22.33 -24.24)" id="path147" />
    <path class="cls-5" d="M427.25,593.23l-2,.49-.69-2.87-.2,0a5.05,5.05,0,0,1-9.19,2.18l-.2,0a5.48,5.48,0,0,1-4.28,4.43c-3.26.8-5.62-.7-6.46-4.14l-2.7-11.11,2-.49,2.6,10.66c.64,2.65,2.27,3.76,4.71,3.16a4.28,4.28,0,0,0,3.1-5.45l-2.51-10.29,2-.49,2.65,10.87a3.66,3.66,0,0,0,4.66,3c2.35-.57,3.64-3.12,3-5.77l-2.43-10,2-.48Z" transform="translate(-22.33 -24.24)" id="path149" />
    <path class="cls-5" d="M394.68,586.66l.2,0-.45-3.3,2-.29,3.19,23.15-2,.28-1.35-9.81-.2,0A6,6,0,0,1,391,601c-4.19.57-7.42-2.43-8.14-7.57v0c-.71-5.12,1.6-8.93,5.78-9.51A5.88,5.88,0,0,1,394.68,586.66Zm-9.74,6.42v0c.57,4.1,3,6.41,6.23,6s5-3.38,4.43-7.45v0c-.56-4.07-3-6.44-6.29-6S384.37,589,384.94,593.08Z" transform="translate(-22.33 -24.24)" id="path151" />
    <path class="cls-5" d="M378.93,608.65l-2,.15-1.81-23.27,2-.16Z" transform="translate(-22.33 -24.24)" id="path153" />
    <path class="cls-5" d="M370.58,594.24v0c.11,5.21-2.74,8.71-7.22,8.8s-7.31-3.19-7.41-8.14l0-.87,12.54-.26c-.14-3.9-2.33-6.2-5.65-6.13-2.43.05-4.08,1.23-4.6,2.54l-.05.12-2.07,0,0-.13c.6-2.27,3-4.34,6.68-4.42C367.51,585.73,370.47,589,370.58,594.24Zm-2.09,1.24-10.45.21c.31,3.7,2.42,5.61,5.29,5.56S368.31,599.09,368.49,595.48Z" transform="translate(-22.33 -24.24)" id="path155" />
    <path class="cls-5" d="M351.71,594.52v0c-.32,5.17-3.34,8.43-7.57,8.17a6,6,0,0,1-5.39-3.87h-.18l-.61,9.89-2.06-.13,1.43-23.3,2.06.12-.2,3.33h.18a5.92,5.92,0,0,1,5.83-3.26C349.41,585.76,352,589.38,351.71,594.52Zm-12.88-.77v0c-.25,4.1,1.71,6.89,5,7.09s5.55-2.31,5.8-6.43v0c.26-4.13-1.67-6.91-5-7.11S339.09,589.63,338.83,593.75Z" transform="translate(-22.33 -24.24)" id="path157" />
    <path class="cls-5" d="M320.12,604.92a1.51,1.51,0,1,1-1.26-1.73A1.51,1.51,0,0,1,320.12,604.92Zm.32-5-2-.32,2.65-16.49,2,.32Z" transform="translate(-22.33 -24.24)" id="path159" />
    <path class="cls-5" d="M312.13,598.57l-2-.44.63-2.87-.2,0a5.35,5.35,0,0,1-5.85,2c-3.64-.8-5.23-3.43-4.4-7.24l2.33-10.6,2,.44-2.22,10.1c-.68,3.11.38,5,3.21,5.63s5.28-1,5.95-4l2.13-9.69,2,.44Z" transform="translate(-22.33 -24.24)" id="path161" />
    <path class="cls-5" d="M286.19,586.4v0c-2.43,6.74-7.51,9.67-13.21,7.62a8.71,8.71,0,0,1-5.93-9.88h0l2,.72h0a6.73,6.73,0,0,0,4.58,7.3c4.4,1.59,8.49-.94,10.5-6.5v0c2-5.55.47-10.09-4-11.69-3.26-1.17-6.43-.27-8,2.27h0l-2-.7v0c2-3.63,6.24-5,10.7-3.39C286.57,574.18,288.62,579.66,286.19,586.4Z" transform="translate(-22.33 -24.24)" id="path163" />
    <path class="cls-5" d="M258.28,588.84l-1.86-.87,4.05-8.68-.18-.09a5.33,5.33,0,0,1-6.15.68c-3.37-1.57-4.35-4.49-2.71-8L256,562l1.86.86-4.37,9.37c-1.34,2.88-.71,5,1.9,6.19s5.36.21,6.69-2.65l4.2-9,1.85.87Z" transform="translate(-22.33 -24.24)" id="path165" />
    <path class="cls-5" d="M241.5,578.8a1.51,1.51,0,1,1-.63-2A1.52,1.52,0,0,1,241.5,578.8Zm1.94-4.61-1.81-1,7.93-14.7,1.8,1Z" transform="translate(-22.33 -24.24)" id="path167" />
    <path class="cls-5" d="M236,570.16l-1.75-1.08,1.54-2.49-.17-.11a5.33,5.33,0,0,1-6.18,0c-3.17-2-3.81-5-1.77-8.28l5.7-9.24,1.74,1.07-5.43,8.81c-1.66,2.7-1.29,4.85,1.18,6.37s5.3.82,6.95-1.86l5.21-8.44,1.74,1.07Z" transform="translate(-22.33 -24.24)" id="path169" />
    <path class="cls-5" d="M227.24,550.36l0,0c-1.71,2.34-4.45,2.44-7.72.38l-4.41-2.8-.92,1.26c-1.45,2-1,3.91,1.16,5.5,1.83,1.34,3.66,1.54,5,.46l0,0,1.67,1.22-.05,0c-1.92,1.9-5,1.78-7.76-.25-3.16-2.31-3.79-5.3-1.72-8.15l6.73-9.22,1.66,1.22-1.69,2.31.15.12a5.86,5.86,0,0,1,6.27.67C228.21,545,229,548,227.24,550.36Zm-3-6c-2.41-1.76-5.45-1.44-7,.7l-1.14,1.57,4.18,2.63c2.4,1.52,4.13,1.46,5.25-.07l0,0C226.65,547.61,226.05,545.67,224.23,544.34Z" transform="translate(-22.33 -24.24)" id="path171" />
    <path class="cls-5" d="M195.92,530.7a3.72,3.72,0,0,1,5.3-.25l0,0a3.72,3.72,0,0,1,.23,5.29l0,0a3.7,3.7,0,0,1-5.28.25l0,0a3.71,3.71,0,0,1-.26-5.29Z" transform="translate(-22.33 -24.24)" id="path173" />
    <path class="cls-5" d="M174.11,527.77l-5.27-6.07c-2.71-3.11-2.74-6.46-.21-8.65l0,0a5,5,0,0,1,6.44-.18l.14-.12c-1.71-2.56-1.6-5.56.73-7.58l0,0c2.86-2.48,6.4-1.95,9.66,1.8l5.35,6.16Zm0-2.84,6.09-5.29-3.28-3.78c-2.27-2.61-4.68-3.13-6.63-1.43l0,0c-1.85,1.6-1.78,4,.25,6.34Zm7.47-6.49,6.6-5.72-3.76-4.33c-2.55-2.94-5-3.36-7.1-1.55l0,0c-2.11,1.83-1.85,4.52.64,7.39Z" transform="translate(-22.33 -24.24)" id="path175" />
    <path class="cls-5" d="M159.35,511.62,158.1,510l18.56-14.19,1.25,1.63Z" transform="translate(-22.33 -24.24)" id="path177" />
    <path class="cls-5" d="M168.56,494.83l-9,6.08-1.14-1.7,8.57-5.79c2.58-1.75,3.17-3.89,1.56-6.27-1.74-2.58-4.49-3-7.12-1.19l-8.22,5.56-1.14-1.7,13.83-9.36,1.15,1.7-2.42,1.63.11.16c2.13-.45,4.15.44,5.61,2.59C172.45,489.65,171.73,492.68,168.56,494.83Z" transform="translate(-22.33 -24.24)" id="path179" />
    <path class="cls-4" d="M156.35,480.83l0,0c-4.54,2.56-9,1.71-11.18-2.19s-.64-8,3.67-10.39l.76-.43,6.17,10.93c3.37-2,4.36-5,2.73-7.88-1.2-2.12-3-3-4.42-2.85h-.13l-1-1.79.13,0c2.29-.55,5.25.58,7.06,3.8C162.4,474.11,160.91,478.26,156.35,480.83Zm-2.08-1.25-5.14-9.1c-3.11,2-3.8,4.78-2.39,7.28S151,481.13,154.27,479.58Z" transform="translate(-22.33 -24.24)" id="path181" />
    <path class="cls-4" d="M150.24,460.84l-9.75,4.69,1.16,2.42-1.55.74-1.17-2.42L135,468.16l-.92-1.92,3.91-1.88-1.65-3.44,1.55-.74,1.66,3.44,9.33-4.49c1.85-.89,2.3-1.91,1.48-3.62a10.3,10.3,0,0,0-.57-1.05l1.59-.76a7.82,7.82,0,0,1,.73,1.23C153.52,457.81,153,459.53,150.24,460.84Z" transform="translate(-22.33 -24.24)" id="path183" />
    <path class="cls-4" d="M142.28,454h0c-4.93,2-9.07.52-10.81-3.81s.2-8.28,5.13-10.27h0c4.93-2,9.09-.51,10.84,3.82S147.21,452,142.28,454Zm-4.89-12.12h0c-3.91,1.58-5.52,4.43-4.23,7.62s4.43,4.14,8.34,2.56h0c3.91-1.58,5.53-4.44,4.24-7.63S141.3,440.25,137.39,441.83Z" transform="translate(-22.33 -24.24)" id="path185" />
    <path class="cls-4" d="M135.19,435.91h0c-5.08,1.58-9.09-.23-10.47-4.68s.88-8.24,6-9.82h0c5.08-1.58,9.11.24,10.5,4.69S140.27,434.33,135.19,435.91Zm-3.89-12.48h0c-4,1.25-5.86,4-4.84,7.25s4.08,4.48,8.11,3.23h0c4-1.25,5.87-4,4.85-7.26S135.33,422.17,131.3,423.43Z" transform="translate(-22.33 -24.24)" id="path187" />
    <path class="cls-4" d="M133.34,414.58l-10.54,2.53.63,2.61-1.67.4-.63-2.61-4.22,1-.5-2.07,4.22-1-.89-3.72,1.68-.4.89,3.71,10.08-2.41c2-.48,2.65-1.39,2.21-3.23a11.16,11.16,0,0,0-.34-1.15l1.72-.41a8,8,0,0,1,.45,1.36C137.18,412.3,136.29,413.87,133.34,414.58Z" transform="translate(-22.33 -24.24)" id="path189" />
    <path class="cls-4" d="M112,407.41l-.35-2,9.44-1.62,0-.2a5.34,5.34,0,0,1-4.06-4.67c-.63-3.67,1.21-6.14,5-6.8l10.7-1.83.34,2L122.9,394c-3.13.54-4.49,2.25-4,5.1s2.88,4.52,6,4l9.78-1.68.35,2Z" transform="translate(-22.33 -24.24)" id="path191" />
    <path class="cls-4" d="M108.88,377.4l-.11-2.12,20.42-1.07L128.61,363l1.92-.1.69,13.3Z" transform="translate(-22.33 -24.24)" id="path193" />
    <path class="cls-4" d="M108.13,358l.35-13.52,1.92.05-.29,11.4,8,.21.28-10.82,1.89.05-.28,10.82,8.59.22.29-11.39,1.92.05-.35,13.52Z" transform="translate(-22.33 -24.24)" id="path195" />
    <path class="cls-4" d="M124.39,321.64a3.73,3.73,0,0,1,3.2,4.23v0a3.71,3.71,0,0,1-4.23,3.18h0a3.7,3.7,0,0,1-3.18-4.22v0a3.72,3.72,0,0,1,4.22-3.2Z" transform="translate(-22.33 -24.24)" id="path197" />
    <path class="cls-4" d="M128.64,305.69l-14.18-3.79.55-2,14.06,3.76c3.67,1,6.74-.73,7.81-4.7s-.76-7-4.43-7.95l-14.06-3.76.55-2L133.12,289c4.72,1.26,7,5.27,5.66,10.47S133.36,307,128.64,305.69Z" transform="translate(-22.33 -24.24)" id="path199" />
    <path class="cls-4" d="M120.37,278l.66-1.93,22.11,7.55-.66,1.94Z" transform="translate(-22.33 -24.24)" id="path201" />
    <path class="cls-4" d="M141.51,275.94,131.42,272l-1,2.5-1.61-.63,1-2.5-4-1.58.77-2,4,1.58,1.38-3.55,1.61.62L132.19,270l9.66,3.76c1.91.75,3,.38,3.65-1.39a9.39,9.39,0,0,0,.38-1.13l1.65.64a9.3,9.3,0,0,1-.4,1.38C146,276.26,144.34,277.05,141.51,275.94Z" transform="translate(-22.33 -24.24)" id="path203" />
    <path class="cls-4" d="M134.05,261l.84-1.86,2.5,1.13.08-.19a4.46,4.46,0,0,1-.88-5.38,7,7,0,0,1,.78-1.37l1.84.83a6.87,6.87,0,0,0-.93,1.54,4.41,4.41,0,0,0,2.33,6l9.5,4.28-.84,1.87Z" transform="translate(-22.33 -24.24)" id="path205" />
    <path class="cls-4" d="M149.58,256l0,0c-2.56-1.36-3.05-4.05-1.47-7.59l2.14-4.77-1.38-.73c-2.17-1.15-4-.44-5.28,1.94-1.06,2-1,3.84.26,5l0,0-1,1.83,0,0c-2.16-1.63-2.48-4.66-.86-7.72,1.83-3.45,4.71-4.51,7.82-2.86l10.09,5.35-1,1.82-2.53-1.34-.09.16a5.84,5.84,0,0,1,.22,6.3C155,256.21,152.21,257.4,149.58,256Zm5.52-3.83c1.41-2.65.66-5.61-1.68-6.85l-1.72-.91-2,4.52c-1.16,2.59-.86,4.3.82,5.19h0C152.22,255,154.05,254.16,155.1,252.18Z" transform="translate(-22.33 -24.24)" id="path207" />
    <path class="cls-4" d="M148,222.25l1.3-1.78,18.31,7.26.08-.12L155.47,212l1.24-1.71,18.59,6.88.08-.11-12.52-15.2,1.29-1.78,14.47,18.14-1.16,1.6-18.34-6.57-.09.13,11.88,15.44-1.16,1.59Z" transform="translate(-22.33 -24.24)" id="path209" />
    <path class="cls-4" d="M168.5,196.57a1.51,1.51,0,0,1,2-2.29,1.51,1.51,0,0,1-2,2.29Zm4.09,2.89,1.33-1.55,12.66,10.9-1.34,1.55Z" transform="translate(-22.33 -24.24)" id="path211" />
    <path class="cls-4" d="M183.56,199.47l0,0c-3.71-3.61-4.22-8-1.27-11.07a6,6,0,0,1,6.44-1.57l.13-.13-7.11-6.9,1.44-1.48,16.76,16.26L198.49,196l-2.39-2.32-.13.13a5.91,5.91,0,0,1-1.32,6.55C191.72,203.42,187.26,203.05,183.56,199.47Zm9-9.27,0,0c-2.94-2.87-6.34-3.2-8.63-.84s-1.85,5.72,1.11,8.59l0,0c3,2.89,6.33,3.23,8.63.86S195.5,193.07,192.54,190.2Z" transform="translate(-22.33 -24.24)" id="path213" />
    <path class="cls-4" d="M197.74,185.19l0,0c-3.43-3.92-3.5-8.44-.13-11.38s7.66-2.25,10.91,1.48l.58.65-9.45,8.26c2.62,2.9,5.77,3.25,8.27,1.07,1.83-1.6,2.34-3.57,1.89-4.91l0-.12,1.56-1.35,0,.12c1,2.13.49,5.25-2.28,7.68C205.55,189.75,201.18,189.14,197.74,185.19Zm.8-2.28,7.87-6.88c-2.62-2.64-5.45-2.75-7.61-.87S196.36,180,198.54,182.91Z" transform="translate(-22.33 -24.24)" id="path215" />
    <path class="cls-4" d="M217.61,175l-.16.12,2,2.68L217.78,179l-13.85-18.81,1.65-1.21,5.86,8,.17-.12a5.91,5.91,0,0,1,2.42-6.15c3.41-2.51,7.68-1.42,10.76,2.77l0,0c3.06,4.16,2.85,8.61-.55,11.11A5.88,5.88,0,0,1,217.61,175Zm5.5-10.29,0,0c-2.45-3.34-5.67-4.23-8.31-2.28s-2.78,5.36-.35,8.67l0,0c2.44,3.31,5.74,4.21,8.39,2.27S225.57,168,223.11,164.67Z" transform="translate(-22.33 -24.24)" id="path217" />
    <path class="cls-4" d="M230.17,164.36l0,0c-1.53-2.47-.58-5,2.57-7.29l4.25-3-.82-1.33c-1.29-2.09-3.24-2.41-5.54-1-1.92,1.19-2.8,2.8-2.3,4.44v0l-1.76,1.08,0-.06c-1-2.5.22-5.28,3.17-7.09,3.32-2.06,6.34-1.52,8.19,1.48l6,9.71-1.76,1.09-1.51-2.44-.16.09a5.84,5.84,0,0,1-3,5.55C234.74,167.28,231.73,166.89,230.17,164.36Zm6.7-.51c2.55-1.58,3.39-4.51,2-6.76l-1-1.65-4,2.88c-2.31,1.65-2.91,3.28-1.91,4.89v0C232.93,164.86,235,165,236.87,163.85Z" transform="translate(-22.33 -24.24)" id="path219" />
    <path class="cls-4" d="M240.71,143.9l1.82-.93,1.34,2.61.18-.09a5.36,5.36,0,0,1,3.24-5.27c3.31-1.7,6.22-.68,8,2.78l5,9.66-1.82.93-4.72-9.2c-1.45-2.83-3.48-3.62-6.06-2.3s-3.45,4.11-2,6.91l4.52,8.83-1.82.94Z" transform="translate(-22.33 -24.24)" id="path221" />
    <path class="cls-4" d="M260.89,143.13v0c-2-4.79-.68-9,3.24-10.66a6,6,0,0,1,6.54,1.13l.17-.07-3.77-9.17,1.91-.78,8.89,21.6-1.9.79-1.28-3.09-.17.07a5.9,5.9,0,0,1-3.82,5.48C266.79,150,262.85,147.89,260.89,143.13Zm11.93-4.93v0c-1.57-3.8-4.55-5.46-7.59-4.21s-4,4.51-2.41,8.33v0c1.58,3.83,4.52,5.48,7.58,4.23S274.39,142,272.82,138.2Z" transform="translate(-22.33 -24.24)" id="path223" />
    <path class="cls-4" d="M297,129.65a3.46,3.46,0,0,1-2.4,4.32h0a3.47,3.47,0,0,1-4.32-2.41v0a3.47,3.47,0,0,1,2.42-4.31h0a3.46,3.46,0,0,1,4.31,2.4Z" transform="translate(-22.33 -24.24)" id="path225" />
  </g>
  <path class="cls-6" d="M360.37,24.24c-186.69,0-338,151.35-338,338.05s151.35,338,338,338,338-151.35,338-338S547.07,24.24,360.37,24.24Zm0,635.19c-163.55,0-296.14-132.59-296.14-296.14S196.82,67.14,360.37,67.14,656.52,199.73,656.52,363.29,523.93,659.43,360.37,659.43Z" transform="translate(-22.33 -24.24)" id="path229" />
  <path class="cls-7" d="M360.37,67.14c-163.55,0-296.14,132.59-296.14,296.15S196.82,659.43,360.37,659.43,656.52,526.84,656.52,363.29,523.93,67.14,360.37,67.14Zm0,565.09c-149.08,0-269.94-120.86-269.94-269.94s120.86-270,269.94-270,270,120.86,270,270S509.46,632.23,360.37,632.23Z" transform="translate(-22.33 -24.24)" id="path231" />
</svg>
