<?xml version="1.0" encoding="UTF-8" standalone="no"?>
<!-- Created with Inkscape (http://www.inkscape.org/) -->

<svg
   width="1423px"
   height="2308px"
   viewBox="0 0 1423 2308"
   version="1.1"
   id="svg856"
   sodipodi:docname="iphone.svg"
   xml:space="preserve"
   inkscape:version="1.2.2 (732a01da63, 2022-12-09)"
   xmlns:inkscape="http://www.inkscape.org/namespaces/inkscape"
   xmlns:sodipodi="http://sodipodi.sourceforge.net/DTD/sodipodi-0.dtd"
   xmlns:xlink="http://www.w3.org/1999/xlink"
   xmlns="http://www.w3.org/2000/svg"
   xmlns:svg="http://www.w3.org/2000/svg"><sodipodi:namedview
     id="namedview858"
     pagecolor="#505050"
     bordercolor="#eeeeee"
     borderopacity="1"
     inkscape:showpageshadow="0"
     inkscape:pageopacity="0"
     inkscape:pagecheckerboard="0"
     inkscape:deskcolor="#505050"
     inkscape:document-units="mm"
     showgrid="false"
     inkscape:zoom="0.4244847"
     inkscape:cx="720.87404"
     inkscape:cy="162.55003"
     inkscape:window-width="3008"
     inkscape:window-height="1506"
     inkscape:window-x="0"
     inkscape:window-y="784"
     inkscape:window-maximized="0"
     inkscape:current-layer="background" /><defs
     id="defs853"><linearGradient
       inkscape:collect="always"
       id="linearGradient31786"><stop
         style="stop-color:#9bc6e1;stop-opacity:1;"
         offset="0"
         id="stop31782" /><stop
         style="stop-color:#000000;stop-opacity:0;"
         offset="1"
         id="stop31784" /></linearGradient><linearGradient
       id="linearGradient31395"><stop
         style="stop-color:#5fc7df;stop-opacity:1;"
         offset="0"
         id="stop31399" /><stop
         style="stop-color:#000000;stop-opacity:0;"
         offset="1"
         id="stop31401" /></linearGradient><linearGradient
       id="linearGradient31395-1"><stop
         style="stop-color:#248da3;stop-opacity:1;"
         offset="0.15434083"
         id="stop31391" /><stop
         style="stop-color:#1a6676;stop-opacity:0.7254902;"
         offset="0.71382636"
         id="stop31772" /><stop
         style="stop-color:#000000;stop-opacity:0;"
         offset="1"
         id="stop31393" /></linearGradient><linearGradient
       inkscape:collect="always"
       xlink:href="#linearGradient31395-1"
       id="linearGradient31410"
       x1="387.42804"
       y1="1500.434"
       x2="714.87769"
       y2="1500.434"
       gradientUnits="userSpaceOnUse" /><filter
       inkscape:collect="always"
       style="color-interpolation-filters:sRGB"
       id="filter31412"
       x="-0.026972986"
       y="-0.023330068"
       width="1.0543337"
       height="1.0473929"><feGaussianBlur
         inkscape:collect="always"
         stdDeviation="3.4134286"
         id="feGaussianBlur31414" /></filter><linearGradient
       inkscape:collect="always"
       xlink:href="#linearGradient31786"
       id="linearGradient31788"
       x1="891.2882"
       y1="702.99435"
       x2="1210.3289"
       y2="702.99435"
       gradientUnits="userSpaceOnUse" /><filter
       inkscape:collect="always"
       style="color-interpolation-filters:sRGB"
       id="filter31790"
       x="-0.0060401659"
       y="-0.0049713009"
       width="1.0120803"
       height="1.0099426"><feGaussianBlur
         inkscape:collect="always"
         stdDeviation="0.80294113"
         id="feGaussianBlur31792" /></filter><inkscape:path-effect
       only_selected="false"
       apply_with_weight="true"
       apply_no_weight="true"
       helper_size="0"
       steps="2"
       weight="33.333333"
       is_visible="true"
       id="path-effect1025"
       effect="bspline" /><inkscape:path-effect
       only_selected="false"
       apply_with_weight="true"
       apply_no_weight="true"
       helper_size="0"
       steps="2"
       weight="33.333333"
       is_visible="true"
       id="path-effect1021"
       effect="bspline" /><inkscape:path-effect
       only_selected="false"
       apply_with_weight="true"
       apply_no_weight="true"
       helper_size="0"
       steps="2"
       weight="33.333333"
       is_visible="true"
       id="path-effect1025-1"
       effect="bspline" /><inkscape:path-effect
       only_selected="false"
       apply_with_weight="true"
       apply_no_weight="true"
       helper_size="0"
       steps="2"
       weight="33.333333"
       is_visible="true"
       id="path-effect1021-7"
       effect="bspline" /></defs><g
     inkscape:label="Background"
     inkscape:groupmode="layer"
     id="background"><image
       width="1423"
       height="2308"
       preserveAspectRatio="none"
       xlink:href="above_horizon.png"
       id="above_horizon"
       x="0"
       y="0"
       inkscape:svg-dpi="1"
       inkscape:label="above_horizon"
       sodipodi:absref="/Users/vietngoc/Downloads/floor/floorplan 4/iphone/ip_floorplan/above_horizon.png"
       href="/local/hafloor/ip_floorplan/above_horizon.png" /><image
       width="1423"
       height="2308"
       preserveAspectRatio="none"
       xlink:href="bellow_horizon.png"
       id="bellow_horizon"
       x="0"
       y="0"
       inkscape:label="bellow_horizon"
       inkscape:svg-dpi="1"
       sodipodi:absref="/Users/vietngoc/Downloads/floor/floorplan 4/iphone/ip_floorplan/bellow_horizon.png"
       href="/local/hafloor/ip_floorplan/bellow_horizon.png"
       style="display:inline" /><g
       inkscape:groupmode="layer"
       id="light-overlays"
       inkscape:label="Light Overlays"
       style="display:inline"><image
         width="1423"
         height="2308"
         preserveAspectRatio="none"
         xlink:href="living_lamp.png"
         id="light_overlay.living_room_floor_lamp"
         x="0"
         y="0"
         inkscape:svg-dpi="1"
         inkscape:label="light_overlay.living_room_floor_lamp"
         href="/local/hafloor/ip_floorplan/living_lamp.png"
         sodipodi:absref="/Users/vietngoc/Downloads/floor/floorplan 4/iphone/ip_floorplan/living_lamp.png" /><image
         width="1423"
         height="2308"
         preserveAspectRatio="none"
         xlink:href="living_main.png"
         id="light_overlay.shelly_rgbw_kitchen_led_strip"
         x="0"
         y="0"
         inkscape:svg-dpi="1"
         inkscape:label="light_overlay.shelly_rgbw_kitchen_led_strip"
         href="/local/hafloor/ip_floorplan/living_main.png"
         sodipodi:absref="/Users/vietngoc/Downloads/floor/floorplan 4/iphone/ip_floorplan/living_main.png" /><image
         width="1423"
         height="2308"
         preserveAspectRatio="none"
         xlink:href="kitchen_table.png"
         id="light_overlay.kitchen_table_light"
         x="0"
         y="0"
         inkscape:svg-dpi="1"
         inkscape:label="light_overlay.kitchen_table_light"
         href="/local/hafloor/ip_floorplan/kitchen_table.png"
         sodipodi:absref="/Users/vietngoc/Downloads/floor/floorplan 4/iphone/ip_floorplan/kitchen_table.png" /><image
         width="1423"
         height="2308"
         preserveAspectRatio="none"
         xlink:href="kitchen_main.png"
         id="light_overlay.kitchen_main_light"
         x="0"
         y="0"
         inkscape:svg-dpi="1"
         inkscape:label="light_overlay.kitchen_main_light"
         href="/local/hafloor/ip_floorplan/kitchen_main.png"
         sodipodi:absref="/Users/vietngoc/Downloads/floor/floorplan 4/iphone/ip_floorplan/kitchen_main.png" /><image
         width="1423"
         height="2308"
         preserveAspectRatio="none"
         xlink:href="bathroom.png"
         id="light_overlay.bathroom_group"
         x="0"
         y="0"
         inkscape:svg-dpi="1"
         inkscape:label="light_overlay.bathroom_group"
         href="/local/hafloor/ip_floorplan/bathroom.png"
         sodipodi:absref="/Users/vietngoc/Downloads/floor/floorplan 4/iphone/ip_floorplan/bathroom.png" /><image
         width="1423"
         height="2308"
         preserveAspectRatio="none"
         xlink:href="utility.png"
         id="light_overlay.utility_room_light"
         x="0"
         y="0"
         inkscape:svg-dpi="1"
         inkscape:label="light_overlay.utility_room_light"
         href="/local/hafloor/ip_floorplan/utility.png"
         sodipodi:absref="/Users/vietngoc/Downloads/floor/floorplan 4/iphone/ip_floorplan/utility.png" /><image
         width="1423"
         height="2308"
         preserveAspectRatio="none"
         xlink:href="hallway.png"
         id="light_overlay.hallway_group"
         x="0"
         y="0"
         inkscape:svg-dpi="1"
         inkscape:label="light_overlay.hallway_group"
         href="/local/hafloor/ip_floorplan/hallway.png"
         sodipodi:absref="/Users/vietngoc/Downloads/floor/floorplan 4/iphone/ip_floorplan/hallway.png" /><image
         width="1423"
         height="2308"
         preserveAspectRatio="none"
         xlink:href="office_table.png"
         id="light_overlay.office_led_light_strip"
         x="0"
         y="0"
         inkscape:svg-dpi="1"
         inkscape:label="light_overlay.office_led_light_strip"
         href="/local/hafloor/ip_floorplan/office_table.png"
         sodipodi:absref="/Users/vietngoc/Downloads/floor/floorplan 4/iphone/ip_floorplan/office_table.png" /><image
         width="1423"
         height="2308"
         preserveAspectRatio="none"
         id="light_overlay.office_lamp_bulb"
         x="0"
         y="0"
         inkscape:svg-dpi="1"
         inkscape:label="light_overlay.office_lamp_bulb"
         href="/local/hafloor/ip_floorplan/office_lamp.png"
         sodipodi:absref="/Users/vietngoc/Downloads/floor/floorplan 4/iphone/ip_floorplan/office_lamp.png"
         xlink:href="office_lamp.png" /><image
         width="1423"
         height="2308"
         preserveAspectRatio="none"
         id="light_overlay.vanesska_ceiling_light"
         x="0"
         y="0"
         inkscape:svg-dpi="1"
         inkscape:label="light_overlay.vanesska_ceiling_light"
         href="/local/hafloor/ip_floorplan/kidsroom.png"
         sodipodi:absref="/Users/vietngoc/Downloads/floor/floorplan 4/iphone/ip_floorplan/kidsroom.png"
         xlink:href="kidsroom.png" /><image
         width="1423"
         height="2308"
         preserveAspectRatio="none"
         id="light_overlay.bedroom_closet_light"
         x="0"
         y="0"
         inkscape:svg-dpi="1"
         inkscape:label="light_overlay.bedroom_closet_light"
         href="/local/hafloor/ip_floorplan/bedroom_closet.png"
         sodipodi:absref="/Users/vietngoc/Downloads/floor/floorplan 4/iphone/ip_floorplan/bedroom_closet.png"
         xlink:href="bedroom_closet.png" /><image
         width="1423"
         height="2308"
         preserveAspectRatio="none"
         id="light_overlay.shower_room_mirror_light"
         x="0"
         y="0"
         inkscape:svg-dpi="1"
         inkscape:label="light_overlay.shower_room_mirror_light"
         href="/local/hafloor/ip_floorplan/shower.png"
         sodipodi:absref="/Users/vietngoc/Downloads/floor/floorplan 4/iphone/ip_floorplan/shower.png"
         xlink:href="shower.png" /><image
         width="1423"
         height="2308"
         preserveAspectRatio="none"
         id="light_overlay.bed_light"
         x="0"
         y="0"
         inkscape:svg-dpi="1"
         inkscape:label="light_overlay.bed_light"
         href="/local/hafloor/ip_floorplan/bedroom_main.png"
         sodipodi:absref="/Users/vietngoc/Downloads/floor/floorplan 4/iphone/ip_floorplan/bedroom_main.png"
         xlink:href="bedroom_main.png" /></g></g><g
     inkscape:groupmode="layer"
     id="areas"
     inkscape:label="Areas"
     style="fill:#40371d;fill-opacity:1"><g
       inkscape:groupmode="layer"
       id="area.living_room"
       inkscape:label="Living Room"><path
         style="fill:none;fill-opacity:1;stroke:#000000"
         d="M 531.69333,1299.9359 953.79272,1463.7843 839.85844,1761.0985 421.01431,1592.9098 Z"
         id="path29682" /><use
         id="light.shelly_rgbw_kitchen_led_strip"
         inkscape:label="light.shelly_rgbw_kitchen_led_strip"
         href="#path29682"
         style="fill:#40371d;fill-opacity:1" /></g><g
       inkscape:groupmode="layer"
       id="area.kitchen"
       inkscape:label="Kitchen"><path
         style="fill:none;fill-opacity:1;stroke:#000000"
         d="m 531.85661,1300.1878 422.15522,163.5819 30.3306,-79.0125 12.74394,8.411 68.07043,-186.8742 -441.23491,-169.195 z"
         id="path29982" /><use
         id="light.kitchen_main_light"
         inkscape:label="light.kitchen_main_light"
         href="#path1435" /></g><g
       inkscape:groupmode="layer"
       id="area.bathroom"
       inkscape:label="Bathroom"><path
         style="fill:none;fill-opacity:1;stroke:#000000"
         d="M 389.70669,860.09294 602.8963,941.26147 511.94844,1181.3443 290.44639,1095.2861 Z"
         id="path30031" /><use
         id="light.bathroom_group"
         inkscape:label="light.bathroom_group"
         href="#path30031" /></g><g
       inkscape:groupmode="layer"
       id="area.utility"
       inkscape:label="Utility"><path
         style="fill:none;fill-opacity:1;stroke:#000000"
         d="M 373.57078,853.73637 275.28842,1092.3523 74.322983,1017.0513 164.78188,771.58992 Z"
         id="path30137" /><use
         id="light.utility_room_light"
         inkscape:label="light.utility_room_light"
         href="#path30137" /></g><g
       inkscape:groupmode="layer"
       id="area.office"
       inkscape:label="Office"><path
         style="fill:none;fill-opacity:1;stroke:#000000"
         d="M 209.27787,554.48857 372.59285,120.28588 701.17867,244.97246 537.86369,746.6526 l -5.8676,-1.95587 -8.80141,-20.53661 -78.72368,-28.36009 14.66901,-46.94083 z"
         id="path30209" /><use
         id="light.office_led_light_strip"
         inkscape:label="light.office_led_light_strip"
         href="#path30209" /><use
         id="light.officelamp"
         inkscape:label="light.officelamp"
         href="#path30209" /></g><g
       inkscape:groupmode="layer"
       id="area.hallway"
       inkscape:label="Hallway"><path
         style="fill:none;fill-opacity:1;stroke:#000000"
         d="m 261.59734,679.17516 -41.56219,98.77133 404.86467,154.51357 3.91174,11.24624 -5.86761,17.60281 119.79692,44.98499 38.13942,-110.50657 -118.33001,-42.05116 -1.4669,-20.53661 -210.74478,-81.16852 -1.95587,7.82347 -64.05467,-22.49248 -9.29037,-19.55868 z"
         id="path30310" /><use
         id="light.hallway_group"
         inkscape:label="light.hallway_group"
         href="#path30310" /></g><g
       inkscape:groupmode="layer"
       id="area.kidsroom"
       inkscape:label="Kids Room"><path
         style="fill:none;fill-opacity:1;stroke:#000000"
         d="m 715.84768,253.2849 -162.33704,497.27944 22.00351,10.75727 -0.48896,-16.62488 80.19058,30.80492 1.95587,16.13591 31.29389,12.22418 -8.31244,22.98145 114.90724,42.05116 195.09783,-514.88225 z"
         id="path30387" /><use
         id="light.vanesska_ceiling_light"
         inkscape:label="light.vanesska_ceiling_light"
         href="#path30387" /></g><g
       inkscape:groupmode="layer"
       id="area.bedroom"
       inkscape:label="Bedroom"><path
         style="fill:none;fill-opacity:1;stroke:#000000"
         d="m 1003.3603,361.34661 375.0377,140.82249 -54.7643,119.79692 -47.4298,39.11736 -66.4996,178.47295 19.0698,-8.80141 -39.6064,93.88167 -210.25578,-69.92228 -48.40773,150.60179 -150.60183,-58.18703 27.38215,-62.09881 z"
         id="path30466" /><use
         id="light.bed_light"
         inkscape:label="light.bed_light"
         href="#path30466" /><path
         style="fill:none;fill-opacity:1;stroke:#000000"
         d="M 930.61883,1005.3746 979.02993,854.28692 835.59799,807.67717 779.75636,946.83092 Z"
         id="path30500" /><use
         id="light.bedroom_closet_light"
         inkscape:label="light.bedroom_closet_light"
         href="#path981" /></g><g
       inkscape:groupmode="layer"
       id="area.shower"
       inkscape:label="Shower"><path
         style="fill:none;fill-opacity:1;stroke:#000000"
         d="m 986.46047,865.77049 203.77693,68.6762 -74.7557,202.65111 -199.94911,-76.3319 z"
         id="path30583" /><use
         id="light.shower_room_mirror_light"
         inkscape:label="light.shower_room_mirror_light"
         href="#path30583" /></g></g><g
     inkscape:groupmode="layer"
     id="entities"
     inkscape:label="Entities"
     inkscape:highlight-color="#f3e521"><ellipse
       style="fill:none;fill-opacity:1;stroke:#000000"
       id="light.living_room_floor_lamp"
       cx="808.03809"
       cy="1778.4913"
       rx="35.052299"
       ry="26.977425"
       inkscape:label="light.living_room_floor_lamp" /><path
       style="fill:url(#linearGradient31410);fill-opacity:1;stroke:#000000;opacity:0.914;filter:url(#filter31412)"
       d="m 388.0321,1559.9731 87.13212,-232.8193 16.81006,-13.1678 222.17289,1.4008 -145.12681,371.2221 z"
       id="media_player.living_room_tv"
       inkscape:label="media_player.living_room_tv" /><path
       d="m 952.9786,509.176 -61.6904,163.43353 220.9805,224.20318 98.0602,-334.23307 z"
       id="media_player.bedroom_tv"
       inkscape:label="media_player.bedroom_tv"
       style="fill-opacity:1;fill:url(#linearGradient31788);opacity:0.70000001;filter:url(#filter31790)" /><ellipse
       style="opacity:0.7;fill:none;fill-opacity:1;stroke:#000000"
       id="light.office_lamp_bulb"
       cx="590.6626"
       cy="316.73877"
       rx="35.448963"
       ry="34.988586"
       inkscape:label="light.office_lamp_bulb" /><path
       style="opacity:0.7;fill:none;fill-opacity:1;stroke:#000000"
       d="m 702.99436,1193.2949 162.0524,62.6112 -17.03392,46.9584 9.20752,4.6037 -11.96978,32.2264 -172.18067,-67.6753 z"
       id="light.kitchen_table_light"
       inkscape:label="light.kitchen_table_light" /><path
       style="opacity:0;fill:none;fill-opacity:0;stroke:none;stroke-width:1.0015748;stroke-dasharray:none"
       d="M 287.93222,360.63511 215.22934,552.82987 501.00207,652.88632 567.94631,457.81224 Z"
       id="input_boolean.office_mode"
       inkscape:label="input_boolean.office_mode" /></g><g
     inkscape:groupmode="layer"
     id="doors"
     inkscape:label="Doors"><path
       style="opacity:0.7;fill:none;fill-opacity:1;stroke:#000000"
       d="m 191.51647,646.36809 60.30928,58.46777 -30.38483,70.89793 -67.21492,-33.60746 z"
       id="lock.nuki_neklanka_byt_lock"
       inkscape:label="lock.nuki_neklanka_byt_lock" /><path
       style="opacity:0.7;fill:none;fill-opacity:1;stroke:#000000"
       d="m 788.25374,281.58446 89.5466,32.4378 -24.21413,114.67447 -78.42942,-29.08741 z"
       id="binary_sensor.contact_sensor_kid_balcony"
       inkscape:label="binary_sensor.contact_sensor_kid_balcony" /><path
       style="opacity:0.7;fill:none;fill-opacity:1;stroke:#000000"
       d="m 1051.8728,502.20823 53.4461,-97.90756 87.7712,32.2519 -65.4253,94.45201 z"
       id="binary_sensor.contact_sensor_bedroom_balcony"
       inkscape:label="binary_sensor.contact_sensor_bedroom_balcony" /><path
       style="opacity:0.7;fill:none;fill-opacity:1;stroke:#000000"
       d="m 990.08636,1389.8726 45.43024,30.1891 -33.4132,88.5157 -39.56829,-45.1371 z"
       id="binary_sensor.contact_sensor_garden_door"
       inkscape:label="binary_sensor.contact_sensor_garden_door" /><path
       style="opacity:0.7;fill:none;fill-opacity:1;stroke:#000000"
       d="m 607.00677,1697.0397 -13.77563,80.8951 196.08282,72.9815 -9.37915,-87.3433 z"
       id="binary_sensor.contact_sensor_terrace_door"
       inkscape:label="binary_sensor.contact_sensor_terrace_door" /></g><g
     inkscape:groupmode="layer"
     id="cover"
     inkscape:label="Covers"><path
       style="opacity:0.7;fill:none;fill-opacity:1;stroke:#000000"
       d="m 1279.6441,676.77352 45.4787,-36.18887 -58.5122,159.7302 -41.0418,25.0965 z"
       id="cover.bedroom_shutters"
       inkscape:label="cover.bedroom_shutters" /><path
       style="opacity:0.7;fill:none;fill-opacity:1;stroke:#000000"
       d="m 992.88867,1401.672 34.83823,27.3728 -24.6582,65.8306 -32.57601,-36.1955 z"
       id="cover.door"
       inkscape:label="cover.door" /><path
       style="opacity:0.7;fill:none;fill-opacity:1;stroke:#000000"
       d="m 974.56468,1490.5772 21.4911,25.7893 -38.45775,101.5738 -19.00266,-33.2547 z"
       id="cover.window"
       inkscape:label="cover.window" /><g
       id="cover.living_room_terrace"
       inkscape:label="cover.living_room_terrace"
       style="fill:none;fill-opacity:1"><path
         style="opacity:0.7;fill:none;fill-opacity:1;stroke:#000000"
         d="m 457.33361,1644.2908 145.27545,55.5943 -11.76812,74.6667 -166.37692,-64.116 z"
         id="path32104" /><path
         style="opacity:0.7;fill:none;fill-opacity:1;stroke:#000000"
         d="m 612.75399,1703.9431 -13.39131,73.0435 164.75372,62.4928 -6.49275,-79.9421 z"
         id="path32106" /></g></g><g
     inkscape:groupmode="layer"
     id="icons"
     inkscape:label="Icons"
     transform="translate(-485.37329,1488.6149)"><path
       d="m 690.72696,-770.06653 a 3.8340816,2.8507001 79.631357 0 0 -1.52668,-5.17753 c -1.47481,-1.02821 -3.16607,-0.3564 -3.78792,1.47229 a 3.8340816,2.8507001 79.631357 0 0 1.52676,5.17746 3.8340816,2.8507001 79.631357 0 0 3.78784,-1.47222 m -8.56602,-18.3115 a 3.8340816,2.8507001 79.631357 0 1 3.78785,-1.47223 l 13.28646,9.26311 a 3.8340816,2.8507001 79.631357 0 1 1.52672,5.17743 l -6.78365,19.94953 a 3.8340816,2.8507001 79.631357 0 1 -3.78783,1.47224 l -13.28644,-9.2631 c -1.4748,-1.02819 -2.14853,-3.34884 -1.5267,-5.17754 l 0.56542,-1.66246 -2.65704,-1.85299 a 9.5852039,7.1267503 79.631357 0 1 -3.81672,-12.94384 9.5852039,7.1267503 79.631357 0 1 9.46965,-3.68066 l 2.65705,1.85299 0.56534,-1.66241 m -10.035,5.34319 a 5.7511224,4.2760501 79.631357 0 0 2.29001,7.76628 l 2.65703,1.85298 3.39181,-9.97472 -2.65703,-1.85297 a 5.7511224,4.2760501 79.631357 0 0 -5.68182,2.20843 z"
       id="icon-front-door"
       inkscape:transform-center-x="3.4185578"
       inkscape:transform-center-y="1.4172246"
       style="stroke-width:1.65301" /><g
       id="icon-phone-rotate"
       transform="matrix(1.8897638,0,0,1.8897638,534.37518,-1441.9654)"
       style="stroke-width:0.529167"
       inkscape:label="icon-phone-rotate">
	<circle
   style="display:inline;opacity:0.2;fill:#ffffff;stroke-width:1.00157"
   id="path1065"
   cx="1811.4303"
   cy="-1392.1267"
   r="94.48819"
   transform="matrix(0.52916666,0,0,0.52916666,-929.76387,768.02646)" /><circle
   cx="4.5999999"
   cy="19"
   r="1"
   id="circle4153"
   style="stroke-width:0.529167" />
	<circle
   cx="11.8"
   cy="19"
   r="1"
   id="circle4155"
   style="stroke-width:0.529167" />
	<circle
   cx="8.1999998"
   cy="19"
   r="1"
   id="circle4157"
   style="stroke-width:0.529167" />
	<circle
   cx="15.399"
   cy="19"
   r="1"
   id="circle4159"
   style="stroke-width:0.529167" />
	<path
   d="M 1,20 C 1.27,20 1.52,19.89 1.71,19.71 1.89,19.52 2,19.26 2,19 2,18.74 1.89,18.48 1.71,18.29 1.34,17.92 0.66,17.92 0.29,18.29 0.109,18.48 0,18.73 0,19 0,19.27 0.109,19.52 0.29,19.71 0.479,19.89 0.729,20 1,20 Z"
   id="path4161"
   style="stroke-width:0.529167" />
	<path
   d="m 1,34.67 c 0.55,0 1,-0.45 1,-1 0,-0.56 -0.45,-1 -1,-1 -0.55,0 -1,0.44 -1,1 0,0.55 0.45,1 1,1 z"
   id="path4163"
   style="stroke-width:0.529167" />
	<path
   d="m 1,38.33 c 0.55,0 1,-0.44 1,-1 0,-0.55 -0.45,-1 -1,-1 -0.55,0 -1,0.45 -1,1 0,0.56 0.45,1 1,1 z"
   id="path4165"
   style="stroke-width:0.529167" />
	<path
   d="m 1,23.67 c 0.55,0 1,-0.45 1,-1 0,-0.56 -0.45,-1 -1,-1 -0.55,0 -1,0.44 -1,1 0,0.55 0.45,1 1,1 z"
   id="path4167"
   style="stroke-width:0.529167" />
	<circle
   cx="1"
   cy="30"
   r="1"
   id="circle4169"
   style="stroke-width:0.529167" />
	<path
   d="m 1,27.33 c 0.55,0 1,-0.44 1,-1 0,-0.55 -0.45,-1 -1,-1 -0.55,0 -1,0.45 -1,1 0,0.56 0.45,1 1,1 z"
   id="path4171"
   style="stroke-width:0.529167" />
	<path
   d="M 2,41 C 2,40.74 1.89,40.48 1.71,40.29 1.34,39.92 0.66,39.92 0.29,40.29 0.109,40.48 0,40.74 0,41 0,41.27 0.109,41.52 0.29,41.7 0.479,41.89 0.729,42 1,42 1.27,42 1.52,41.89 1.71,41.71 1.89,41.52 2,41.26 2,41 Z"
   id="path4173"
   style="stroke-width:0.529167" />
	<circle
   cx="11.8"
   cy="41"
   r="1"
   id="circle4175"
   style="stroke-width:0.529167" />
	<circle
   cx="8.1999998"
   cy="41"
   r="1"
   id="circle4177"
   style="stroke-width:0.529167" />
	<circle
   cx="15.399"
   cy="41"
   r="1"
   id="circle4179"
   style="stroke-width:0.529167" />
	<circle
   cx="4.5999999"
   cy="41"
   r="1"
   id="circle4181"
   style="stroke-width:0.529167" />
	<circle
   cx="46.25"
   cy="41"
   r="1"
   id="circle4183"
   style="stroke-width:0.529167" />
	<circle
   cx="54.75"
   cy="41"
   r="1"
   id="circle4185"
   style="stroke-width:0.529167" />
	<circle
   cx="50.5"
   cy="41"
   r="1"
   id="circle4187"
   style="stroke-width:0.529167" />
	<path
   d="M 58.29,40.29 C 58.109,40.48 58,40.74 58,41 c 0,0.26 0.109,0.52 0.29,0.71 0.189,0.18 0.45,0.29 0.71,0.29 0.27,0 0.52,-0.11 0.71,-0.29 C 59.89,41.52 60,41.26 60,41 c 0,-0.26 -0.11,-0.52 -0.29,-0.71 -0.37,-0.37 -1.05,-0.37 -1.42,0 z"
   id="path4189"
   style="stroke-width:0.529167" />
	<path
   d="m 59,32.67 c -0.55,0 -1,0.44 -1,1 0,0.55 0.45,1 1,1 0.55,0 1,-0.45 1,-1 0,-0.56 -0.45,-1 -1,-1 z"
   id="path4191"
   style="stroke-width:0.529167" />
	<circle
   cx="59"
   cy="30"
   r="1"
   id="circle4193"
   style="stroke-width:0.529167" />
	<path
   d="m 59,21.67 c -0.55,0 -1,0.44 -1,1 0,0.55 0.45,1 1,1 0.55,0 1,-0.45 1,-1 0,-0.56 -0.45,-1 -1,-1 z"
   id="path4195"
   style="stroke-width:0.529167" />
	<path
   d="m 59,25.33 c -0.55,0 -1,0.45 -1,1 0,0.56 0.45,1 1,1 0.55,0 1,-0.44 1,-1 0,-0.55 -0.45,-1 -1,-1 z"
   id="path4197"
   style="stroke-width:0.529167" />
	<path
   d="m 59,36.33 c -0.55,0 -1,0.45 -1,1 0,0.56 0.45,1 1,1 0.55,0 1,-0.44 1,-1 0,-0.55 -0.45,-1 -1,-1 z"
   id="path4199"
   style="stroke-width:0.529167" />
	<path
   d="M 58.29,18.29 C 58.109,18.48 58,18.74 58,19 c 0,0.26 0.109,0.52 0.29,0.71 0.189,0.18 0.45,0.29 0.71,0.29 0.26,0 0.52,-0.11 0.71,-0.29 C 59.89,19.52 60,19.26 60,19 c 0,-0.26 -0.11,-0.52 -0.29,-0.71 -0.38,-0.37 -1.04,-0.37 -1.42,0 z"
   id="path4201"
   style="stroke-width:0.529167" />
	<circle
   cx="46.25"
   cy="19"
   r="1"
   id="circle4203"
   style="stroke-width:0.529167" />
	<circle
   cx="50.5"
   cy="19"
   r="1"
   id="circle4205"
   style="stroke-width:0.529167" />
	<circle
   cx="54.75"
   cy="19"
   r="1"
   id="circle4207"
   style="stroke-width:0.529167" />
	<path
   d="m 54,14 v 0 l -2.4,-1.8 c -0.44,-0.333 -1.068,-0.242 -1.399,0.2 -0.332,0.442 -0.242,1.069 0.2,1.4 l 4,3 c 0.019,0.014 0.042,0.019 0.062,0.032 0.031,0.02 0.057,0.046 0.091,0.063 0.017,0.008 0.036,0.005 0.052,0.012 0.126,0.055 0.258,0.093 0.393,0.093 0,0 0,0 0,0 v 0 c 0.134,0 0.264,-0.037 0.389,-0.09 0.035,-0.015 0.066,-0.033 0.1,-0.052 0.036,-0.021 0.077,-0.032 0.111,-0.058 l 4,-3 c 0.442,-0.331 0.532,-0.958 0.2,-1.4 C 59.468,11.958 58.841,11.867 58.4,12.2 L 56,14 C 56,6.618 50.253,0.567 43,0.051 V 0 H 18 V 57.949 C 11.85,57.438 7,52.279 7,46 v 0 l 2.4,1.8 c 0.18,0.135 0.39,0.2 0.599,0.2 0.305,0 0.604,-0.138 0.801,-0.4 0.332,-0.442 0.242,-1.069 -0.2,-1.4 l -4,-3 C 6.585,43.189 6.567,43.187 6.552,43.177 6.517,43.153 6.486,43.125 6.448,43.105 6.399,43.081 6.346,43.07 6.295,43.054 6.268,43.046 6.243,43.034 6.216,43.028 6.106,43.004 5.994,42.998 5.883,43.011 5.856,43.014 5.832,43.024 5.805,43.029 5.717,43.047 5.634,43.076 5.553,43.117 5.522,43.132 5.494,43.147 5.465,43.166 5.443,43.179 5.42,43.186 5.4,43.2 l -4,3 c -0.442,0.331 -0.532,0.958 -0.2,1.4 0.331,0.441 0.957,0.532 1.399,0.2 L 5,46 c 0,7.382 5.747,13.433 13,13.949 V 60 H 43 V 2.051 C 49.15,2.562 54,7.721 54,14 Z"
   id="path4209"
   style="stroke-width:0.529167" />
</g></g></svg>
