<svg id="svg856" width="1423px" height="2308px" version="1.1" viewBox="0 0 1423 2308" xml:space="preserve" xmlns="http://www.w3.org/2000/svg" xmlns:xlink="http://www.w3.org/1999/xlink"><defs id="defs853"><linearGradient id="linearGradient31410" x1="387.43" x2="714.88" y1="1500.4" y2="1500.4" gradientUnits="userSpaceOnUse"><stop id="stop31391" stop-color="#248da3" offset=".15434"/><stop id="stop31772" stop-color="#1a6676" stop-opacity=".72549" offset=".71383"/><stop id="stop31393" stop-opacity="0" offset="1"/></linearGradient><filter id="filter31412" x="-.026973" y="-.02333" width="1.0543" height="1.0474" color-interpolation-filters="sRGB"><feGaussianBlur id="feGaussianBlur31414" stdDeviation="3.4134286"/></filter><linearGradient id="linearGradient31788" x1="891.29" x2="1210.3" y1="702.99" y2="702.99" gradientUnits="userSpaceOnUse"><stop id="stop31782" stop-color="#9bc6e1" offset="0"/><stop id="stop31784" stop-opacity="0" offset="1"/></linearGradient><filter id="filter31790" x="-.0060402" y="-.0049713" width="1.0121" height="1.0099" color-interpolation-filters="sRGB"><feGaussianBlur id="feGaussianBlur31792" stdDeviation="0.80294113"/></filter></defs><g id="background"><image id="above_horizon" width="1423" height="2308" href="/local/hafloor/ip_floorplan/above_horizon.png" preserveAspectRatio="none" xlink:href="file:///Users/vietngoc/Downloads/floor/floorplan%204/iphone/ip_floorplan/above_horizon.png"/><image id="bellow_horizon" width="1423" height="2308" href="/local/hafloor/ip_floorplan/bellow_horizon.png" preserveAspectRatio="none" xlink:href="file:///Users/vietngoc/Downloads/floor/floorplan%204/iphone/ip_floorplan/bellow_horizon.png"/><g id="light-overlays"><image id="light_overlay.living_room_floor_lamp" width="1423" height="2308" href="/local/hafloor/ip_floorplan/living_lamp.png" preserveAspectRatio="none" xlink:href="file:///Users/vietngoc/Downloads/floor/floorplan%204/iphone/ip_floorplan/living_lamp.png"/><image id="light_overlay.shelly_rgbw_kitchen_led_strip" width="1423" height="2308" href="/local/hafloor/ip_floorplan/living_main.png" preserveAspectRatio="none" xlink:href="file:///Users/vietngoc/Downloads/floor/floorplan%204/iphone/ip_floorplan/living_main.png"/><image id="light_overlay.kitchen_table_light" width="1423" height="2308" href="/local/hafloor/ip_floorplan/kitchen_table.png" preserveAspectRatio="none" xlink:href="file:///Users/vietngoc/Downloads/floor/floorplan%204/iphone/ip_floorplan/kitchen_table.png"/><image id="light_overlay.kitchen_main_light" width="1423" height="2308" href="/local/hafloor/ip_floorplan/kitchen_main.png" preserveAspectRatio="none" xlink:href="file:///Users/vietngoc/Downloads/floor/floorplan%204/iphone/ip_floorplan/kitchen_main.png"/><image id="light_overlay.bathroom_group" width="1423" height="2308" href="/local/hafloor/ip_floorplan/bathroom.png" preserveAspectRatio="none" xlink:href="file:///Users/vietngoc/Downloads/floor/floorplan%204/iphone/ip_floorplan/bathroom.png"/><image id="light_overlay.utility_room_light" width="1423" height="2308" href="/local/hafloor/ip_floorplan/utility.png" preserveAspectRatio="none" xlink:href="file:///Users/vietngoc/Downloads/floor/floorplan%204/iphone/ip_floorplan/utility.png"/><image id="light_overlay.hallway_group" width="1423" height="2308" href="/local/hafloor/ip_floorplan/hallway.png" preserveAspectRatio="none" xlink:href="file:///Users/vietngoc/Downloads/floor/floorplan%204/iphone/ip_floorplan/hallway.png"/><image id="light_overlay.office_led_light_strip" width="1423" height="2308" href="/local/hafloor/ip_floorplan/office_table.png" preserveAspectRatio="none" xlink:href="file:///Users/vietngoc/Downloads/floor/floorplan%204/iphone/ip_floorplan/office_table.png"/><image id="light_overlay.office_lamp_bulb" width="1423" height="2308" href="/local/hafloor/ip_floorplan/office_lamp.png" preserveAspectRatio="none" xlink:href="file:///Users/vietngoc/Downloads/floor/floorplan%204/iphone/ip_floorplan/office_lamp.png"/><image id="light_overlay.vanesska_ceiling_light" width="1423" height="2308" href="/local/hafloor/ip_floorplan/kidsroom.png" preserveAspectRatio="none" xlink:href="file:///Users/vietngoc/Downloads/floor/floorplan%204/iphone/ip_floorplan/kidsroom.png"/><image id="light_overlay.bedroom_closet_light" width="1423" height="2308" href="/local/hafloor/ip_floorplan/bedroom_closet.png" preserveAspectRatio="none" xlink:href="file:///Users/vietngoc/Downloads/floor/floorplan%204/iphone/ip_floorplan/bedroom_closet.png"/><image id="light_overlay.shower_room_mirror_light" width="1423" height="2308" href="/local/hafloor/ip_floorplan/shower.png" preserveAspectRatio="none" xlink:href="file:///Users/vietngoc/Downloads/floor/floorplan%204/iphone/ip_floorplan/shower.png"/><image id="light_overlay.bed_light" width="1423" height="2308" href="/local/hafloor/ip_floorplan/bedroom_main.png" preserveAspectRatio="none" xlink:href="file:///Users/vietngoc/Downloads/floor/floorplan%204/iphone/ip_floorplan/bedroom_main.png"/></g></g><g id="areas" fill="#40371d"><g id="area.living_room"><path id="path29682" d="m531.69 1299.9 422.1 163.85-113.93 297.31-418.84-168.19z" fill="none" stroke="#000"/><use id="light.shelly_rgbw_kitchen_led_strip" fill="#40371d" href="#path29682"/></g><g id="area.kitchen"><path id="path29982" d="m531.86 1300.2 422.16 163.58 30.331-79.012 12.744 8.411 68.07-186.87-441.23-169.2z" fill="none" stroke="#000"/><use id="light.kitchen_main_light" href="#path1435"/></g><g id="area.bathroom"><path id="path30031" d="m389.71 860.09 213.19 81.169-90.948 240.08-221.5-86.058z" fill="none" stroke="#000"/><use id="light.bathroom_group" href="#path30031"/></g><g id="area.utility"><path id="path30137" d="m373.57 853.74-98.282 238.62-200.97-75.301 90.459-245.46z" fill="none" stroke="#000"/><use id="light.utility_room_light" href="#path30137"/></g><g id="area.office"><path id="path30209" d="m209.28 554.49 163.31-434.2 328.59 124.69-163.31 501.68-5.8676-1.9559-8.8014-20.537-78.724-28.36 14.669-46.941z" fill="none" stroke="#000"/><use id="light.office_led_light_strip" href="#path30209"/><use id="light.officelamp" href="#path30209"/></g><g id="area.hallway"><path id="path30310" d="m261.6 679.18-41.562 98.771 404.86 154.51 3.9117 11.246-5.8676 17.603 119.8 44.985 38.139-110.51-118.33-42.051-1.4669-20.537-210.74-81.169-1.9559 7.8235-64.055-22.492-9.2904-19.559z" fill="none" stroke="#000"/><use id="light.hallway_group" href="#path30310"/></g><g id="area.kidsroom"><path id="path30387" d="m715.85 253.28-162.34 497.28 22.004 10.757-0.48896-16.625 80.191 30.805 1.9559 16.136 31.294 12.224-8.3124 22.981 114.91 42.051 195.1-514.88z" fill="none" stroke="#000"/><use id="light.vanesska_ceiling_light" href="#path30387"/></g><g id="area.bedroom"><path id="path30466" d="m1003.4 361.35 375.04 140.82-54.764 119.8-47.43 39.117-66.5 178.47 19.07-8.8014-39.606 93.882-210.26-69.922-48.408 150.6-150.6-58.187 27.382-62.099z" fill="none" stroke="#000"/><use id="light.bed_light" href="#path30466"/><path id="path30500" d="m930.62 1005.4 48.411-151.09-143.43-46.61-55.842 139.15z" fill="none" stroke="#000"/><use id="light.bedroom_closet_light" href="#path981"/></g><g id="area.shower"><path id="path30583" d="m986.46 865.77 203.78 68.676-74.756 202.65-199.95-76.332z" fill="none" stroke="#000"/><use id="light.shower_room_mirror_light" href="#path30583"/></g></g><g id="entities"><ellipse id="light.living_room_floor_lamp" cx="808.04" cy="1778.5" rx="35.052" ry="26.977" fill="none" stroke="#000"/><path id="media_player.living_room_tv" d="m388.03 1560 87.132-232.82 16.81-13.168 222.17 1.4008-145.13 371.22z" fill="url(#linearGradient31410)" filter="url(#filter31412)" opacity=".914" stroke="#000"/><path id="media_player.bedroom_tv" d="m952.98 509.18-61.69 163.43 220.98 224.2 98.06-334.23z" fill="url(#linearGradient31788)" filter="url(#filter31790)" opacity=".7"/><ellipse id="light.office_lamp_bulb" cx="590.66" cy="316.74" rx="35.449" ry="34.989" fill="none" opacity=".7" stroke="#000"/><path id="light.kitchen_table_light" d="m702.99 1193.3 162.05 62.611-17.034 46.958 9.2075 4.6037-11.97 32.226-172.18-67.675z" fill="none" opacity=".7" stroke="#000"/><path id="input_boolean.office_mode" d="m287.93 360.64-72.703 192.19 285.77 100.06 66.944-195.07z" opacity="0" stroke-width="1.0016"/></g><g id="doors" fill="none" stroke="#000"><path id="lock.nuki_neklanka_byt_lock" d="m191.52 646.37 60.309 58.468-30.385 70.898-67.215-33.607z" opacity=".7"/><path id="binary_sensor.contact_sensor_kid_balcony" d="m788.25 281.58 89.547 32.438-24.214 114.67-78.429-29.087z" opacity=".7"/><path id="binary_sensor.contact_sensor_bedroom_balcony" d="m1051.9 502.21 53.446-97.908 87.771 32.252-65.425 94.452z" opacity=".7"/><path id="binary_sensor.contact_sensor_garden_door" d="m990.09 1389.9 45.43 30.189-33.413 88.516-39.568-45.137z" opacity=".7"/><path id="binary_sensor.contact_sensor_terrace_door" d="m607.01 1697-13.776 80.895 196.08 72.982-9.3792-87.343z" opacity=".7"/></g><g id="cover" fill="none" stroke="#000"><path id="cover.bedroom_shutters" d="m1279.6 676.77 45.479-36.189-58.512 159.73-41.042 25.096z" opacity=".7"/><path id="cover.door" d="m992.89 1401.7 34.838 27.373-24.658 65.831-32.576-36.196z" opacity=".7"/><path id="cover.window" d="m974.56 1490.6 21.491 25.789-38.458 101.57-19.003-33.255z" opacity=".7"/><g id="cover.living_room_terrace"><path id="path32104" d="m457.33 1644.3 145.28 55.594-11.768 74.667-166.38-64.116z" opacity=".7"/><path id="path32106" d="m612.75 1703.9-13.391 73.044 164.75 62.493-6.4928-79.942z" opacity=".7"/></g></g><g id="icons" transform="translate(-485.37 1488.6)"><path id="icon-front-door" d="m690.73-770.07a3.8341 2.8507 79.631 0 0-1.5267-5.1775c-1.4748-1.0282-3.1661-0.3564-3.7879 1.4723a3.8341 2.8507 79.631 0 0 1.5268 5.1775 3.8341 2.8507 79.631 0 0 3.7878-1.4722m-8.566-18.312a3.8341 2.8507 79.631 0 1 3.7878-1.4722l13.286 9.2631a3.8341 2.8507 79.631 0 1 1.5267 5.1774l-6.7836 19.95a3.8341 2.8507 79.631 0 1-3.7878 1.4722l-13.286-9.2631c-1.4748-1.0282-2.1485-3.3488-1.5267-5.1775l0.56542-1.6625-2.657-1.853a9.5852 7.1268 79.631 0 1-3.8167-12.944 9.5852 7.1268 79.631 0 1 9.4696-3.6807l2.657 1.853 0.56534-1.6624m-10.035 5.3432a5.7511 4.2761 79.631 0 0 2.29 7.7663l2.657 1.853 3.3918-9.9747-2.657-1.853a5.7511 4.2761 79.631 0 0-5.6818 2.2084z" stroke-width="1.653"/><g id="icon-phone-rotate" transform="matrix(1.8898 0 0 1.8898 534.38 -1442)">
	<circle id="path1065" transform="matrix(.52917 0 0 .52917 -929.76 768.03)" cx="1811.4" cy="-1392.1" r="94.488" fill="#fff" opacity=".2" stroke-width="1.0016"/><circle id="circle4153" cx="4.6" cy="19" r="1" stroke-width=".52917"/>
	<circle id="circle4155" cx="11.8" cy="19" r="1" stroke-width=".52917"/>
	<circle id="circle4157" cx="8.2" cy="19" r="1" stroke-width=".52917"/>
	<circle id="circle4159" cx="15.399" cy="19" r="1" stroke-width=".52917"/>
	<path id="path4161" d="m1 20c0.27 0 0.52-0.11 0.71-0.29 0.18-0.19 0.29-0.45 0.29-0.71s-0.11-0.52-0.29-0.71c-0.37-0.37-1.05-0.37-1.42 0-0.181 0.19-0.29 0.44-0.29 0.71s0.109 0.52 0.29 0.71c0.189 0.18 0.439 0.29 0.71 0.29z" stroke-width=".52917"/>
	<path id="path4163" d="m1 34.67c0.55 0 1-0.45 1-1 0-0.56-0.45-1-1-1s-1 0.44-1 1c0 0.55 0.45 1 1 1z" stroke-width=".52917"/>
	<path id="path4165" d="m1 38.33c0.55 0 1-0.44 1-1 0-0.55-0.45-1-1-1s-1 0.45-1 1c0 0.56 0.45 1 1 1z" stroke-width=".52917"/>
	<path id="path4167" d="m1 23.67c0.55 0 1-0.45 1-1 0-0.56-0.45-1-1-1s-1 0.44-1 1c0 0.55 0.45 1 1 1z" stroke-width=".52917"/>
	<circle id="circle4169" cx="1" cy="30" r="1" stroke-width=".52917"/>
	<path id="path4171" d="m1 27.33c0.55 0 1-0.44 1-1 0-0.55-0.45-1-1-1s-1 0.45-1 1c0 0.56 0.45 1 1 1z" stroke-width=".52917"/>
	<path id="path4173" d="m2 41c0-0.26-0.11-0.52-0.29-0.71-0.37-0.37-1.05-0.37-1.42 0-0.181 0.19-0.29 0.45-0.29 0.71 0 0.27 0.109 0.52 0.29 0.7 0.189 0.19 0.439 0.3 0.71 0.3 0.27 0 0.52-0.11 0.71-0.29 0.18-0.19 0.29-0.45 0.29-0.71z" stroke-width=".52917"/>
	<circle id="circle4175" cx="11.8" cy="41" r="1" stroke-width=".52917"/>
	<circle id="circle4177" cx="8.2" cy="41" r="1" stroke-width=".52917"/>
	<circle id="circle4179" cx="15.399" cy="41" r="1" stroke-width=".52917"/>
	<circle id="circle4181" cx="4.6" cy="41" r="1" stroke-width=".52917"/>
	<circle id="circle4183" cx="46.25" cy="41" r="1" stroke-width=".52917"/>
	<circle id="circle4185" cx="54.75" cy="41" r="1" stroke-width=".52917"/>
	<circle id="circle4187" cx="50.5" cy="41" r="1" stroke-width=".52917"/>
	<path id="path4189" d="m58.29 40.29c-0.181 0.19-0.29 0.45-0.29 0.71s0.109 0.52 0.29 0.71c0.189 0.18 0.45 0.29 0.71 0.29 0.27 0 0.52-0.11 0.71-0.29 0.18-0.19 0.29-0.45 0.29-0.71s-0.11-0.52-0.29-0.71c-0.37-0.37-1.05-0.37-1.42 0z" stroke-width=".52917"/>
	<path id="path4191" d="m59 32.67c-0.55 0-1 0.44-1 1 0 0.55 0.45 1 1 1s1-0.45 1-1c0-0.56-0.45-1-1-1z" stroke-width=".52917"/>
	<circle id="circle4193" cx="59" cy="30" r="1" stroke-width=".52917"/>
	<path id="path4195" d="m59 21.67c-0.55 0-1 0.44-1 1 0 0.55 0.45 1 1 1s1-0.45 1-1c0-0.56-0.45-1-1-1z" stroke-width=".52917"/>
	<path id="path4197" d="m59 25.33c-0.55 0-1 0.45-1 1 0 0.56 0.45 1 1 1s1-0.44 1-1c0-0.55-0.45-1-1-1z" stroke-width=".52917"/>
	<path id="path4199" d="m59 36.33c-0.55 0-1 0.45-1 1 0 0.56 0.45 1 1 1s1-0.44 1-1c0-0.55-0.45-1-1-1z" stroke-width=".52917"/>
	<path id="path4201" d="m58.29 18.29c-0.181 0.19-0.29 0.45-0.29 0.71s0.109 0.52 0.29 0.71c0.189 0.18 0.45 0.29 0.71 0.29s0.52-0.11 0.71-0.29c0.18-0.19 0.29-0.45 0.29-0.71s-0.11-0.52-0.29-0.71c-0.38-0.37-1.04-0.37-1.42 0z" stroke-width=".52917"/>
	<circle id="circle4203" cx="46.25" cy="19" r="1" stroke-width=".52917"/>
	<circle id="circle4205" cx="50.5" cy="19" r="1" stroke-width=".52917"/>
	<circle id="circle4207" cx="54.75" cy="19" r="1" stroke-width=".52917"/>
	<path id="path4209" d="m54 14-2.4-1.8c-0.44-0.333-1.068-0.242-1.399 0.2-0.332 0.442-0.242 1.069 0.2 1.4l4 3c0.019 0.014 0.042 0.019 0.062 0.032 0.031 0.02 0.057 0.046 0.091 0.063 0.017 8e-3 0.036 5e-3 0.052 0.012 0.126 0.055 0.258 0.093 0.393 0.093 0.134 0 0.264-0.037 0.389-0.09 0.035-0.015 0.066-0.033 0.1-0.052 0.036-0.021 0.077-0.032 0.111-0.058l4-3c0.442-0.331 0.532-0.958 0.2-1.4-0.331-0.442-0.958-0.533-1.399-0.2l-2.4 1.8c0-7.382-5.747-13.433-13-13.949v-0.051h-25v57.949c-6.15-0.511-11-5.67-11-11.949l2.4 1.8c0.18 0.135 0.39 0.2 0.599 0.2 0.305 0 0.604-0.138 0.801-0.4 0.332-0.442 0.242-1.069-0.2-1.4l-4-3c-0.015-0.011-0.033-0.013-0.048-0.023-0.035-0.024-0.066-0.052-0.104-0.072-0.049-0.024-0.102-0.035-0.153-0.051-0.027-8e-3 -0.052-0.02-0.079-0.026-0.11-0.024-0.222-0.03-0.333-0.017-0.027 3e-3 -0.051 0.013-0.078 0.018-0.088 0.018-0.171 0.047-0.252 0.088-0.031 0.015-0.059 0.03-0.088 0.049-0.022 0.013-0.045 0.02-0.065 0.034l-4 3c-0.442 0.331-0.532 0.958-0.2 1.4 0.331 0.441 0.957 0.532 1.399 0.2l2.401-1.8c0 7.382 5.747 13.433 13 13.949v0.051h25v-57.949c6.15 0.511 11 5.67 11 11.949z" stroke-width=".52917"/>
</g></g></svg>
