<?xml version="1.0" encoding="utf-8"?>
<!-- Uploaded to: SVG Repo, www.svgrepo.com, Generator: SVG Repo Mixer Tools -->
<svg width="800px" height="800px" viewBox="0 0 1024 1024" class="icon"  version="1.1" xmlns="http://www.w3.org/2000/svg"><path d="M791.955 387.594c0-159.285-129.193-288.411-288.477-288.411S214.966 228.309 214.966 387.594C214.966 499.197 278 595.986 371 643.937v92.93C371 806.897 427.837 864 497.867 864h0.167C568.063 864 625 806.897 625 736.867v-87.568c98-45.816 166.955-145.762 166.955-261.705z" fill="#2CC4FE" /><path d="M498.034 868h-0.167C425.707 868 367 809.174 367 736.867v-90.503a292.452 292.452 0 0 1-112.291-104.62c-28.617-46.13-43.743-99.434-43.743-154.15 0-78.1 30.434-151.531 85.696-206.766 55.255-55.229 128.704-85.645 206.815-85.645 78.109 0 151.552 30.416 206.798 85.645 55.25 55.233 85.679 128.664 85.679 206.766 0 56.724-16.383 111.821-47.377 159.335-29.625 45.417-70.932 81.644-119.577 104.903v85.035C629 809.174 570.249 868 498.034 868z m5.444-764.817c-156.88 0-284.511 127.586-284.511 284.411 0 106.989 58.958 203.852 153.867 252.789L375 641.5v95.368C375 804.763 430.118 860 497.867 860h0.167C565.837 860 621 804.763 621 736.867v-90.114l2.306-1.078c100.021-46.761 164.649-148.064 164.649-258.082 0-156.824-127.616-284.41-284.477-284.41z" fill="#515151" /><path d="M371 674.002S438 706 499 706s126-31.998 126-31.998" fill="#2CC4FE" /><path d="M499 710c-61.203 0-126.955-31.066-129.724-32.389l3.447-7.219C373.386 670.708 439.641 702 499 702c59.331 0 123.592-31.271 124.234-31.587l3.533 7.178C624.079 678.914 560.227 710 499 710z" fill="#515151" /><path d="M376.032 772.336S449 802.001 504 802.001s115.959-29.665 115.959-29.665" fill="#2CC4FE" /><path d="M504 806.001c-55.148 0-126.465-28.736-129.474-29.959l3.013-7.411c0.723 0.293 72.894 29.371 126.461 29.371 53.413 0 113.608-28.969 114.21-29.262l3.5 7.194c-2.523 1.227-62.424 30.067-117.71 30.067z" fill="#515151" /><path d="M440 930h131" fill="#2CC4FE" /><path d="M571 934H440a4 4 0 0 1 0-8h131a4 4 0 0 1 0 8z" fill="#515151" /><path d="M322.321 359c-5.142 0-9.513-3.942-9.953-9.16-2.953-34.999 7.704-67.991 30.819-95.411 17.323-20.549 35.536-30.755 36.304-31.179 4.832-2.672 10.918-0.925 13.592 3.908 2.67 4.825 0.929 10.9-3.888 13.58-0.16 0.09-16.218 9.185-31.172 27.125-19.584 23.495-28.239 50.511-25.726 80.296 0.464 5.503-3.621 10.341-9.124 10.805a9.742 9.742 0 0 1-0.852 0.036z" fill="#A1E4FD" /></svg>