<?xml version="1.0" encoding="iso-8859-1"?>
<!-- Uploaded to: SVG Repo, www.svgrepo.com, Generator: SVG Repo Mixer Tools -->
<svg height="800px" width="800px" version="1.1" id="Layer_1" xmlns="http://www.w3.org/2000/svg" xmlns:xlink="http://www.w3.org/1999/xlink" 
	 viewBox="0 0 512 512" xml:space="preserve">
<path style="fill:#89D2E8;" d="M256,0c-12.853,0-23.274,10.421-23.274,23.274v93.068c0,12.853,10.421,23.274,23.274,23.274
	c12.853,0,23.274-10.421,23.274-23.274V23.274C279.274,10.421,268.853,0,256,0z"/>
<path style="fill:#7AC0DE;" d="M279.274,116.342V23.274C279.274,10.421,268.853,0,256,0v139.616
	C268.853,139.616,279.274,129.197,279.274,116.342z"/>
<path style="fill:#F4D371;" d="M349.096,372.356c-12.853,0-23.274,10.421-23.274,23.274H186.178
	c0-12.853-10.421-23.274-23.274-23.274c-12.853,0-23.274,10.421-23.274,23.274C139.63,459.796,191.832,512,256,512
	s116.37-52.204,116.37-116.37C372.37,382.777,361.949,372.356,349.096,372.356z"/>
<path style="fill:#D5F4FA;" d="M302.548,93.068h-93.096c-12.853,0-23.274,10.421-23.274,23.274v93.096
	c0,12.853,10.421,23.274,23.274,23.274h93.096c12.853,0,23.274-10.421,23.274-23.274v-93.096
	C325.822,103.489,315.401,93.068,302.548,93.068z"/>
<path style="fill:#C0FCFF;" d="M325.822,209.438v-93.096c0-12.853-10.421-23.274-23.274-23.274H256v139.644h46.548
	C315.401,232.712,325.822,222.293,325.822,209.438z"/>
<path style="fill:#E9A35F;" d="M349.096,372.356c-12.853,0-23.274,10.421-23.274,23.274H256V512
	c64.166,0,116.37-52.204,116.37-116.37C372.37,382.777,361.949,372.356,349.096,372.356z"/>
<path style="fill:#5192C9;" d="M494.825,386.967l-74.671-186.192c-3.539-8.826-12.092-14.611-21.601-14.611H113.446
	c-9.51,0-18.062,5.786-21.601,14.611L17.174,386.967c-2.875,7.17-2.006,15.302,2.323,21.701c4.329,6.4,11.552,10.236,19.279,10.236
	h434.448c7.725,0,14.95-3.836,19.279-10.236C496.831,402.271,497.702,394.137,494.825,386.967z"/>
<path style="fill:#447BA7;" d="M494.825,386.967l-74.671-186.192c-3.539-8.826-12.092-14.611-21.601-14.611H256v232.74h217.224
	c7.725,0,14.95-3.836,19.279-10.236C496.831,402.271,497.702,394.137,494.825,386.967z"/>
</svg>