<?xml version="1.0" standalone="no"?>
<!DOCTYPE svg PUBLIC "-//W3C//DTD SVG 20010904//EN"
 "http://www.w3.org/TR/2001/REC-SVG-20010904/DTD/svg10.dtd">
<svg version="1.0" xmlns="http://www.w3.org/2000/svg"
 width="700.000000pt" height="700.000000pt" viewBox="0 0 700.000000 700.000000"
 preserveAspectRatio="xMidYMid meet">
<metadata>
Created by potrace 1.14, written by Peter Selinger 2001-2017
</metadata>
<g transform="translate(0.000000,700.000000) scale(0.100000,-0.100000)"
fill="#000000" stroke="none">
<path d="M630 6985 c-314 -63 -555 -306 -616 -622 -21 -111 -21 -5614 0 -5725
21 -107 59 -200 120 -293 117 -174 293 -290 504 -331 110 -21 5614 -21 5724 0
323 62 562 301 624 624 21 110 21 5614 0 5724 -62 323 -301 562 -624 624 -105
20 -5631 19 -5732 -1z m1570 -1306 c69 -16 180 -73 235 -121 29 -26 430 -552
1012 -1328 530 -707 968 -1286 974 -1288 5 -2 9 443 9 1185 0 1299 -3 1229 57
1346 83 165 301 251 511 202 82 -20 134 -47 193 -102 63 -59 95 -116 119 -210
20 -74 20 -121 20 -1852 0 -1908 1 -1850 -50 -1952 -75 -148 -214 -229 -392
-229 -63 0 -94 6 -146 27 -86 34 -164 83 -214 136 -22 23 -466 604 -986 1291
-521 687 -953 1251 -960 1254 -9 3 -12 -239 -12 -1170 0 -1271 2 -1216 -52
-1322 -35 -69 -112 -140 -191 -177 -65 -30 -83 -34 -179 -37 -88 -3 -120 0
-175 16 -116 36 -199 105 -253 211 -51 102 -50 44 -50 1946 0 1900 -1 1839 50
1948 29 62 101 141 159 175 89 52 223 74 321 51z"/>
</g>
</svg>
